SplineFontDB: 3.2
FontName: AtkinsonHyperPro-Bold
FullName: Atkinson Hyperlegible Pro Bold
FamilyName: Atkinson Hyperlegible Pro
Weight: Bold
Copyright: Copyright 2020 Braille Institute of America, Inc.
UComments: "Update by Jacob Perez+AAoA-https://jacobxperez.github.io/atkinson-hyperlegible-pro/"
Version: 1.3.2
ItalicAngle: 0
UnderlinePosition: -106
UnderlineWidth: 57
Ascent: 800
Descent: 200
InvalidEm: 0
sfntRevision: 0x00010000
LayerCount: 2
Layer: 0 0 "Back" 1
Layer: 1 0 "Fore" 0
XUID: [1021 466 782043844 10191]
StyleMap: 0x0020
FSType: 0
OS2Version: 4
OS2_WeightWidthSlopeOnly: 0
OS2_UseTypoMetrics: 1
CreationTime: 1615339189
ModificationTime: 1697742968
PfmFamily: 81
TTFWeight: 700
TTFWidth: 5
LineGap: 0
VLineGap: 0
Panose: 0 0 0 0 0 0 0 0 0 0
OS2TypoAscent: 950
OS2TypoAOffset: 0
OS2TypoDescent: -290
OS2TypoDOffset: 0
OS2TypoLinegap: 0
OS2WinAscent: 950
OS2WinAOffset: 0
OS2WinDescent: 290
OS2WinDOffset: 0
HheadAscent: 950
HheadAOffset: 0
HheadDescent: -290
HheadDOffset: 0
OS2SubXSize: 650
OS2SubYSize: 699
OS2SubXOff: 0
OS2SubYOff: 140
OS2SupXSize: 650
OS2SupYSize: 699
OS2SupXOff: 0
OS2SupYOff: 479
OS2StrikeYSize: 49
OS2StrikeYPos: 258
OS2CapHeight: 668
OS2XHeight: 496
OS2Vendor: 'NONE'
OS2CodePages: 20000003.00000000
OS2UnicodeRanges: 800000ef.0000204b.00000000.00000000
Lookup: 4 0 1 "'liga' Standard Ligatures lookup 0" { "'liga' Standard Ligatures lookup 0-1"  } ['liga' ('DFLT' <'dflt' > 'grek' <'dflt' > 'latn' <'MOL ' 'dflt' > ) ]
Lookup: 1 0 0 "'zero' Slashed Zero lookup 0" { "'zero' Slashed Zero lookup 0-1"  } ['zero' ('DFLT' <'dflt' > 'grek' <'dflt' > 'latn' <'MOL ' 'dflt' > ) ]
Lookup: 1 0 0 "'aalt' Access All Alternates lookup 0" { "'aalt' Access All Alternates lookup 0 subtable"  } ['aalt' ('DFLT' <'dflt' > 'grek' <'dflt' > 'latn' <'dflt' > ) ]
Lookup: 3 0 0 "'aalt' Access All Alternates lookup 1" { "'aalt' Access All Alternates lookup 1 subtable"  } ['aalt' ('DFLT' <'dflt' > 'grek' <'dflt' > 'latn' <'dflt' > ) ]

StartChar: .notdef
Encoding: 256 -1 0
Width: 527
GlyphClass: 1
Flags: W
HStem: 0 21<79 449> 680 20<78 449>
VStem: 50 21<49 650> 457 20<47 652>
DStem2: 78 680 71 650 0.513698 -0.857971<22.1432 360.147 396.696 737.787> 71 49 79 21 0.513896 0.857853<0 339.381 374.897 715.649>
LayerCount: 2
Fore
SplineSet
79 21 m 1
 449 21 l 1
 264 329 l 1
 79 21 l 1
71 49 m 1
 251 350 l 1
 71 650 l 1
 71 49 l 1
457 47 m 1
 457 652 l 1
 276 350 l 1
 457 47 l 1
263 371 m 1
 449 680 l 1
 78 680 l 1
 263 371 l 1
50 0 m 1
 50 700 l 1
 477 700 l 1
 477 0 l 1
 50 0 l 1
EndSplineSet
EndChar

StartChar: zero
Encoding: 48 48 5
Width: 652
GlyphClass: 1
Flags: W
HStem: -12 113<268.924 394.457> 567 113<269.336 392.85>
VStem: 45 156<191.951 428.127> 461 157<249.925 481.271>
DStem2: 254 534 209 431 0.570817 -0.821077<58.8842 351.204>
LayerCount: 2
Fore
SplineSet
201 336.662404461 m 0
 201 243.721572477 218.996458278 101 331.317467122 101 c 0
 364.779117368 101 391.333333333 113.666666667 412 139 c 1
 209 431 l 1
 203.31733493 401.166008382 201 370.013295222 201 336.662404461 c 0
461 332.951521344 m 0
 461 428.961040449 442.236339855 567 332.400081582 567 c 0
 301.394403502 567 275.333333333 556 254 534 c 1
 455 246 l 1
 459 272 461 301.606359749 461 332.951521344 c 0
618 341.079818751 m 0
 618 228.342261412 589.008178692 -12 338.864227092 -12 c 0
 244.612825812 -12 45 22.1213151717 45 332.046381928 c 0
 45 547.132908299 141.139408884 680 331.146958564 680 c 0
 521.166633503 680 618 547.115950034 618 341.079818751 c 0
EndSplineSet
Substitution2: "'zero' Slashed Zero lookup 0-1" zero.alt1
Substitution2: "'aalt' Access All Alternates lookup 0 subtable" zero.alt1
Substitution2: "'tnum' Tabular Numbers lookup 14 subtable" zero.tf
EndChar

StartChar: one
Encoding: 49 49 6
Width: 448
GlyphClass: 1
Flags: W
HStem: 0 21G<199 350> 448 123<47 178.492> 648 20G<218.078 350>
VStem: 199 151<0 448>
LayerCount: 2
Fore
SplineSet
47 571 m 1
 160.018054331 571 201.156990047 583.392475118 235 668 c 1
 350 668 l 1
 350 0 l 1
 199 0 l 1
 199 448 l 1
 47 448 l 1
 47 571 l 1
EndSplineSet
Substitution2: "'tnum' Tabular Numbers lookup 14 subtable" one.tf
Substitution2: "'sups' Superscript lookup 9 subtable" uni00B9
AlternateSubs2: "'aalt' Access All Alternates lookup 1 subtable" uni00B9 one.tf
EndChar

StartChar: two
Encoding: 50 50 7
Width: 586
GlyphClass: 1
Flags: W
HStem: 0 125<228 547> 567 113<233.746 364.161>
VStem: 391 153<417.096 538.87>
LayerCount: 2
Fore
SplineSet
544 490.667711935 m 0
 544 353.324473895 427.546213962 241.741322454 228 125 c 1
 547 125 l 1
 547 0 l 1
 34 0 l 1
 34 125 l 1
 292.42032676 307.068866581 391 399.93964137 391 484.52166351 c 0
 391 542.247547023 345.083114353 567 298.981653913 567 c 0
 279.022402066 567 215.105633399 562.360433613 197 485 c 1
 59 535 l 1
 95.2551198636 628.994755202 188.908589791 680 297.741664229 680 c 0
 341.838886793 680 544 671.626336321 544 490.667711935 c 0
EndSplineSet
Substitution2: "'tnum' Tabular Numbers lookup 14 subtable" two.tf
Substitution2: "'sups' Superscript lookup 9 subtable" uni00B2
AlternateSubs2: "'aalt' Access All Alternates lookup 1 subtable" uni00B2 two.tf
EndChar

StartChar: three
Encoding: 51 51 8
Width: 605
GlyphClass: 1
Flags: W
HStem: -12 113<217.201 366.756> 291 106<211 337.277> 567 113<215.122 360.242>
VStem: 390 153<439.29 536.943> 398 156<131.2 245.809>
LayerCount: 2
Fore
SplineSet
554 189.751399441 m 0xe8
 554 55.7126619331 425.056695484 -12 292.413719026 -12 c 0
 227.225560779 -12 86.7463074952 4.35455727396 33 140 c 1
 171 190 l 1
 179.038777751 159.699991553 206.061228694 101 291.266396453 101 c 0
 319.283065818 101 398 107.346571495 398 189.347558619 c 0xe8
 398 228.260775149 380.273447895 291 211 291 c 1
 211 397 l 1
 248.238890268 397 390 399.150284157 390 488.189144301 c 0
 390 541.845745084 338.519324931 567 285.490843716 567 c 0
 253.042241883 567 192.778571328 557.581428107 177 485 c 1
 40 535 l 1
 56.6773293663 577.527189884 115.492456576 680 290.737484274 680 c 0
 412.61609227 680 543 630.435331248 543 508.374564476 c 0xf0
 543 435.995347955 497.154199427 378.945256816 450 352 c 1
 502.634527786 332.860171714 554 274.35066118 554 189.751399441 c 0xe8
EndSplineSet
Substitution2: "'tnum' Tabular Numbers lookup 14 subtable" three.tf
Substitution2: "'sups' Superscript lookup 9 subtable" uni00B3
AlternateSubs2: "'aalt' Access All Alternates lookup 1 subtable" uni00B3 three.tf
EndChar

StartChar: four
Encoding: 52 52 9
Width: 626
GlyphClass: 1
Flags: W
HStem: 0 21G<348 500> 141 134<188 348 500 592> 648 20G<332.375 500>
VStem: 348 152<0 141 275 469>
DStem2: 23 252 188 275 0.615644 0.788024<119.706 371.086>
LayerCount: 2
Fore
SplineSet
188 275 m 1
 348 275 l 1
 348 469 l 1
 188 275 l 1
348 0 m 1
 348 141 l 1
 23 141 l 1
 23 252 l 1
 348 668 l 1
 500 668 l 1
 500 275 l 1
 592 275 l 1
 592 141 l 1
 500 141 l 1
 500 0 l 1
 348 0 l 1
EndSplineSet
Substitution2: "'tnum' Tabular Numbers lookup 14 subtable" four.tf
Substitution2: "'sups' Superscript lookup 9 subtable" uni2074
AlternateSubs2: "'aalt' Access All Alternates lookup 1 subtable" four.tf uni2074
EndChar

StartChar: five
Encoding: 53 53 10
Width: 612
GlyphClass: 1
Flags: W
HStem: -12 113<214.017 362.435> 341 113<221.796 362.282> 544 124<213 534>
VStem: 408 157<146.093 293.694>
LayerCount: 2
Fore
SplineSet
565 225.343683348 m 0
 565 55.7269857729 423.990205987 -12 296.835214255 -12 c 0
 236.642489968 -12 99.7343158355 3.17689463052 41 139 c 1
 173 187 l 1
 185.114738739 144.598414415 215.131644618 101 284.062609074 101 c 0
 313.179283706 101 408 108.779031533 408 219.005464734 c 0
 408 303.056460561 352.86626055 341 289.004933292 341 c 0
 240.747405296 341 204 319.333333333 180 276 c 1
 45 326 l 1
 87 668 l 1
 534 668 l 1
 534 544 l 1
 213 544 l 1
 198 419 l 1
 229.05113475 441.950838728 284.804871181 454 331.085419108 454 c 0
 443.695408106 454 565 382.663193228 565 225.343683348 c 0
EndSplineSet
Substitution2: "'tnum' Tabular Numbers lookup 14 subtable" five.tf
Substitution2: "'aalt' Access All Alternates lookup 0 subtable" five.tf
EndChar

StartChar: six
Encoding: 54 54 11
Width: 632
GlyphClass: 1
Flags: W
HStem: -12 113<253.075 383.45> 338 114<253.214 384.07> 570 110<266.252 395.181>
VStem: 51 161<156.522 333.176> 425 153<141.378 295.713>
LayerCount: 2
Fore
SplineSet
212 219.937432891 m 0
 212 147.499370778 254.425735845 101 319.852973747 101 c 0
 385.711279679 101 425 148.114112409 425 219.261439916 c 0
 425 290.85791864 385.213656553 338 319.346794978 338 c 0
 254.738046737 338 212 292.641627266 212 219.937432891 c 0
578 228.339445995 m 0
 578 97.8567072406 483.33992292 -12 313.742278365 -12 c 0
 115.280552149 -12 51 138.432084732 51 305.340535219 c 0
 51 370.35208951 60.7522324945 680 339.845720247 680 c 0
 394.480689436 680 493.693639239 668.133841288 544 583 c 1
 408 534 l 1
 394.476968798 556.989153043 364.340910687 570 330.394613364 570 c 0
 289.071073382 570 210 550.719611374 210 403 c 1
 239.616341566 430.247034241 283.704334486 452 347.252117911 452 c 0
 474.500853119 452 578 364.778287078 578 228.339445995 c 0
EndSplineSet
Substitution2: "'tnum' Tabular Numbers lookup 14 subtable" six.tf
Substitution2: "'aalt' Access All Alternates lookup 0 subtable" six.tf
EndChar

StartChar: seven
Encoding: 55 55 12
Width: 543
GlyphClass: 1
Flags: W
HStem: 0 21G<83 267.466> 543 125<15 354>
LayerCount: 2
Fore
SplineSet
83 0 m 1
 354 543 l 1
 15 543 l 1
 15 668 l 1
 515 668 l 1
 515 543 l 1
 258 0 l 1
 83 0 l 1
EndSplineSet
Substitution2: "'tnum' Tabular Numbers lookup 14 subtable" seven.tf
Substitution2: "'aalt' Access All Alternates lookup 0 subtable" seven.tf
EndChar

StartChar: eight
Encoding: 56 56 13
Width: 625
GlyphClass: 1
Flags: W
HStem: -12 126<234.107 391.724> 294 123<265.221 361.573> 555 125<264.166 360.896>
VStem: 38 157<150.004 261.713> 120 124<436.662 534.8> 380 125<434.975 536.043> 430 157<150.827 260.886>
LayerCount: 2
Fore
SplineSet
195 208.260294026 m 0xf2
 195 151.192742032 243.092485932 114 306.976371166 114 c 0
 315.647909671 114 430 114.685279705 430 203.783208646 c 0
 430 261.51774107 381.984639323 294 316.679924664 294 c 0
 293.093806169 294 195 289.762886441 195 208.260294026 c 0xf2
244 486.492166862 m 0xec
 244 448.13458085 275.262838969 417 312.908704299 417 c 0
 350.234340596 417 380 447.607150193 380 486.81923405 c 0
 380 525.159648077 351.542990469 555 313.372396674 555 c 0
 274.838118087 555 244 524.58830864 244 486.492166862 c 0xec
587 206.601333954 m 0xe2
 587 68.4331282619 473.290779151 -12 315.639767811 -12 c 0
 258.485286085 -12 138.967780881 -1.42836842117 75.3614847835 85.1468679335 c 0
 50.4247843903 119.088487913 38 159.378743932 38 205.58775855 c 0xf2
 38 287.505946693 77.047759713 335.50858127 152 377 c 1
 130.570078204 411.287874874 120 448.092129795 120 486.725293134 c 0
 120 588.656681737 193.582330923 680 312.747864446 680 c 0
 430.241466349 680 505 591.201854373 505 487.201089713 c 0xec
 505 447.307557777 494 410.666666667 472 378 c 1
 549.900774097 334.876357196 587 285.522355814 587 206.601333954 c 0xe2
EndSplineSet
Substitution2: "'tnum' Tabular Numbers lookup 14 subtable" eight.tf
Substitution2: "'aalt' Access All Alternates lookup 0 subtable" eight.tf
EndChar

StartChar: nine
Encoding: 57 57 14
Width: 561
GlyphClass: 1
Flags: W
HStem: 0 21G<170 418.546> 202 133<215.934 278> 544 135<213.652 341.899>
VStem: 38 135<374.804 506.2>
LayerCount: 2
Fore
SplineSet
173 439.9750993 m 0
 173 374.838829701 223.668323776 335 278.748402621 335 c 0
 377.466997227 335 415.726611024 462.972128543 344.609377317 520.75488093 c 0
 325.789978829 536.045642202 302.291368876 544 276.103384508 544 c 0
 213.047043614 544 173 497.8832698 173 439.9750993 c 0
275.033196055 679 m 0
 408.017944388 679 516 570.988748184 516 423.451012879 c 0
 516 381.073170732 507.091121356 362.820833999 330 0 c 1
 170 0 l 1
 205.951870447 61.9859835288 240.427271105 126.854542211 278 202 c 1
 267 202 l 1
 142.614526125 207.923117804 38 308.428421015 38 440.499365154 c 0
 38 572.995916663 143.289867026 679 275.033196055 679 c 0
EndSplineSet
Substitution2: "'tnum' Tabular Numbers lookup 14 subtable" nine.tf
Substitution2: "'aalt' Access All Alternates lookup 0 subtable" nine.tf
EndChar

StartChar: A
Encoding: 65 65 15
Width: 690
GlyphClass: 2
Flags: W
HStem: 0 21G<5 183.723 506.277 685> 119 128<260 430> 648 20G<250.425 439.575>
DStem2: 5 0 177 0 0.35419 0.935173<60.9207 186.374 321.306 484.629> 432 668 344 501 0.35419 -0.935173<125.005 393> 685 0 473 119 0.35419 -0.935173<-558.903 -321.306 -186.374 -60.9207>
AnchorPoint: "Anchor-2" 685 0 basechar 0
AnchorPoint: "Anchor-1" 345 0 basechar 0
AnchorPoint: "Anchor-0" 345 668 basechar 0
LayerCount: 2
Fore
SplineSet
260 247 m 1
 430 247 l 1
 344 501 l 1
 260 247 l 1
5 0 m 1
 258 668 l 1
 432 668 l 1
 685 0 l 1
 513 0 l 1
 473 119 l 1
 217 119 l 1
 177 0 l 1
 5 0 l 1
EndSplineSet
Substitution2: "Single Substitution lookup 12 subtable" ordfeminine
Substitution2: "'aalt' Access All Alternates lookup 0 subtable" ordfeminine
EndChar

StartChar: B
Encoding: 66 66 16
Width: 639
GlyphClass: 1
Flags: W
HStem: 0 131<202 422.988> 282 122<202 407.087> 539 129<202 405.498>
VStem: 44 158<131 282 404 539> 426 164<422.899 519.882> 450 167<156.313 258.143>
AnchorPoint: "Anchor-0" 286 668 basechar 0
LayerCount: 2
Fore
SplineSet
450 206.429013283 m 0xf4
 450 253.642873067 416.400208435 282 348 282 c 2
 202 282 l 1
 202 131 l 1
 348 131 l 2
 382.880151573 131 450 139.698156981 450 206.429013283 c 0xf4
426 470.297639994 m 0xf8
 426 491.306343657 418.329604 539 341 539 c 2
 202 539 l 1
 202 404 l 1
 341 404 l 2
 359.54361783 404 426 408.459173703 426 470.297639994 c 0xf8
617 201.88427231 m 0xf4
 617 109.912594242 571.258215138 0 347 0 c 2
 44 0 l 1
 44 668 l 1
 336 668 l 2
 515.231231182 668 590 609.618574298 590 499.319524835 c 0xf8
 590 431.53701707 561.763429053 385.725233374 511 355 c 1
 603.956913404 323.355093309 617 250.996286498 617 201.88427231 c 0xf4
EndSplineSet
EndChar

StartChar: C
Encoding: 67 67 17
Width: 673
GlyphClass: 2
Flags: W
HStem: -12 130<291.288 457.72> 550 130<291.149 454.786>
VStem: 35 167<218.933 448.513>
AnchorPoint: "Anchor-1" 357 0 basechar 0
AnchorPoint: "Anchor-0" 357 668 basechar 0
LayerCount: 2
Fore
SplineSet
651 142 m 1
 597.532577341 47.0953247811 497.322641925 -12 363.55649225 -12 c 0
 167.480449344 -12 35 114.972519725 35 332.10284203 c 0
 35 561.739863433 183.181725807 680 366.503771315 680 c 0
 441.467928429 680 574.62605194 660.225008218 647 525 c 1
 507 474 l 1
 475.120897448 533.411054756 414.435678913 550 370.345187838 550 c 0
 278.795356111 550 202 478.47728326 202 332.234507786 c 0
 202 263.206561618 219.109448884 209.421146122 253.422696156 170.155471409 c 0
 283.776115551 135.421146122 322.391053524 118 371.062787446 118 c 0
 420.663976052 118 481.561297919 136.092861327 512 193 c 1
 651 142 l 1
EndSplineSet
EndChar

StartChar: D
Encoding: 68 68 18
Width: 686
GlyphClass: 2
Flags: W
HStem: 0 133<202 389.486> 537 131<202 391.068>
VStem: 44 158<133 537> 488 163<222.526 445.508>
AnchorPoint: "Anchor-1" 343 0 basechar 0
AnchorPoint: "Anchor-0" 326 668 basechar 0
LayerCount: 2
Fore
SplineSet
488 333.813727559 m 0
 488 471.232704999 428.35540701 537 267 537 c 2
 202 537 l 1
 202 133 l 1
 267 133 l 2
 422.580023956 133 488 189.89531393 488 333.813727559 c 0
651 334.92820602 m 0
 651 190.313069131 599.978484413 0 264 0 c 2
 44 0 l 1
 44 668 l 1
 264 668 l 2
 605.054426513 668 651 472.161318642 651 334.92820602 c 0
EndSplineSet
EndChar

StartChar: E
Encoding: 69 69 19
Width: 580
GlyphClass: 2
Flags: W
HStem: 0 139<202 558> 274 139<202 419> 529 139<202 558>
VStem: 44 158<139 274 413 529>
AnchorPoint: "Anchor-2" 522 0 basechar 0
AnchorPoint: "Anchor-1" 290 0 basechar 0
AnchorPoint: "Anchor-0" 303 668 basechar 0
LayerCount: 2
Fore
SplineSet
44 0 m 1
 44 668 l 1
 558 668 l 1
 558 529 l 1
 202 529 l 1
 202 413 l 1
 419 413 l 1
 419 274 l 1
 202 274 l 1
 202 139 l 1
 558 139 l 1
 558 0 l 1
 44 0 l 1
EndSplineSet
EndChar

StartChar: F
Encoding: 70 70 20
Width: 544
GlyphClass: 1
Flags: W
HStem: 0 21G<44 202> 274 139<202 522> 529 139<202 522>
VStem: 44 158<0 274 413 529>
AnchorPoint: "Anchor-0" 273 668 basechar 0
LayerCount: 2
Fore
SplineSet
44 0 m 1
 44 668 l 1
 522 668 l 1
 522 529 l 1
 202 529 l 1
 202 413 l 1
 522 413 l 1
 522 274 l 1
 202 274 l 1
 202 0 l 1
 44 0 l 1
EndSplineSet
EndChar

StartChar: G
Encoding: 71 71 21
Width: 719
GlyphClass: 2
Flags: W
HStem: -12 130<293.188 471.732> 0 21G<573.054 683> 250 128<375 525> 550 130<294.473 462.563>
VStem: 35 167<222.166 453.534> 525 158<165.979 250>
AnchorPoint: "Anchor-1" 350 0 basechar 0
AnchorPoint: "Anchor-0" 370 668 basechar 0
LayerCount: 2
Fore
SplineSet
376.198497458 118 m 0xbc
 410.564022901 118 525 125.503545129 525 231 c 2
 525 250 l 1
 375 250 l 1
 375 378 l 1
 683 378 l 1
 683 0 l 1
 579 0 l 1x7c
 557 74 l 1
 514.333333333 16.6666666667 446.219359726 -12 353.777657932 -12 c 0
 140.119887319 -12 35 141.136500236 35 332.49206741 c 0
 35 564.371130546 189.35679663 680 396.158605044 680 c 0
 405.121023401 680 562.951278885 679.782825895 644 542 c 1
 508 486 l 1
 499.245753963 500.22564981 462.494016135 550 381.542566615 550 c 0
 338.079588658 550 202 535.651870134 202 342.483078396 c 0
 202 285.356004434 213.901536188 118 376.198497458 118 c 0xbc
EndSplineSet
EndChar

StartChar: H
Encoding: 72 72 22
Width: 679
GlyphClass: 2
Flags: W
HStem: 0 21G<44 202 477 635> 274 139<202 477> 648 20G<44 202 477 635>
VStem: 44 158<0 274 413 668> 477 158<0 274 413 668>
AnchorPoint: "Anchor-1" 340 0 basechar 0
AnchorPoint: "Anchor-0" 340 668 basechar 0
LayerCount: 2
Fore
SplineSet
44 0 m 1
 44 668 l 1
 202 668 l 1
 202 413 l 1
 477 413 l 1
 477 668 l 1
 635 668 l 1
 635 0 l 1
 477 0 l 1
 477 274 l 1
 202 274 l 1
 202 0 l 1
 44 0 l 1
EndSplineSet
EndChar

StartChar: I
Encoding: 73 73 23
Width: 458
GlyphClass: 2
Flags: W
HStem: 0 124<57 151 309 401> 544 124<57 151 309 401>
VStem: 57 344<0 124 544 668>
AnchorPoint: "Anchor-2" 331 0 basechar 0
AnchorPoint: "Anchor-1" 229 0 basechar 0
AnchorPoint: "Anchor-0" 231 668 basechar 0
LayerCount: 2
Fore
SplineSet
57 0 m 1
 57 124 l 1
 151 124 l 1
 151 544 l 1
 57 544 l 1
 57 668 l 1
 401 668 l 1
 401 544 l 1
 309 544 l 1
 309 124 l 1
 401 124 l 1
 401 0 l 1
 57 0 l 1
EndSplineSet
EndChar

StartChar: J
Encoding: 74 74 24
Width: 560
GlyphClass: 1
Flags: W
HStem: -12 125<200.561 320.735>
VStem: 358 158<155.706 668>
AnchorPoint: "Anchor-0" 441 668 basechar 0
LayerCount: 2
Fore
SplineSet
516 256 m 2
 516 169.937766398 488.575554714 -12 260.766179971 -12 c 0
 170.227119938 -12 44.1001036867 16.7376755539 5 175 c 1
 150 228 l 1
 163.810059121 163.553057433 195.003967384 113 262.556446654 113 c 0
 320.183528821 113 358 149.789010079 358 256 c 2
 358 668 l 1
 516 668 l 1
 516 256 l 2
EndSplineSet
EndChar

StartChar: K
Encoding: 75 75 25
Width: 659
GlyphClass: 2
Flags: W
HStem: 0 21G<44 202 451.588 649> 648 20G<44 202 424.811 636>
VStem: 44 158<0 197 403 668> 443 193<475 668> 466 183<0 183>
DStem2: 202 403 372 382 0.677631 0.735402<99.7539 358.191> 372 382 270 272 0.587037 -0.80956<29.1738 364.433>
AnchorPoint: "Anchor-1" 319 0 basechar 0
AnchorPoint: "Anchor-0" 330 668 basechar 0
LayerCount: 2
Fore
SplineSet
44 0 m 1xe8
 44 668 l 1
 202 668 l 1
 202 403 l 1
 443 668 l 1
 636 668 l 1xf0
 372 382 l 1
 649 0 l 1
 466 0 l 1
 270 272 l 1
 202 197 l 1
 202 0 l 1
 44 0 l 1xe8
EndSplineSet
EndChar

StartChar: L
Encoding: 76 76 26
Width: 537
GlyphClass: 2
Flags: W
HStem: 0 139<202 522> 648 20G<44 202>
VStem: 44 158<139 668>
AnchorPoint: "Anchor-1" 269 0 basechar 0
AnchorPoint: "Anchor-0" 127 668 basechar 0
LayerCount: 2
Fore
SplineSet
44 0 m 1
 44 668 l 1
 202 668 l 1
 202 139 l 1
 522 139 l 1
 522 0 l 1
 44 0 l 1
EndSplineSet
EndChar

StartChar: M
Encoding: 77 77 27
Width: 842
GlyphClass: 1
Flags: W
HStem: 0 21G<44 197 348.981 491.057 644 798> 648 20G<44 286.804 555.113 798>
VStem: 44 153<0 525> 644 154<0 525>
DStem2: 281 668 197 525 0.288184 -0.957575<112.726 498.736> 420 189 485 0 0.289856 0.95707<0 386.503>
AnchorPoint: "Anchor-0" 420 668 basechar 0
LayerCount: 2
Fore
SplineSet
44 0 m 1
 44 668 l 1
 281 668 l 1
 420 189 l 1
 561 668 l 1
 798 668 l 1
 798 0 l 1
 644 0 l 1
 644 525 l 1
 485 0 l 1
 355 0 l 1
 197 525 l 1
 197 0 l 1
 44 0 l 1
EndSplineSet
EndChar

StartChar: N
Encoding: 78 78 28
Width: 700
GlyphClass: 2
Flags: W
HStem: 0 21G<44 196 443.16 656> 648 20G<44 255.84 503 656>
VStem: 44 152<0 476> 503 153<192 668>
DStem2: 245 668 196 476 0.476521 -0.879163<145.45 541.424>
AnchorPoint: "Anchor-1" 322 0 basechar 0
AnchorPoint: "Anchor-0" 365 668 basechar 0
LayerCount: 2
Fore
SplineSet
44 0 m 1
 44 668 l 1
 245 668 l 1
 503 192 l 1
 503 668 l 1
 656 668 l 1
 656 0 l 1
 454 0 l 1
 196 476 l 1
 196 0 l 1
 44 0 l 1
EndSplineSet
EndChar

StartChar: O
Encoding: 79 79 29
Width: 764
GlyphClass: 2
Flags: W
HStem: -12 130<297.567 464.675> 550 130<297.984 465.06>
VStem: 35 167<223.116 442.996> 561 168<225.127 444.849>
AnchorPoint: "Anchor-2" 688 10 basechar 0
AnchorPoint: "Anchor-1" 382 0 basechar 0
AnchorPoint: "Anchor-0" 382 668 basechar 0
LayerCount: 2
Fore
SplineSet
202 334.873651746 m 0
 202 183.094910532 292.284861881 118 381.069639181 118 c 0
 465.733992169 118 561 177.193116042 561 333.149035107 c 0
 561 485.628473673 469.933884887 550 381.673473562 550 c 0
 296.675164745 550 202 490.298879493 202 334.873651746 c 0
729 334.630310936 m 0
 729 129.760737045 590.54652632 -12 381.406574282 -12 c 0
 175.740217731 -12 35 125.09084814 35 333.418760806 c 0
 35 539.401144141 172.588916726 680 380.905218783 680 c 0
 587.456756422 680 729 541.773237513 729 334.630310936 c 0
EndSplineSet
Substitution2: "Single Substitution lookup 12 subtable" ordmasculine
Substitution2: "'aalt' Access All Alternates lookup 0 subtable" ordmasculine
EndChar

StartChar: P
Encoding: 80 80 30
Width: 626
GlyphClass: 1
Flags: W
HStem: 0 21G<44 202> 232 131<202 405.188> 535 133<202 403.995>
VStem: 44 158<0 232 363 535> 437 167<394.789 506.43>
AnchorPoint: "Anchor-0" 292 668 basechar 0
LayerCount: 2
Fore
SplineSet
437 449.391128778 m 0
 437 511.494693271 394.502212885 535 306 535 c 2
 202 535 l 1
 202 363 l 1
 306 363 l 2
 406.998078247 363 437 397.210668417 437 449.391128778 c 0
604 452.35958678 m 0
 604 312.686013189 528.401430129 232 301 232 c 2
 202 232 l 1
 202 0 l 1
 44 0 l 1
 44 668 l 1
 301 668 l 2
 550.062932531 668 604 570.337611369 604 452.35958678 c 0
EndSplineSet
EndChar

StartChar: Q
Encoding: 81 81 31
Width: 781
GlyphClass: 1
Flags: W
HStem: -12 130<299.748 465.289> 550 130<297.991 464.449>
VStem: 35 167<223.658 443.019> 561 168<252.156 442.69>
DStem2: 421 372 338 285 0.727013 -0.686624<0 176.866 342.458 493.803>
LayerCount: 2
Fore
SplineSet
202 334.916808434 m 0
 202 185.144003414 289.960928797 118 382.980322098 118 c 0
 419.471686856 118 452.333333333 128.333333333 481 149 c 1
 338 285 l 1
 421 372 l 1
 550 251 l 1
 556.71204109 272.254796786 561 298.258998647 561 331.9494262 c 0
 561 490.985731215 465.450124854 550 381.316958115 550 c 0
 296.727166024 550 202 490.343403351 202 334.916808434 c 0
729 334.146364755 m 0
 729 288.461068457 722.072826058 210.807148783 674 135 c 1
 781 34 l 1
 698 -55 l 1
 589 48 l 1
 531.666666667 8 462.564488017 -12 383.238529809 -12 c 0
 175.238813248 -12 35 125.507006713 35 333.4402923 c 0
 35 539.399209001 172.588264849 680 381.060844445 680 c 0
 589.960360146 680 729 538.822739711 729 334.146364755 c 0
EndSplineSet
EndChar

StartChar: R
Encoding: 82 82 32
Width: 654
GlyphClass: 2
Flags: W
HStem: 0 21G<44 202 439.635 637> 252 132<202 273> 535 133<202 405.28>
VStem: 44 158<0 252 384 535> 437 167<409.487 507.671> 454 183<0 183>
DStem2: 443 269 273 252 0.58494 -0.811077<0 224.614>
AnchorPoint: "Anchor-1" 327 0 basechar 0
AnchorPoint: "Anchor-0" 307 668 basechar 0
LayerCount: 2
Fore
SplineSet
437 458.847110088 m 0xf8
 437 518.838701064 382.9226743 535 306 535 c 2
 202 535 l 1
 202 384 l 1
 306 384 l 2
 388.719983826 384 437 402.162328193 437 458.847110088 c 0xf8
604 466.034077245 m 0
 604 333.738920794 514.625300487 288.025470442 443 269 c 1
 637 0 l 1
 454 0 l 1xf4
 273 252 l 1
 202 252 l 1
 202 0 l 1
 44 0 l 1
 44 668 l 1
 301 668 l 2
 486.689308567 668 604 617.601352795 604 466.034077245 c 0
EndSplineSet
EndChar

StartChar: S
Encoding: 83 83 33
Width: 619
GlyphClass: 2
Flags: W
HStem: -12 127<225.819 407.163> 553 127<212.536 384.52>
VStem: 28 162<447.4 529.168> 434 162<141.324 228.114>
DStem2: 266 421 231 285 0.980581 -0.196116<-65.6253 185.651>
AnchorPoint: "Anchor-1" 329 0 basechar 0
AnchorPoint: "Anchor-0" 304 668 basechar 0
LayerCount: 2
Fore
SplineSet
596 213.179292892 m 0
 596 75.9282455153 467.852355109 -12 306.113693277 -12 c 0
 169.958891413 -12 66.34188074 50.3112755095 25 157 c 1
 169 209 l 1
 180.237110634 170.472763542 213.869639931 115 312.872982736 115 c 0
 342.885437623 115 434 120.097803902 434 183.959994933 c 0
 434 230.426391294 385.7632377 255.340141167 312 269 c 2
 231 285 l 2
 117.218160238 308.177782174 28 362.025061396 28 473.657587942 c 0
 28 628.238457282 199.073699023 680 310.609111152 680 c 0
 349.020776696 680 510.921578048 673.860854358 567 535 c 1
 424 483 l 1
 406.916343035 527.680333601 361.051266454 553 300.462296866 553 c 0
 280.618616251 553 190 550.284090446 190 490.328175391 c 0
 190 455.795366863 220.061950559 430.457833708 266 421 c 2
 356 403 l 2
 526.790386002 369.675046634 596 314.045006693 596 213.179292892 c 0
EndSplineSet
EndChar

StartChar: T
Encoding: 84 84 34
Width: 617
GlyphClass: 2
Flags: W
HStem: 0 21G<230 387> 529 139<15 230 387 602>
VStem: 230 157<0 529>
AnchorPoint: "Anchor-1" 309 0 basechar 0
AnchorPoint: "Anchor-0" 309 668 basechar 0
LayerCount: 2
Fore
SplineSet
230 0 m 1
 230 529 l 1
 15 529 l 1
 15 668 l 1
 602 668 l 1
 602 529 l 1
 387 529 l 1
 387 0 l 1
 230 0 l 1
EndSplineSet
EndChar

StartChar: U
Encoding: 85 85 35
Width: 663
GlyphClass: 2
Flags: W
HStem: -12 129<249.943 412.751> 648 20G<44 202 461 619>
VStem: 44 158<165.057 668> 461 158<165.055 668>
AnchorPoint: "Anchor-2" 440 0 basechar 0
AnchorPoint: "Anchor-1" 332 0 basechar 0
AnchorPoint: "Anchor-0" 332 668 basechar 0
LayerCount: 2
Fore
SplineSet
619 292 m 2
 619 86.5579721134 537.559157783 -12 331.029200748 -12 c 0
 124.495297258 -12 44 86.5617387177 44 292 c 2
 44 668 l 1
 202 668 l 1
 202 279 l 2
 202 161.263678994 236.296963982 117 331.296891484 117 c 0
 427.566565596 117 461 162.454822193 461 279 c 2
 461 668 l 1
 619 668 l 1
 619 292 l 2
EndSplineSet
EndChar

StartChar: V
Encoding: 86 86 36
Width: 656
GlyphClass: 1
Flags: W
HStem: 0 21G<229.234 425.796> 648 20G<10 180.232 474.727 646>
VStem: 10 164<504 668> 481 165<503 668>
DStem2: 174 668 10 668 0.320479 -0.947256<0 514.136> 327 177 419 0 0.32175 0.946825<0 514.44>
LayerCount: 2
Fore
SplineSet
236 0 m 1
 10 668 l 1
 174 668 l 1
 327 177 l 1
 481 668 l 1
 646 668 l 1
 419 0 l 1
 236 0 l 1
EndSplineSet
EndChar

StartChar: W
Encoding: 87 87 37
Width: 883
GlyphClass: 1
Flags: W
HStem: 0 21G<166.18 344.298 538.66 716.82> 648 20G<10 172.017 354.767 527.276 710.983 873>
VStem: 10 158<510 668> 715 158<510 668>
DStem2: 261 205 340 0 0.210097 0.97768<0 296.903> 523 668 441 470 0.212084 -0.977251<176.105 473.464>
AnchorPoint: "Anchor-0" 441 668 basechar 0
LayerCount: 2
Fore
SplineSet
171 0 m 1
 10 668 l 1
 168 668 l 1
 261 205 l 1
 359 668 l 1
 523 668 l 1
 622 205 l 1
 715 668 l 1
 873 668 l 1
 712 0 l 1
 543 0 l 1
 441 470 l 1
 340 0 l 1
 171 0 l 1
EndSplineSet
EndChar

StartChar: X
Encoding: 88 88 38
Width: 699
GlyphClass: 1
Flags: W
HStem: 0 21G<10 214.123 484.782 689> 648 20G<24 227.167 471.729 675>
VStem: 10 190<0 190> 24 189<479 668> 486 189<479 668> 499 190<0 190>
DStem2: 10 0 200 0 0.580315 0.814392<110.26 368.564 584.377 820.244> 213 668 24 668 0.580315 -0.814392<0 235.286 451.1 709.984>
LayerCount: 2
Fore
SplineSet
10 0 m 1xe4
 255 343 l 1
 24 668 l 1
 213 668 l 1
 349 476 l 1
 486 668 l 1
 675 668 l 1xd8
 444 343 l 1
 689 0 l 1
 499 0 l 1
 349 211 l 1
 200 0 l 1
 10 0 l 1xe4
EndSplineSet
EndChar

StartChar: Y
Encoding: 89 89 39
Width: 687
GlyphClass: 2
Flags: W
HStem: 0 21G<265 422> 648 20G<10 205.595 480.405 677>
VStem: 10 184<484 668> 265 157<0 260> 492 185<483 668>
DStem2: 194 668 10 668 0.529999 -0.847998<0 296.905> 343 411 422 260 0.529999 0.847998<0 296.905>
AnchorPoint: "Anchor-1" 344 0 basechar 0
AnchorPoint: "Anchor-0" 344 668 basechar 0
LayerCount: 2
Fore
SplineSet
265 0 m 1
 265 260 l 1
 10 668 l 1
 194 668 l 1
 343 411 l 1
 492 668 l 1
 677 668 l 1
 422 260 l 1
 422 0 l 1
 265 0 l 1
EndSplineSet
EndChar

StartChar: Z
Encoding: 90 90 40
Width: 621
GlyphClass: 2
Flags: W
HStem: 0 139<240 589> 529 139<47 369>
DStem2: 32 121 240 139 0.636833 0.771002<146.339 529.181>
AnchorPoint: "Anchor-1" 311 0 basechar 0
AnchorPoint: "Anchor-0" 311 668 basechar 0
LayerCount: 2
Fore
SplineSet
32 0 m 1
 32 121 l 1
 369 529 l 1
 47 529 l 1
 47 668 l 1
 574 668 l 1
 574 547 l 1
 240 139 l 1
 589 139 l 1
 589 0 l 1
 32 0 l 1
EndSplineSet
EndChar

StartChar: a
Encoding: 97 97 41
Width: 553
GlyphClass: 2
Flags: W
HStem: -12 104<193.637 302.677> 0 21G<373 520> 220 90<230.898 353> 407 103<208.255 333.339>
VStem: 24 157<106.14 184.621> 356 147<126.909 220 309.124 382.94>
AnchorPoint: "Anchor-2" 520 0 basechar 0
AnchorPoint: "Anchor-1" 277 0 basechar 0
AnchorPoint: "Anchor-0" 285 496 basechar 0
LayerCount: 2
Fore
SplineSet
181 145.588625191 m 0xbc
 181 113.221442585 209.539752522 92 257.230348851 92 c 0
 317.901313619 92 356 126.345607225 356 208 c 2
 356 220 l 1
 246.522055232 210.299422616 181 194.631232643 181 145.588625191 c 0xbc
361 60 m 1
 344.243443559 36.6605106708 300.999151225 -12 203.475196036 -12 c 0xbc
 99.0096581306 -12 24 43.8341796406 24 135.152466823 c 0
 24 230.599757961 105.946212711 291.985661344 353 310 c 1
 353 376.458200199 336.21732681 407 275.321348477 407 c 0
 239.086220505 407 196.849662179 396.186233173 184 348 c 1
 56 394 l 1
 72.4300606478 426.860121296 129.533315365 510 290.097577472 510 c 0
 423.816662795 510 503 452.336844385 503 303 c 2
 503 194 l 2
 503 127.337839449 509.261963427 47.2473609233 520 0 c 1
 379 0 l 1x7c
 361 60 l 1
EndSplineSet
Substitution2: "Single Substitution lookup 12 subtable" ordfeminine
Substitution2: "'aalt' Access All Alternates lookup 0 subtable" ordfeminine
EndChar

StartChar: b
Encoding: 98 98 42
Width: 596
GlyphClass: 1
Flags: W
HStem: -12 118<264.97 416.298> 0 21G<50 188.672> 392 118<266.814 365.02> 648 20G<50 202>
VStem: 50 152<428 668> 50 145<154.32 345.155> 414 158<162.202 337.771>
AnchorPoint: "Anchor-1" 353 -12 basechar 0
AnchorPoint: "Anchor-0" 355 496 basechar 0
LayerCount: 2
Fore
SplineSet
195 253.13344237 m 0xb6
 195 217.45243214 201.54044383 106 297.961053778 106 c 0
 364.320149903 106 414 158.789886109 414 250.691649536 c 0
 414 342.396344558 364.532982205 392 302.439440719 392 c 0
 249.955606935 392 195 356.561778022 195 253.13344237 c 0xb6
572 252.231420969 m 0
 572 76.7699571924 468.758562101 -12 360.26087511 -12 c 0
 333.869348966 -12 245.169353249 -6.74764513403 202 67 c 1xba
 183 0 l 1
 50 0 l 1x76
 50 668 l 1
 202 668 l 1
 202 428 l 1x7a
 209.971636035 441.618211559 255.128501936 510 355.177923659 510 c 0
 459.926098385 510 572 435.044377138 572 252.231420969 c 0
EndSplineSet
EndChar

StartChar: c
Encoding: 99 99 43
Width: 520
GlyphClass: 2
Flags: W
HStem: -12 118<225.341 353.965> 392 118<225.236 349.366>
VStem: 24 155<156.261 343.638>
AnchorPoint: "Anchor-1" 275 0 basechar 0
AnchorPoint: "Anchor-0" 280 496 basechar 0
LayerCount: 2
Fore
SplineSet
500 108 m 1
 485.05743323 81.1033798141 429.709678037 -12 278.010378808 -12 c 0
 113.373131128 -12 24 97.6615782839 24 248.632369889 c 0
 24 418.311329114 136.895619802 510 278.588602927 510 c 0
 342.71225058 510 449.793878766 491.221736543 502 380 c 1
 375 334 l 1
 366.079521947 357.787941475 343.752156477 392 288.896254793 392 c 0
 249.619789391 392 179 374.461304621 179 253.313628233 c 0
 179 206.359847173 189.608094541 106 287.667699496 106 c 0
 313.226376402 106 352.256085823 112.817991393 376 153 c 1
 500 108 l 1
EndSplineSet
EndChar

StartChar: d
Encoding: 100 100 44
Width: 596
GlyphClass: 2
Flags: W
HStem: -12 118<231.355 332.669> 0 21G<412.03 563> 392 118<230.076 328.54> 648 20G<394 546>
VStem: 24 158<160.98 338.451> 394 152<428 668> 401 145<153.05 342.023>
AnchorPoint: "Anchor-1" 243 -12 basechar 0
AnchorPoint: "Anchor-0" 240 496 basechar 0
LayerCount: 2
Fore
SplineSet
182 251.985438209 m 0xba
 182 159.868731839 231.302254105 106 292.936174045 106 c 0
 322.434838461 106 401 118.339622632 401 243.05073536 c 0
 401 275.887375367 395.553254003 392 295.871209342 392 c 0
 232.755500511 392 182 345.449913228 182 251.985438209 c 0xba
398 67 m 1
 370.085351312 28.2796808523 321.273135325 -12 242.824883363 -12 c 0
 126.474670573 -12 24 76.6041050006 24 251.53809175 c 0
 24 435.420266184 137.226323176 510 234.887051592 510 c 0
 261.484006768 510 349.237964913 504.468476608 394 428 c 1
 394 668 l 1
 546 668 l 1xbc
 546 194 l 2
 546 173.425846418 546.532947194 90.5687904356 563 0 c 1
 418 0 l 1x7a
 398 67 l 1
EndSplineSet
EndChar

StartChar: e
Encoding: 101 101 45
Width: 566
GlyphClass: 2
Flags: W
HStem: -12 118<220.809 372.197> 210 90<177 403> 397 113<220.812 363.443>
VStem: 24 153<152.209 210 300 352.951>
AnchorPoint: "Anchor-2" 404 10 basechar 0
AnchorPoint: "Anchor-1" 283 0 basechar 0
AnchorPoint: "Anchor-0" 284 496 basechar 0
LayerCount: 2
Fore
SplineSet
403 300 m 1
 401.651852622 364.711074129 352.082654078 397 294.92498101 397 c 0
 265.280164933 397 189.121578237 388.31435573 177 300 c 1
 403 300 l 1
513 99 m 1
 498.398494288 77.6593378052 435.653909244 -12 292.337012952 -12 c 0
 150.775333681 -12 24 75.4766513728 24 245.615394185 c 0
 24 416.844833413 152.405963008 510 291.281684859 510 c 0
 447.911247659 510 554.312757206 391.504526831 544 210 c 1
 177 210 l 1
 181.889741572 146.433359559 227.897822299 106 293.189864314 106 c 0
 307.336971356 106 361.285973322 107.898255226 392 143 c 1
 513 99 l 1
EndSplineSet
EndChar

StartChar: f
Encoding: 102 102 46
Width: 367
GlyphClass: 1
Flags: W
HStem: 0 21G<87 239> 380 116<5 87 239 347> 608 120<242.244 347>
VStem: 87 152<0 380 496 602.739>
AnchorPoint: "Anchor-0" 80 668 basechar 0
LayerCount: 2
Fore
SplineSet
305 608 m 2
 251.913474997 608 239 600.490525217 239 563 c 2
 239 496 l 1
 347 496 l 1
 347 380 l 1
 239 380 l 1
 239 0 l 1
 87 0 l 1
 87 380 l 1
 5 380 l 1
 5 496 l 1
 87 496 l 1
 87 577 l 2
 87 693.064902679 142.256928186 728 278 728 c 2
 347 728 l 1
 347 608 l 1
 305 608 l 2
EndSplineSet
EndChar

StartChar: g
Encoding: 103 103 47
Width: 597
GlyphClass: 2
Flags: W
HStem: -203 116<218.459 363.479> 18 118<227.862 327.933> 392 119<225.182 324.368>
VStem: 24 158<186.477 348.844> 395 151<-54.4241 96 167.553 357.55>
AnchorPoint: "Anchor-1" 299 -251 basechar 0
AnchorPoint: "Anchor-0" 297 496 basechar 0
LayerCount: 2
Fore
SplineSet
182 267.843141558 m 0
 182 179.533550277 230.966503995 136 296.230277749 136 c 0
 343.328182776 136 401 158.671638119 401 260.382460907 c 0
 401 304.831558739 389.985743087 392 295.900621146 392 c 0
 260.680805315 392 182 379.785054401 182 267.843141558 c 0
546 37 m 2
 546 -9.81585124052 543.391672522 -203 299.237702187 -203 c 0
 213.877019314 -203 121.242008205 -179.386537792 73 -85 c 1
 197 -40 l 1
 202.741655312 -51.073192387 223.64810447 -87 290.685008903 -87 c 0
 329.859265949 -87 395 -74.7314775373 395 7 c 2
 395 96 l 1
 373.866622085 69.5832776058 321.853028715 18 241.759408345 18 c 0
 151.000271973 18 24 84.23595359 24 264.507963058 c 0
 24 430.171209514 131.250762168 511 231.570941259 511 c 0
 259.971426958 511 342.741073919 504.521998904 395 428 c 1
 415 496 l 1
 546 496 l 1
 546 37 l 2
EndSplineSet
EndChar

StartChar: h
Encoding: 104 104 48
Width: 572
GlyphClass: 2
Flags: W
HStem: 0 21G<50 202 370 522> 392 118<267.401 421.175> 648 20G<50 202>
VStem: 50 152<0 355.644 430 668> 370 152<0 371.618>
AnchorPoint: "Anchor-1" 286 0 basechar 0
AnchorPoint: "Anchor-0" 126 668 basechar 0
LayerCount: 2
Fore
SplineSet
296.222696478 392 m 0
 230.475906241 392 202 346.508407997 202 255 c 2
 202 0 l 1
 50 0 l 1
 50 668 l 1
 202 668 l 1
 202 430 l 1
 213.741687886 449.339250636 258.960263537 510 363.916792645 510 c 0
 478.433100778 510 522 437.785646522 522 302 c 2
 522 0 l 1
 370 0 l 1
 370 264 l 2
 370 355.303754736 355.272682964 392 296.222696478 392 c 0
EndSplineSet
EndChar

StartChar: i
Encoding: 105 105 49
Width: 315
GlyphClass: 1
Flags: W
HStem: 0 21G<118 271> 380 116<24 118> 578 180<137.598 253.023>
VStem: 105 180<610.561 727.342> 118 153<0 380>
AnchorPoint: "Anchor-2" 271 0 basechar 0
LayerCount: 2
Fore
SplineSet
118 0 m 1xe8
 118 380 l 1
 24 380 l 1
 24 496 l 1
 271 496 l 1
 271 0 l 1
 118 0 l 1xe8
285 668.438006347 m 0xf0
 285 618.000157125 245.954938093 578 195.548315162 578 c 0
 145.345363844 578 105 617.677563108 105 668.368640395 c 0
 105 718.654860536 144.703480441 758 195.515503214 758 c 0
 246.350010184 758 285 718.620032574 285 668.438006347 c 0xf0
EndSplineSet
Substitution2: "Single Substitution lookup 4 subtable" dotlessi
Substitution2: "Single Substitution lookup 3 subtable" dotlessi
EndChar

StartChar: j
Encoding: 106 106 50
Width: 259
GlyphClass: 1
Flags: W
HStem: -161 120<-70 50.0288> 476 20G<55 207> 578 180<73.202 189.454>
VStem: 42 180<610.559 727.381> 55 152<-33.5573 496>
LayerCount: 2
Fore
SplineSet
207 -24 m 2xe8
 207 -128.161087732 139.656445058 -161 17 -161 c 2
 -70 -161 l 1
 -70 -41 l 1
 -11 -41 l 2
 41.0453330013 -41 55 -34.2474513894 55 -2 c 2
 55 496 l 1
 207 496 l 1
 207 -24 l 2xe8
222 668.472291218 m 0xf0
 222 618.039552779 181.839285527 578 132.057346298 578 c 0
 82.518106535 578 42 617.650098675 42 668.420931241 c 0
 42 719.009675531 82.2279934321 758 132.096227636 758 c 0
 182.160056059 758 222 718.703218397 222 668.472291218 c 0xf0
EndSplineSet
EndChar

StartChar: k
Encoding: 107 107 51
Width: 567
GlyphClass: 2
Flags: W
HStem: 0 21G<50 202 368.667 563> 476 20G<350.34 548> 648 20G<50 202>
VStem: 50 152<0 125 308 668> 368 180<316 496> 383 180<0 180>
DStem2: 354 289 254 180 0.586002 -0.810309<29.7235 251.173>
AnchorPoint: "Anchor-1" 284 0 basechar 0
AnchorPoint: "Anchor-0" 284 796 basechar 0
LayerCount: 2
Fore
SplineSet
50 0 m 1xf4
 50 668 l 1
 202 668 l 1
 202 308 l 1
 368 496 l 1
 548 496 l 1xf8
 354 289 l 1
 563 0 l 1
 383 0 l 1
 254 180 l 1
 202 125 l 1
 202 0 l 1
 50 0 l 1xf4
EndSplineSet
EndChar

StartChar: l
Encoding: 108 108 52
Width: 314
GlyphClass: 2
Flags: W
HStem: 0 124<208.229 311> 648 20G<50 202>
VStem: 50 152<134.717 668>
AnchorPoint: "Anchor-1" 167 0 basechar 0
AnchorPoint: "Anchor-0" 129 680 basechar 0
LayerCount: 2
Fore
SplineSet
202 180 m 2
 202 134.334094615 217.661872597 124 268 124 c 2
 311 124 l 1
 311 0 l 1
 214 0 l 2
 89.5669772721 0 50 25.9164435362 50 140 c 2
 50 668 l 1
 202 668 l 1
 202 180 l 2
EndSplineSet
EndChar

StartChar: m
Encoding: 109 109 53
Width: 886
GlyphClass: 2
Flags: W
HStem: 0 21G<50 202 366 519 684 836> 392 118<266.473 377.81 570.984 732.581> 476 20G<50 188.758>
VStem: 50 152<0 358.352> 366 153<0 359.797> 684 152<0 371.51>
AnchorPoint: "Anchor-1" 443 0 basechar 0
AnchorPoint: "Anchor-0" 451 496 basechar 0
LayerCount: 2
Fore
SplineSet
294.038175033 392 m 0xdc
 229.860082502 392 202 346.60550411 202 259 c 2
 202 0 l 1
 50 0 l 1
 50 496 l 1
 183 496 l 1xbc
 202 430 l 1
 206.719094117 437.772625604 250.637089672 510 360.499528908 510 c 0
 395.120306294 510 467.55937328 502.827393854 499 427 c 1
 525.910747427 465.04622912 577.864811871 510 672.555959676 510 c 0
 792.606838699 510 836 437.743311419 836 302 c 2
 836 0 l 1
 684 0 l 1
 684 264 l 2
 684 351.494944359 670.863819391 392 609.21932536 392 c 0
 546.043663737 392 519 349.457770489 519 262 c 2
 519 0 l 1
 366 0 l 1
 366 264 l 2
 366 350.141643044 355.665922584 392 294.038175033 392 c 0xdc
EndSplineSet
EndChar

StartChar: n
Encoding: 110 110 54
Width: 572
GlyphClass: 2
Flags: W
HStem: 0 21G<50 202 370 522> 392 118<267.401 421.175> 476 20G<50 188.758>
VStem: 50 152<0 355.644> 370 152<0 371.618>
AnchorPoint: "Anchor-1" 286 0 basechar 0
AnchorPoint: "Anchor-0" 305 496 basechar 0
LayerCount: 2
Fore
SplineSet
296.222696478 392 m 0xd8
 230.475906241 392 202 346.508407997 202 255 c 2
 202 0 l 1
 50 0 l 1
 50 496 l 1
 183 496 l 1xb8
 202 430 l 1
 213.741687886 449.339250636 258.960263537 510 363.916792645 510 c 0
 478.433100778 510 522 437.785646522 522 302 c 2
 522 0 l 1
 370 0 l 1
 370 264 l 2
 370 355.303754736 355.272682964 392 296.222696478 392 c 0xd8
EndSplineSet
EndChar

StartChar: o
Encoding: 111 111 55
Width: 573
GlyphClass: 2
Flags: W
HStem: -12 118<225.432 352.179> 392 118<220.523 349.897>
VStem: 24 155<155.918 346.779> 394 155<150.989 343.705>
AnchorPoint: "Anchor-2" 516 10 basechar 0
AnchorPoint: "Anchor-1" 287 0 basechar 0
AnchorPoint: "Anchor-0" 287 496 basechar 0
LayerCount: 2
Fore
SplineSet
179 251.916401887 m 0
 179 197.795132803 191.928330145 106 286.084292667 106 c 0
 334.547879793 106 394 130.319526333 394 246.702333843 c 0
 394 297.979765601 382.459032478 392 286.675923979 392 c 0
 233.723338907 392 179 363.264562866 179 251.916401887 c 0
549 253.40623695 m 0
 549 62.0089887646 414.145249719 -12 287.528334765 -12 c 0
 170.399320687 -12 24 51.3329897588 24 249.069645155 c 0
 24 444.612173026 167.168390914 510 280.250526881 510 c 0
 329.392423521 510 549 497.651542062 549 253.40623695 c 0
EndSplineSet
Substitution2: "Single Substitution lookup 12 subtable" ordmasculine
Substitution2: "'aalt' Access All Alternates lookup 0 subtable" ordmasculine
EndChar

StartChar: p
Encoding: 112 112 56
Width: 596
GlyphClass: 1
Flags: W
HStem: -161 21G<50 202> -12 118<270.293 413.998> 392 118<267.323 362.463> 476 20G<50 187.882>
VStem: 50 152<-161 71> 50 145<156.279 346.998> 414 158<157.643 336.266>
AnchorPoint: "Anchor-0" 348 496 basechar 0
LayerCount: 2
Fore
SplineSet
195 256.464053124 m 0xe6
 195 222.655486791 200.80344349 106 300.248728554 106 c 0
 363.890769857 106 414 153.777671317 414 246.462662107 c 0
 414 336.880853828 366.311842534 392 302.20272741 392 c 0
 268.67298271 392 195 376.92270578 195 256.464053124 c 0xe6
362.980713993 -12 m 0
 338.856379488 -12 247.847613121 -7.32300574808 202 71 c 1
 202 -161 l 1
 50 -161 l 1xea
 50 496 l 1xd6
 182 496 l 1
 202 428 l 1xda
 230.743144062 477.102871106 290.240343112 510 356.681691377 510 c 0
 457.539734832 510 572 434.194240929 572 248.492695267 c 0
 572 66.066095091 461.541271578 -12 362.980713993 -12 c 0
EndSplineSet
EndChar

StartChar: q
Encoding: 113 113 57
Width: 601
GlyphClass: 1
Flags: W
HStem: -172 138<555.54 672.864> -12 118<230.559 328.087> 392 118<233.258 330.009> 476 20G<408.118 546>
VStem: 24 158<159.124 338.142> 394 152<-21.0021 70> 401 145<153.434 343.989>
LayerCount: 2
Fore
SplineSet
182 248.038209093 m 0xea
 182 154.890024748 231.701391278 106 290.729908506 106 c 0
 319.098928319 106 401 117.292371836 401 245.851689834 c 0
 401 281.247464303 394.791519758 392 297.726604305 392 c 0
 232.407828759 392 182 341.846044886 182 248.038209093 c 0xea
674 -155 m 1
 653.17940517 -161.506435884 607.991228709 -172 560.563916939 -172 c 0
 465.417712795 -172 394 -129.767291403 394 -10 c 2
 394 70 l 1
 385.288110411 55.4801840187 339.335164005 -12 240.517073563 -12 c 0
 136.356675533 -12 24 62.973641491 24 246.837374173 c 0
 24 428.781420477 134.022734093 510 239.03712285 510 c 0
 300.117584186 510 362.083841107 482.523438109 394 428 c 1xec
 414 496 l 1
 546 496 l 1xda
 546 38 l 2xdc
 546 -4.97667747426 551.947699592 -34 605.835839509 -34 c 0
 624.098287904 -34 646.666666667 -30.6666666667 674 -24 c 1
 674 -155 l 1
EndSplineSet
EndChar

StartChar: r
Encoding: 114 114 58
Width: 372
GlyphClass: 2
Flags: W
HStem: 0 21G<50 202> 476 20G<50 175.934>
VStem: 50 152<0 325.684>
AnchorPoint: "Anchor-1" 128 0 basechar 0
AnchorPoint: "Anchor-0" 221 496 basechar 0
LayerCount: 2
Fore
SplineSet
319.936720844 361 m 0
 241.302913508 361 202 328.216034687 202 250 c 2
 202 0 l 1
 50 0 l 1
 50 496 l 1
 170 496 l 1
 197 405 l 1
 227.503594069 484.574593224 280.908996342 514.004789666 357 510 c 1
 357 358 l 1
 346.567744066 359.738709322 335.360335143 361 319.936720844 361 c 0
EndSplineSet
EndChar

StartChar: s
Encoding: 115 115 59
Width: 534
GlyphClass: 2
Flags: W
HStem: -12 111<182.762 347.131> 399 111<184.949 337.636>
VStem: 33 145<330.732 388.161> 361 146<114.016 173.958>
DStem2: 239 319 195 205 0.983353 -0.181706<-62.9901 148.171>
AnchorPoint: "Anchor-1" 267 0 basechar 0
AnchorPoint: "Anchor-0" 268 496 basechar 0
LayerCount: 2
Fore
SplineSet
507 162.482784635 m 0
 507 50.6889529603 404.981798542 -12 266.122974544 -12 c 0
 195.186671415 -12 72.2832636225 4.35991915187 21 114 c 1
 150 161 l 1
 164.840659938 119.176321994 210.32069016 99 262.45659388 99 c 0
 273.004446886 99 361 99.8258407828 361 144.972443369 c 0
 361 166.121027956 341.690403851 180.608538908 284 190 c 2
 195 205 l 2
 168.798174148 209.366970975 33 232.364546311 33 352.320234213 c 0
 33 463.394067179 149.432911451 510 267.494926631 510 c 0
 293.133962185 510 429.839720412 507.802017702 481 400 c 1
 353 353 l 1
 343.019249756 391.497179514 299.408821799 399 258.48954609 399 c 0
 204.765779386 399 178 386.066931174 178 359.75162437 c 0
 178 339.004521824 194.63711144 327.065979738 239 319 c 2
 331 302 l 2
 456.330800603 279.718968782 507 241.269143762 507 162.482784635 c 0
EndSplineSet
EndChar

StartChar: t
Encoding: 116 116 60
Width: 379
GlyphClass: 2
Flags: W
HStem: 0 124<253.229 355> 380 116<13 95 247 355>
VStem: 95 152<134.717 380 496 620>
AnchorPoint: "Anchor-1" 239 0 basechar 0
AnchorPoint: "Anchor-0" 170 620 basechar 0
LayerCount: 2
Fore
SplineSet
247 180 m 2
 247 134.297955176 262.045631454 124 311 124 c 2
 355 124 l 1
 355 0 l 1
 259 0 l 2
 134.566977271 0 95 25.9164435375 95 140 c 2
 95 380 l 1
 13 380 l 1
 13 496 l 1
 95 496 l 1
 95 620 l 1
 247 620 l 1
 247 496 l 1
 355 496 l 1
 355 380 l 1
 247 380 l 1
 247 180 l 2
EndSplineSet
EndChar

StartChar: u
Encoding: 117 117 61
Width: 570
GlyphClass: 2
Flags: W
HStem: -12 118<156.14 308.876> 0 21G<381 519> 476 20G<50 202 366 519>
VStem: 50 152<131.841 496> 366 153<135.837 496>
AnchorPoint: "Anchor-2" 519 0 basechar 0
AnchorPoint: "Anchor-1" 285 0 basechar 0
AnchorPoint: "Anchor-0" 285 496 basechar 0
LayerCount: 2
Fore
SplineSet
366 70 m 1x78
 336.478422743 20.3500746139 297.408296396 -12 215.88645655 -12 c 0
 96.3942698281 -12 50 57.5034494603 50 198 c 2
 50 496 l 1
 202 496 l 1
 202 219 l 2
 202 129.842111652 230.643230717 106 279.203087313 106 c 0xb8
 339.339907553 106 366 142.565443733 366 235 c 2
 366 496 l 1
 519 496 l 1
 519 0 l 1
 387 0 l 1
 366 70 l 1x78
EndSplineSet
EndChar

StartChar: v
Encoding: 118 118 62
Width: 526
GlyphClass: 1
Flags: W
HStem: 0 158<177 348> 476 20G<0 163.272 362.728 526>
VStem: 0 157<339 496> 369 157<339 496>
LayerCount: 2
Fore
SplineSet
177 0 m 1
 0 496 l 1
 157 496 l 1
 263 158 l 1
 369 496 l 1
 526 496 l 1
 348 0 l 1
 177 0 l 1
EndSplineSet
EndChar

StartChar: w
Encoding: 119 119 63
Width: 723
GlyphClass: 1
Flags: W
HStem: 0 21G<119 293.989 428.955 604> 476 20G<0 154.464 285.19 436.81 567.536 723>
VStem: 0 150<346 496> 572 151<345 496>
DStem2: 150 496 0 496 0.242536 -0.970143<0 344.158> 225 160 290 0 0.195586 0.980686<0 218.814> 433 496 361 356 0.198234 -0.980155<122.949 342.019> 497 160 599 0 0.242536 0.970143<0 344.158>
LayerCount: 2
Fore
SplineSet
124 0 m 1
 0 496 l 1
 150 496 l 1
 225 160 l 1
 289 496 l 1
 433 496 l 1
 497 160 l 1
 572 496 l 1
 723 496 l 1
 599 0 l 1
 433 0 l 1
 361 356 l 1
 290 0 l 1
 124 0 l 1
EndSplineSet
EndChar

StartChar: x
Encoding: 120 120 64
Width: 533
GlyphClass: 1
Flags: W
HStem: 0 21G<0 180.126 353.014 533> 476 20G<15 195.215 337.95 518>
VStem: 0 166<0 166> 367 166<0 166>
DStem2: 0 0 166 0 0.578747 0.815507<96.072 271.143 460.341 608.21> 181 496 15 496 0.578747 -0.815507<0 148.449 337.646 512.138>
LayerCount: 2
Fore
SplineSet
0 0 m 1
 184 259 l 1
 15 496 l 1
 181 496 l 1
 267 375 l 1
 352 496 l 1
 518 496 l 1
 349 259 l 1
 533 0 l 1
 367 0 l 1
 267 143 l 1
 166 0 l 1
 0 0 l 1
EndSplineSet
EndChar

StartChar: y
Encoding: 121 121 65
Width: 518
GlyphClass: 2
Flags: W
HStem: -161 110<65 171.647> 476 20G<0 169.258 348.871 518>
DStem2: 190 3 328 0 0.357717 0.93383<-61.9726 0 195.931 384.733>
AnchorPoint: "Anchor-1" 259 0 basechar 0
AnchorPoint: "Anchor-0" 260 496 basechar 0
LayerCount: 2
Fore
SplineSet
65 -161 m 1
 65 -51 l 1
 95 -51 l 2
 159.983579158 -51 174.082823376 -46.74117695 190 3 c 1
 0 496 l 1
 163 496 l 1
 260 186 l 1
 355 496 l 1
 518 496 l 1
 328 0 l 2
 279.1009413 -128.360029088 239.684107128 -161 114 -161 c 2
 65 -161 l 1
EndSplineSet
EndChar

StartChar: z
Encoding: 122 122 66
Width: 516
GlyphClass: 2
Flags: W
HStem: 0 121<226 496> 375 121<44 287>
DStem2: 30 121 226 121 0.711246 0.702943<139.404 361.338>
AnchorPoint: "Anchor-1" 258 0 basechar 0
AnchorPoint: "Anchor-0" 268 496 basechar 0
LayerCount: 2
Fore
SplineSet
30 0 m 1
 30 121 l 1
 287 375 l 1
 44 375 l 1
 44 496 l 1
 482 496 l 1
 482 375 l 1
 226 121 l 1
 496 121 l 1
 496 0 l 1
 30 0 l 1
EndSplineSet
EndChar

StartChar: circumflex
Encoding: 258 710 67
Width: 467
GlyphClass: 1
Flags: W
HStem: 635 91<187.425 278.425>
LayerCount: 2
Fore
SplineSet
37 574 m 1
 184 706 l 2
 198.666666667 719.333333333 215.183914569 726 232.924887352 726 c 0
 243.722032109 726 264.521431009 723.530712092 284 706 c 2
 430 574 l 1
 302 574 l 1
 234 635 l 1
 166 574 l 1
 37 574 l 1
EndSplineSet
EndChar

StartChar: caron
Encoding: 259 711 68
Width: 467
GlyphClass: 1
Flags: W
HStem: 568 91<188.5 279.5>
LayerCount: 2
Fore
SplineSet
233.5 568 m 0
 214.5 568 198 574.333333333 184 587 c 2
 37 720 l 1
 166 720 l 1
 234 659 l 1
 302 720 l 1
 430 720 l 1
 284 587 l 2
 269.333333333 574.333333333 252.5 568 233.5 568 c 0
EndSplineSet
EndChar

StartChar: breve
Encoding: 260 728 69
Width: 373
GlyphClass: 1
Flags: W
HStem: 569 77<154.293 246.535>
VStem: 57 85<658.235 689> 259 85<658.647 689>
LayerCount: 2
Fore
SplineSet
344 689 m 1
 331.892271153 620.389536532 272.33955314 569 200.498062384 569 c 0
 128.647813156 569 69.1055175023 620.402067487 57 689 c 1
 142 689 l 1
 147.228303709 668.086785163 169.588101227 646 200.235884743 646 c 0
 230.390969162 646 253.595587837 667.382351348 259 689 c 1
 344 689 l 1
EndSplineSet
EndChar

StartChar: dotaccent
Encoding: 261 729 70
Width: 201
GlyphClass: 1
Flags: W
HStem: 578 141<50.8531 150.642>
VStem: 30 141<598.35 698.141>
LayerCount: 2
Fore
SplineSet
171 647.994906798 m 0
 171 608.935586331 140.047135717 578 100.991185169 578 c 0
 61.9444910761 578 30 608.920924291 30 647.995211751 c 0
 30 687.057091539 61.9242069543 719 100.989103373 719 c 0
 140.061163153 719 171 687.045375674 171 647.994906798 c 0
EndSplineSet
EndChar

StartChar: ring
Encoding: 262 730 71
Width: 295
GlyphClass: 1
Flags: W
HStem: 535 86<107.566 185.601> 715 85<107.804 186.481>
VStem: 15 85<628.727 707.613> 194 86<629.049 706.647>
LayerCount: 2
Fore
SplineSet
100 668.450696181 m 0
 100 642.25679504 121.232216144 621 147.428520856 621 c 0
 173.423508927 621 194 641.931336666 194 668.517418686 c 0
 194 695.123241017 173.392941268 715 147.374405819 715 c 0
 120.919566308 715 100 694.451026122 100 668.450696181 c 0
280 668.680620446 m 0
 280 596.921105817 222.595312474 535 147.534900846 535 c 0
 73.0948519486 535 15 595.901798715 15 668.040035632 c 0
 15 741.475991851 75.2038285308 800 147.111441775 800 c 0
 217.8662257 800 280 743.337473867 280 668.680620446 c 0
EndSplineSet
EndChar

StartChar: ogonek
Encoding: 263 731 72
Width: 295
GlyphClass: 1
Flags: W
HStem: -174 76<164.982 257.337>
VStem: 37 126<-94.366 -40.9349>
LayerCount: 2
Fore
SplineSet
258 -164 m 1
 243.278294927 -169.353347299 206.134650941 -174 175.27883684 -174 c 0
 78.4439200178 -174 37 -128.235348162 37 -83.9028623164 c 0
 37 -39.7734314055 78.0651404423 -12.0832322765 117 0 c 1
 258 0 l 1
 199.859275864 -29.0703620681 163 -47.5 163 -71.0301935072 c 0
 163 -89.8730901104 186.636933394 -98 208.769375552 -98 c 0
 229.016370061 -98 244.807421055 -91.1987631574 258 -89 c 1
 258 -164 l 1
EndSplineSet
EndChar

StartChar: quoteleft
Encoding: 264 8216 73
Width: 277
GlyphClass: 1
Flags: W
HStem: 339 329<124 160.955>
VStem: 41 195<376.843 496.5>
DStem2: 48 472 161 531 0.361528 0.932361<95.862 210.219>
LayerCount: 2
Fore
SplineSet
236 437.321438211 m 0
 236 383.119742538 192.857815877 339 138.935840203 339 c 0
 84.3192477574 339 41 384.263754935 41 435.758074448 c 0
 41 447.818210778 43.376110831 459.669628883 48 472 c 2
 124 668 l 1
 214 668 l 1
 161 531 l 1
 203.956983503 521.603159859 236 484.033442932 236 437.321438211 c 0
EndSplineSet
EndChar

StartChar: quoteright
Encoding: 265 8217 74
Width: 277
GlyphClass: 1
Flags: W
HStem: 351 329<117.02 153>
VStem: 41 195<522.5 642.728>
DStem2: 63 351 153 351 0.365652 0.930751<32.9087 145.962>
LayerCount: 2
Fore
SplineSet
139.110428246 680 m 0
 193.25077984 680 236 636.655994743 236 581.995994328 c 0
 236 570.173189231 234 558.333333333 230 547 c 2
 153 351 l 1
 63 351 l 1
 116 487 l 1
 73.7788112863 497.555297178 41 535.304060007 41 582.342358129 c 0
 41 636.926736112 85.1394310335 680 139.110428246 680 c 0
EndSplineSet
EndChar

StartChar: quotesinglbase
Encoding: 266 8218 75
Width: 277
GlyphClass: 1
Flags: W
HStem: -146 330<117.02 153>
VStem: 41 195<26.375 146.728>
DStem2: 63 -146 153 -146 0.364043 0.931382<32.7639 146.894>
LayerCount: 2
Fore
SplineSet
139.110428246 184 m 0
 193.25077984 184 236 140.655994743 236 85.9959943278 c 0
 236 74.1731892305 234 62.3333333333 230 51 c 2
 153 -146 l 1
 63 -146 l 1
 116 -9 l 1
 73.778811286 1.5552971785 41 39.3040600069 41 86.3423581292 c 0
 41 140.926736112 85.1394310335 184 139.110428246 184 c 0
EndSplineSet
EndChar

StartChar: quotedblleft
Encoding: 267 8220 76
Width: 498
GlyphClass: 1
Flags: W
HStem: 339 329<124 160.923 345 380.23>
VStem: 41 195<376.661 497.625> 263 194<375.051 496.5>
DStem2: 51 480 161 531 0.361968 0.932191<87.3582 201.675> 270 472 382 531 0.357382 0.933958<95.1303 209.859>
LayerCount: 2
Fore
SplineSet
457 437.060558588 m 0
 457 383.155570035 414.97066497 339 360.416732105 339 c 0
 305.108734896 339 263 384.384675065 263 435.657831892 c 0
 263 447.864074418 265.386470491 459.697254644 270 472 c 2
 345 668 l 1
 436 668 l 1
 382 531 l 1
 424.797767098 521.637988447 457 484.244660374 457 437.060558588 c 0
236 437.321438211 m 0
 236 383.119742538 192.857815877 339 138.885932419 339 c 0
 83.2615688379 339 41 385.86276743 41 433.424176405 c 0
 41 449.023805231 45.5463694135 463.63910824 51 480 c 2
 124 668 l 1
 214 668 l 1
 161 531 l 1
 203.956983503 521.603159859 236 484.033442932 236 437.321438211 c 0
EndSplineSet
EndChar

StartChar: quotedblright
Encoding: 268 8221 77
Width: 498
GlyphClass: 1
Flags: W
HStem: 351 329<117.02 153 338.02 374>
VStem: 41 195<522.5 642.728> 262 195<522.5 642.728>
DStem2: 63 351 153 351 0.365652 0.930751<32.9087 145.962> 284 351 374 351 0.365652 0.930751<32.9087 145.962>
LayerCount: 2
Fore
SplineSet
360.110428246 680 m 0
 414.25077984 680 457 636.655994743 457 581.995994328 c 0
 457 570.173189231 455 558.333333333 451 547 c 2
 374 351 l 1
 284 351 l 1
 337 487 l 1
 294.778811286 497.555297178 262 535.304060007 262 582.342358129 c 0
 262 636.926736112 306.139431033 680 360.110428246 680 c 0
139.110428246 680 m 0
 193.25077984 680 236 636.655994743 236 581.995994328 c 0
 236 570.173189231 234 558.333333333 230 547 c 2
 153 351 l 1
 63 351 l 1
 116 487 l 1
 73.7788112863 497.555297178 41 535.304060007 41 582.342358129 c 0
 41 636.926736112 85.1394310335 680 139.110428246 680 c 0
EndSplineSet
EndChar

StartChar: quotedblbase
Encoding: 269 8222 78
Width: 498
GlyphClass: 1
Flags: W
HStem: -146 330<117.02 153 338.183 374>
VStem: 41 195<26.375 146.728> 263 194<26.375 148.514>
DStem2: 63 -146 153 -146 0.364043 0.931382<32.7639 146.894> 285 -146 374 -146 0.364043 0.931382<32.3998 146.894>
LayerCount: 2
Fore
SplineSet
360.541991871 184 m 0
 415.480022091 184 457 140.486101245 457 86.1511891345 c 0
 457 74.2259963168 455 62.3333333333 451 51 c 2
 374 -146 l 1
 285 -146 l 1
 338 -9 l 1
 295.940670204 1.51483244888 263 39.0935866494 263 86.5375975589 c 0
 263 140.498678475 305.611901851 184 360.541991871 184 c 0
139.110428246 184 m 0
 193.25077984 184 236 140.655994743 236 85.9959943278 c 0
 236 74.1731892305 234 62.3333333333 230 51 c 2
 153 -146 l 1
 63 -146 l 1
 116 -9 l 1
 73.778811286 1.5552971785 41 39.3040600069 41 86.3423581292 c 0
 41 140.926736112 85.1394310335 184 139.110428246 184 c 0
EndSplineSet
EndChar

StartChar: dagger
Encoding: 270 8224 79
Width: 594
GlyphClass: 1
Flags: W
HStem: 0 21G<225 369> 380 116<41 225 369 553> 648 20G<225 369>
VStem: 225 144<0 380 496 668>
LayerCount: 2
Fore
SplineSet
225 0 m 1
 225 380 l 1
 41 380 l 1
 41 496 l 1
 225 496 l 1
 225 668 l 1
 369 668 l 1
 369 496 l 1
 553 496 l 1
 553 380 l 1
 369 380 l 1
 369 0 l 1
 225 0 l 1
EndSplineSet
EndChar

StartChar: daggerdbl
Encoding: 271 8225 80
Width: 594
GlyphClass: 1
Flags: W
HStem: 0 21G<225 369> 173 115<41 225 369 553> 380 116<41 225 369 553> 648 20G<225 369>
VStem: 225 144<0 173 288 380 496 668>
LayerCount: 2
Fore
SplineSet
225 0 m 1
 225 173 l 1
 41 173 l 1
 41 288 l 1
 225 288 l 1
 225 380 l 1
 41 380 l 1
 41 496 l 1
 225 496 l 1
 225 668 l 1
 369 668 l 1
 369 496 l 1
 553 496 l 1
 553 380 l 1
 369 380 l 1
 369 288 l 1
 553 288 l 1
 553 173 l 1
 369 173 l 1
 369 0 l 1
 225 0 l 1
EndSplineSet
EndChar

StartChar: bullet
Encoding: 272 8226 81
Width: 438
GlyphClass: 1
Flags: W
HStem: 88 332<138.938 299.387>
VStem: 53 332<173.018 333.57>
LayerCount: 2
Fore
SplineSet
385 254.805152921 m 0
 385 165.474002727 313.510253539 88 219.021909242 88 c 0
 125.190410728 88 53 164.400609092 53 254.085677802 c 0
 53 343.923384186 125.436345828 420 218.558952056 420 c 0
 310.344035745 420 385 346.093070868 385 254.805152921 c 0
EndSplineSet
EndChar

StartChar: ellipsis
Encoding: 273 8230 82
Width: 803
GlyphClass: 1
Flags: W
HStem: -12 196<78.7487 199.015 341.555 461.991 604.77 725.583>
VStem: 41 195<25.6137 146.847> 305 194<25.6081 148.647> 567 195<25.5929 146.808>
LayerCount: 2
Fore
SplineSet
499 86.432766736 m 0
 499 31.9431446505 456.012498619 -12 401.574381524 -12 c 0
 347.301830417 -12 305 31.6762571501 305 86.4038232082 c 0
 305 140.697681105 346.63401516 184 401.498729117 184 c 0
 456.361501944 184 499 140.700745149 499 86.432766736 c 0
236 86.4512377601 m 0
 236 31.9480621973 192.853532717 -12 139.046311282 -12 c 0
 85.452105686 -12 41 31.600781579 41 86.4208048216 c 0
 41 141.064572142 85.1667226798 184 139.082904633 184 c 0
 193.209170338 184 236 140.729325516 236 86.4512377601 c 0
762 86.4184541326 m 0
 762 31.9138081538 719.973526254 -12 665.537312319 -12 c 0
 611.277511417 -12 567 31.6296438228 567 86.3694218475 c 0
 567 140.724044064 610.656619436 184 665.500954514 184 c 0
 720.391178513 184 762 140.651594731 762 86.4184541326 c 0
EndSplineSet
EndChar

StartChar: perthousand
Encoding: 274 8240 83
Width: 1406
GlyphClass: 1
Flags: W
HStem: -12 119<702.214 810.574 1130.96 1236.98> 0 21G<192 332.012> 264 118<702.199 809.721 1130.95 1238.55> 286 118<167.243 275.494> 561 119<167.252 274.682> 648 20G<645.018 786>
VStem: 24 119<428.31 535.007> 192 126<0 126> 300 118<428.774 535.546> 559 118<131.259 237.272> 659 127<541 668> 835 118<132.076 237.59> 988 118<131.25 237.947> 1263 119<132.088 238.207>
DStem2: 192 0 318 0 0.573791 0.819001<72.2977 815.054>
LayerCount: 2
Fore
SplineSet
1106 185.55472394 m 0xa21c
 1106 141.727810827 1140.73569942 107 1184.56135192 107 c 0
 1228.59860392 107 1263 142.063966776 1263 185.486707923 c 0
 1263 228.91272662 1228.59341049 264 1184.61647114 264 c 0
 1141.06554936 264 1106 229.589235401 1106 185.55472394 c 0xa21c
677 185.588898582 m 0xa25c
 677 141.762903687 712.857316853 107 756.066092961 107 c 0
 799.414187548 107 835 141.987437827 835 185.521240485 c 0
 835 229.261653257 799.075607622 264 756.028173537 264 c 0
 713.209209857 264 677 229.629416062 677 185.588898582 c 0xa25c
1382 186.908444374 m 0
 1382 78.2301928911 1295.32395071 -12 1185.4343193 -12 c 0
 1077.38905082 -12 988 75.2268036533 988 186.037954694 c 0
 988 297.052779183 1077.71795108 382 1184.94633214 382 c 0
 1291.66665741 382 1382 297.855844283 1382 186.908444374 c 0
953 186.908444372 m 0
 953 78.2301928837 866.323950704 -12 756.434319299 -12 c 0
 648.38905082 -12 559 75.2268036513 559 186.037954696 c 0
 559 297.05277919 648.717951077 382 755.946332143 382 c 0
 862.666657418 382 953 297.855844281 953 186.908444372 c 0
143 482.550475357 m 0
 143 438.729172084 177.735561726 404 221.561713407 404 c 0
 265.598603922 404 300 439.063966775 300 482.616805845 c 0
 300 526.582981439 264.942535207 561 221.511899952 561 c 0x1a9c
 178.08786899 561 143 526.593447912 143 482.550475357 c 0
192 0 m 1x473c
 659 668 l 1
 786 668 l 1
 318 0 l 1
 192 0 l 1x473c
418 483.769154123 m 0x1a9c
 418 373.401709517 330.016420288 286 221.042478766 286 c 0
 112.776937886 286 24 372.269068422 24 483.085072589 c 0
 24 594.130534914 113.14496564 680 220.617039046 680 c 0
 326.843944191 680 418 596.108770413 418 483.769154123 c 0x1a9c
EndSplineSet
EndChar

StartChar: guilsinglleft
Encoding: 275 8249 84
Width: 404
GlyphClass: 1
Flags: W
VStem: 189 174<40 214 287 461>
LayerCount: 2
Fore
SplineSet
189 40 m 1
 41 250 l 1
 189 461 l 1
 362 461 l 1
 214 250 l 1
 363 40 l 1
 189 40 l 1
EndSplineSet
EndChar

StartChar: guilsinglright
Encoding: 276 8250 85
Width: 404
GlyphClass: 1
Flags: W
VStem: 41 175<40 215 285 460>
LayerCount: 2
Fore
SplineSet
41 40 m 1
 191 249 l 1
 42 460 l 1
 216 460 l 1
 363 249 l 1
 216 40 l 1
 41 40 l 1
EndSplineSet
EndChar

StartChar: fraction
Encoding: 277 8260 86
Width: 624
GlyphClass: 1
Flags: W
HStem: 0 21G<15 155.982> 648 20G<468.988 609>
VStem: 15 127<0 127> 483 126<542 668>
DStem2: 15 0 142 0 0.573791 0.819001<72.8715 815.627>
LayerCount: 2
Fore
SplineSet
15 0 m 1
 483 668 l 1
 609 668 l 1
 142 0 l 1
 15 0 l 1
EndSplineSet
EndChar

StartChar: ordfeminine
Encoding: 170 170 87
Width: 395
GlyphClass: 1
Flags: W
HStem: 395 72<158.325 233.331> 523 61<159.336 238> 623 68<134.466 236.342>
VStem: 53 104<469.62 518.831> 240 97<474.413 526 588 620.823>
LayerCount: 2
Fore
SplineSet
157 494.908074436 m 0
 157 480.303945762 167.12080554 467 191.699152918 467 c 0
 218.114226581 467 240 482.36663451 240 509 c 2
 240 526 l 1
 203 523 l 2
 167.037762418 520.336130549 157 509.452164883 157 494.908074436 c 0
249 435 m 1
 235.680013374 412.356022736 207.310753117 395 162.344383318 395 c 0
 91.2730009851 395 53 438.357484741 53 492.981747888 c 0
 53 554.565624653 101.646923797 571.934157595 203 584 c 2
 238 588 l 1
 238 611.988015603 229.986171953 623 200.525200115 623 c 0
 179.108917143 623 162.895896169 617.180848789 159 599 c 1
 72 630 l 1
 98.0814323309 683.901626817 168.24866402 691 208.619701194 691 c 0
 296.433812557 691 338.323580391 657.414823468 337 578 c 1
 337 518 l 2
 337 482.772535165 337.061419263 441.274000714 342 403 c 1
 258 403 l 1
 249 435 l 1
EndSplineSet
EndChar

StartChar: guillemotleft
Encoding: 171 171 88
Width: 669
GlyphClass: 1
Flags: W
VStem: 201 174<40 214 287 461> 440 176<40 216 285 461>
LayerCount: 2
Fore
SplineSet
201 40 m 1
 53 251 l 1
 201 461 l 1
 374 461 l 1
 226 251 l 1
 375 40 l 1
 201 40 l 1
440 40 m 1
 294 251 l 1
 440 461 l 1
 615 461 l 1
 466 251 l 1
 616 40 l 1
 440 40 l 1
EndSplineSet
EndChar

StartChar: logicalnot
Encoding: 172 172 89
Width: 618
GlyphClass: 1
Flags: W
HStem: 295 127<53 437>
VStem: 437 128<56 295>
LayerCount: 2
Fore
SplineSet
437 56 m 1
 437 295 l 1
 53 295 l 1
 53 422 l 1
 565 422 l 1
 565 56 l 1
 437 56 l 1
EndSplineSet
EndChar

StartChar: registered
Encoding: 174 174 90
Width: 798
GlyphClass: 1
Flags: W
HStem: -12 69<293.672 504.056> 300 75<338 370> 453 76<338 451.905> 610 69<293.504 503.62>
VStem: 53 70<228.466 438.295> 241 97<161 300 375 453> 458 101<382.321 445.018> 471 108<161 269> 675 70<228.368 439.129>
DStem2: 472 310 370 300 0.583299 -0.812258<0 120.443>
LayerCount: 2
Fore
SplineSet
458 413.67978764 m 0xfe80
 458 444.639437292 429.808456177 453 390 453 c 2
 338 453 l 1
 338 375 l 1
 390 375 l 2
 432.304894251 375 458 384.122688216 458 413.67978764 c 0xfe80
559 416.590707834 m 0
 559 370.37205934 538.87699994 328.005346138 472 310 c 1
 579 161 l 1
 471 161 l 1xfd80
 370 300 l 1
 338 300 l 1
 338 161 l 1
 241 161 l 1
 241 529 l 1
 392 529 l 2
 481.005401405 529 559 507.582693246 559 416.590707834 c 0
123 334.057530818 m 0
 123 182.656094983 244.906547271 57 398.764308853 57 c 0
 550.851440966 57 675 179.780579989 675 333.103009247 c 0
 675 485.630598379 552.135303703 610 399.395460128 610 c 0
 247.558787492 610 123 487.097075296 123 334.057530818 c 0
745 334.218475975 m 0
 745 143.528637544 590.282550546 -12 399.118685809 -12 c 0
 208.991650346 -12 53 141.846108945 53 332.736180205 c 0
 53 521.680775198 205.828242344 679 398.099893353 679 c 0
 587.229416639 679 745 526.780622196 745 334.218475975 c 0
EndSplineSet
EndChar

StartChar: macron
Encoding: 175 175 91
Width: 405
GlyphClass: 1
Flags: W
HStem: 570 98<53 352>
VStem: 53 299<570 668>
LayerCount: 2
Fore
SplineSet
53 570 m 1
 53 668 l 1
 352 668 l 1
 352 570 l 1
 53 570 l 1
EndSplineSet
EndChar

StartChar: degree
Encoding: 176 176 92
Width: 404
GlyphClass: 1
Flags: W
HStem: 354 90<150.609 254.135> 590 89<150.555 253.38>
VStem: 40 89<466.531 568.943> 275 89<466.603 567.95>
LayerCount: 2
Fore
SplineSet
129 516.978972648 m 0
 129 476.582269516 161.434808292 444 202.484695656 444 c 0
 243.581299866 444 275 476.656472255 275 517.096391966 c 0
 275 557.73441752 243.272719945 590 202.470988738 590 c 0
 161.448369474 590 129 557.384119946 129 516.978972648 c 0
364 517.178664665 m 0
 364 424.820184646 291.043978542 354 202.638894196 354 c 0
 113.835340382 354 40 425.460041031 40 516.546186731 c 0
 40 607.804053918 114.114001118 679 202.202606099 679 c 0
 288.016062419 679 364 611.434251889 364 517.178664665 c 0
EndSplineSet
EndChar

StartChar: plusminus
Encoding: 177 177 93
Width: 618
GlyphClass: 1
Flags: W
HStem: 0 128<53 565> 283 108<53 245 373 565> 475 20G<245 373>
VStem: 245 128<180 283 391 495>
LayerCount: 2
Fore
SplineSet
53 0 m 1
 53 128 l 1
 565 128 l 1
 565 0 l 1
 53 0 l 1
245 180 m 1
 245 283 l 1
 53 283 l 1
 53 391 l 1
 245 391 l 1
 245 495 l 1
 373 495 l 1
 373 391 l 1
 565 391 l 1
 565 283 l 1
 373 283 l 1
 373 180 l 1
 245 180 l 1
EndSplineSet
EndChar

StartChar: uni00B2
Encoding: 178 178 94
Width: 407
GlyphClass: 1
Flags: W
HStem: 403 87<195 353> 709 76<163.804 246.596>
VStem: 251 102<622.755 705.006>
LayerCount: 2
Fore
SplineSet
354 680.052825475 m 0
 354 606.6944263 293.90418434 556.387740174 195 490 c 1
 353 490 l 1
 353 403 l 1
 53 403 l 1
 53 484 l 1
 203.242674006 586.797619057 251 628.924379601 251 670.806393877 c 0
 251 696.855650075 232.525379108 709 208.984525566 709 c 0
 196.191589969 709 163.297579897 705.413504513 155 666 c 1
 64 699 l 1
 85.7899915766 756.198727889 139.851975925 785 211.253490301 785 c 0
 252.922050125 785 354 775.191246849 354 680.052825475 c 0
EndSplineSet
EndChar

StartChar: uni00B3
Encoding: 179 179 95
Width: 413
GlyphClass: 1
Flags: W
HStem: 395 77<154.073 249.371> 491 20G<88.8485 146.325> 552 84<167 242.938> 675 21G<93.0606 152.55> 709 76<153.641 242.32>
VStem: 247 103<643.809 702.379> 255 105<477.919 543.573>
LayerCount: 2
Fore
SplineSet
360 512.808993782 m 0xfa
 360 432.860795198 281.864887482 395 201.125391395 395 c 0
 129.596849393 395 76.9782292775 424.71504605 53 478 c 1
 144 511 l 1
 148.650177695 498.378089112 163.507110177 472 204.280436232 472 c 0
 217.237347963 472 255 474.663753609 255 511.346798832 c 0xfa
 255 540.80705713 230.644063958 552 182 552 c 2
 167 552 l 1
 167 636 l 1
 182 636 l 2
 225.333333333 636 247 648.904889219 247 673.485211244 c 0
 247 699.35433603 223.001702275 709 201.953792275 709 c 0
 191.128575879 709 158.099487648 706.448548336 147 675 c 1
 58 708 l 1
 71.0180233184 737.099110947 107.319436962 785 200.078957457 785 c 0
 230.671595473 785 350 779.78972747 350 685.770466179 c 0xfc
 350 673.298639017 347.900236742 623.450118371 301 600 c 1
 315.853254757 594.498794534 360 572.903518783 360 512.808993782 c 0xfa
EndSplineSet
EndChar

StartChar: acute
Encoding: 180 180 96
Width: 314
GlyphClass: 1
Flags: W
HStem: 574 153<163.853 196.738>
VStem: 53 208
LayerCount: 2
Fore
SplineSet
261 669.380039458 m 0
 261 643.481452207 246.227358482 632.378053618 167 574 c 1
 53 574 l 1
 78.5881090448 605.071275269 139.393438611 679.103693204 143.811964142 684.447026405 c 0
 166.089739395 711.387591827 189.518744848 727 210.09109612 727 c 0
 235.314613052 727 261 703.529987802 261 669.380039458 c 0
EndSplineSet
EndChar

StartChar: uni03BC
Encoding: 278 956 97
Width: 570
GlyphClass: 1
Flags: W
HStem: -162 21G<50 202> -12 118<221.114 340.317> 0 21G<374.953 519> 475 20G<50 202 366 519>
VStem: 50 152<-162 18 124.269 495> 366 153<133.021 495>
LayerCount: 2
Fore
SplineSet
368 43 m 1xbc
 361.979409071 32.0876789419 336.622762243 -12 277.377859701 -12 c 0
 249.16205948 -12 224 -2 202 18 c 1
 202 -162 l 1
 50 -162 l 1
 50 495 l 1
 202 495 l 1
 202 230 l 2
 202 130.413730262 221.291913477 106 277.112071738 106 c 0xdc
 339.730859973 106 366 136.722838169 366 230 c 2
 366 495 l 1
 519 495 l 1
 519 0 l 1
 381 0 l 1
 368 43 l 1xbc
EndSplineSet
EndChar

StartChar: paragraph
Encoding: 182 182 98
Width: 515
GlyphClass: 1
Flags: W
HStem: -162 21G<166 261 353 448> 600 67<261 353 448 495>
VStem: 24 237<389.156 563.729> 166 95<-162 301.071> 353 95<-162 600>
LayerCount: 2
Fore
SplineSet
24 477.028117926 m 0xe8
 24 582.436336427 108.12887073 667 213 667 c 2
 495 667 l 1
 495 600 l 1
 448 600 l 1
 448 -162 l 1
 353 -162 l 1
 353 600 l 1
 261 600 l 1
 261 -162 l 1
 166 -162 l 1
 166 295 l 1xd8
 85.1459466748 317.234864664 24 387.164110796 24 477.028117926 c 0xe8
EndSplineSet
EndChar

StartChar: periodcentered
Encoding: 183 183 99
Width: 301
GlyphClass: 1
Flags: W
HStem: 151 194<88.92 211.023>
VStem: 53 195<188.026 308.467>
LayerCount: 2
Fore
SplineSet
248 248.474491808 m 0
 248 194.004925602 204.872863434 151 151.04512053 151 c 0
 97.4757384393 151 53 193.593088793 53 248.403087108 c 0
 53 303.041574009 97.1978270325 345 151.105971304 345 c 0
 205.215768257 345 248 302.72708149 248 248.474491808 c 0
EndSplineSet
EndChar

StartChar: cedilla
Encoding: 184 184 100
Width: 321
GlyphClass: 1
Flags: W
HStem: -187 50<83.8304 193.357>
VStem: 194 94<-134.327 -86.2415>
LayerCount: 2
Fore
SplineSet
288 -108.066146191 m 0
 288 -164.616683805 224.579036554 -187 160.555295935 -187 c 0
 144.349653946 -187 109.625398249 -185.565915237 73 -174 c 1
 89 -124 l 1
 99.9469294066 -129.473464703 126.511497247 -137 150.231955243 -137 c 0
 166.759742832 -137 194 -133.345917 194 -110.447772923 c 0
 194 -92.8570401868 177.923981531 -84 156.48857979 -84 c 0
 133.042721514 -84 125.327304348 -94.5963826088 113.598179618 -87.5589077707 c 0
 103.745684376 -81.6474106255 99.614158735 -68.4252222137 105 -59 c 2
 157 25 l 1
 198 0 l 1
 168 -48 l 1
 177.333333333 -46 187.384776311 -45 197.813316559 -45 c 0
 221.329560103 -45 288 -50.0849753891 288 -108.066146191 c 0
EndSplineSet
EndChar

StartChar: uni00B9
Encoding: 185 185 101
Width: 291
GlyphClass: 1
Flags: W
HStem: 647 87<53 135.942>
VStem: 137 101<403 647> 159 79<749.143 779>
LayerCount: 2
Fore
SplineSet
53 734 m 1xc0
 108.659261057 734 146.245182617 739.460066112 159 779 c 1
 238 779 l 1xa0
 238 403 l 1
 137 403 l 1
 137 647 l 1
 53 647 l 1
 53 734 l 1xc0
EndSplineSet
EndChar

StartChar: ordmasculine
Encoding: 186 186 102
Width: 409
GlyphClass: 1
Flags: W
HStem: 395 77<171.52 246.022> 612 77<172.083 246.76>
VStem: 57 103<482.235 600.707> 258 102<482.13 602.427>
LayerCount: 2
Fore
SplineSet
160 545.378158521 m 0
 160 531.766170826 161.90003428 472 208.121685066 472 c 0
 236.145768048 472 258 493.969862975 258 539.328097612 c 0
 258 553.487372369 255.870364488 612 211.748717239 612 c 0
 200.218646502 612 160 608.004141427 160 545.378158521 c 0
360 548.802703569 m 0
 360 517.05548286 353.055157899 395 215.336838861 395 c 0
 153.927873941 395 57 419.268191942 57 542.110844453 c 0
 57 659.453969649 145.443438157 689 207.257331191 689 c 0
 244.685675445 689 360 678.167512971 360 548.802703569 c 0
EndSplineSet
EndChar

StartChar: guillemotright
Encoding: 187 187 103
Width: 669
GlyphClass: 1
Flags: W
VStem: 53 175<40 215 286 461> 294 174<40 214 287 461>
LayerCount: 2
Fore
SplineSet
53 40 m 1
 203 251 l 1
 54 461 l 1
 228 461 l 1
 375 251 l 1
 228 40 l 1
 53 40 l 1
294 40 m 1
 442 251 l 1
 294 461 l 1
 468 461 l 1
 616 251 l 1
 468 40 l 1
 294 40 l 1
EndSplineSet
EndChar

StartChar: onequarter
Encoding: 188 188 104
Width: 853
GlyphClass: 1
Flags: W
HStem: 0 21G<110 251.033 641 742> 74 87<563 641 742 800> 535 88<53 135.965> 647 20G<152.646 238 563.967 705>
VStem: 110 127<0 127> 137 101<292 535> 159 79<637.481 667> 578 127<540 667> 641 101<0 74 161 256>
DStem2: 110 0 237 0 0.574368 0.818597<72.9447 814.809> 460 152 563 161 0.630199 0.776433<71.8984 194.815>
LayerCount: 2
Fore
SplineSet
563 161 m 1xf080
 641 161 l 1
 641 256 l 1
 563 161 l 1xf080
641 0 m 1
 641 74 l 1
 460 74 l 1
 460 152 l 1
 641 375 l 1
 742 375 l 1
 742 161 l 1
 800 161 l 1
 800 74 l 1
 742 74 l 1
 742 0 l 1
 641 0 l 1
53 623 m 1
 108.671282141 623 146.292414557 627.606485127 159 667 c 1
 238 667 l 1xf2
 238 292 l 1
 137 292 l 1
 137 535 l 1xf4
 53 535 l 1
 53 623 l 1
110 0 m 1xf9
 578 667 l 1
 705 667 l 1
 237 0 l 1
 110 0 l 1xf9
EndSplineSet
Ligature2: "'frac' Diagonal Fractions lookup 10 subtable" one slash four
EndChar

StartChar: onehalf
Encoding: 189 189 105
Width: 856
GlyphClass: 1
Flags: W
HStem: 0 87<644 802> 306 75<613.792 695.796> 535 88<53 135.965> 647 20G<152.646 238 563.967 705>
VStem: 110 127<0 127> 137 101<292 535> 159 79<637.481 667> 578 127<540 667> 700 102<219.158 302.027>
DStem2: 110 0 237 0 0.574368 0.818597<72.9447 814.809>
LayerCount: 2
Fore
SplineSet
803 276.861310077 m 0xf080
 803 204.135353262 741.890283829 153.619776495 644 87 c 1
 802 87 l 1
 802 0 l 1
 502 0 l 1
 502 81 l 1
 550.975662649 116.262477107 581.751679521 134.430999626 620.177073746 164.450838864 c 0
 679.230258598 210.586139529 700 240.688862835 700 266.680962098 c 0
 700 274.667271446 698.039166887 306 658.225540183 306 c 0
 643.27934706 306 613.15377291 301.58433706 603 263 c 1
 512 296 l 1
 533.650814841 351.480213031 587.251298191 381 658.875831163 381 c 0
 697.827238684 381 803 372.26956418 803 276.861310077 c 0xf080
53 623 m 1
 108.671282141 623 146.292414557 627.606485127 159 667 c 1
 238 667 l 1xf2
 238 292 l 1
 137 292 l 1
 137 535 l 1xf4
 53 535 l 1
 53 623 l 1
110 0 m 1xf9
 578 667 l 1
 705 667 l 1
 237 0 l 1
 110 0 l 1xf9
EndSplineSet
Ligature2: "'frac' Diagonal Fractions lookup 10 subtable" one slash two
EndChar

StartChar: threequarters
Encoding: 190 190 106
Width: 959
GlyphClass: 1
Flags: W
HStem: 0 21G<200 341.033 748 849> 74 87<669 748 849 906> 290 76<153.788 250.9> 446 84<167 242.942> 603 76<130.4 242.745> 647 20G<653.967 795>
VStem: 200 127<0 127> 247 103<537.202 597.217> 255 105<372.345 437.615> 668 127<540 667> 748 101<0 74 161 256>
DStem2: 200 0 327 0 0.574368 0.818597<72.9447 814.809> 567 152 669 161 0.630199 0.776433<71.2682 194.815>
LayerCount: 2
Fore
SplineSet
669 161 m 1xf020
 748 161 l 1
 748 256 l 1
 669 161 l 1xf020
748 0 m 1
 748 74 l 1
 567 74 l 1
 567 152 l 1
 748 375 l 1
 849 375 l 1
 849 161 l 1
 906 161 l 1
 906 74 l 1
 849 74 l 1
 849 0 l 1
 748 0 l 1
200 0 m 1xf640
 668 667 l 1
 795 667 l 1
 327 0 l 1
 200 0 l 1xf640
360 407.3388546 m 0xf880
 360 329.175024034 283.518707295 290 201.45169135 290 c 0
 129.645195135 290 77.0038825419 319.991587826 53 372 c 1
 144 404 l 1
 149.032030407 390.341631752 163.94475601 366 204.529750309 366 c 0
 219.483526157 366 255 369.304611746 255 404.619319173 c 0xf880
 255 433.870607882 230.632631838 446 182 446 c 2
 167 446 l 1
 167 530 l 1
 182 530 l 2
 225.333333333 530 247 542.678487653 247 566.874346854 c 0
 247 591.934320574 223.75812147 603 201.739651348 603 c 0
 191.70204135 603 158.188353784 600.700335721 147 569 c 1
 58 602 l 1
 81.3333333333 653.333333333 129.975225549 679 200.034930422 679 c 0
 235.901917305 679 350 672.272981046 350 579.926175163 c 0xf9
 350 567.065972419 347.787260848 517.393630424 301 494 c 1
 314.967223602 488.826954222 360 467.316938358 360 407.3388546 c 0xf880
EndSplineSet
Ligature2: "'frac' Diagonal Fractions lookup 10 subtable" three slash four
EndChar

StartChar: less
Encoding: 60 60 107
Width: 573
GlyphClass: 1
Flags: W
HStem: 490 20G<486.27 533>
LayerCount: 2
Fore
SplineSet
533 -12 m 1
 40 200 l 1
 40 299 l 1
 533 510 l 1
 533 368 l 1
 209 250 l 1
 533 130 l 1
 533 -12 l 1
EndSplineSet
EndChar

StartChar: equal
Encoding: 61 61 108
Width: 618
GlyphClass: 1
Flags: W
HStem: 96 129<53 565> 283 127<53 565>
LayerCount: 2
Fore
SplineSet
53 96 m 1
 53 225 l 1
 565 225 l 1
 565 96 l 1
 53 96 l 1
53 283 m 1
 53 410 l 1
 565 410 l 1
 565 283 l 1
 53 283 l 1
EndSplineSet
EndChar

StartChar: greater
Encoding: 62 62 109
Width: 573
GlyphClass: 1
Flags: W
HStem: 490 20G<40 86.7299>
LayerCount: 2
Fore
SplineSet
40 -12 m 1
 40 130 l 1
 365 250 l 1
 40 368 l 1
 40 510 l 1
 533 299 l 1
 533 200 l 1
 40 -12 l 1
EndSplineSet
EndChar

StartChar: question
Encoding: 63 63 110
Width: 614
GlyphClass: 1
Flags: W
HStem: -12 195<204.16 324.584> 558 122<220.168 386.886>
VStem: 167 194<25.5991 148.226> 408 156<463.563 536.775>
LayerCount: 2
Fore
SplineSet
361 86.4239874344 m 0
 361 31.9260153883 318.97174641 -12 264.545617308 -12 c 0
 210.289309198 -12 167 31.6523261906 167 86.3723487459 c 0
 167 140.696859055 209.665786954 183 264.51096838 183 c 0
 319.38385297 183 361 140.654112298 361 86.4239874344 c 0
299.038822708 680 m 0
 355.335986573 680 564 670.249157439 564 507.590511963 c 0
 564 417.617895094 500.156901304 374.298137347 423.669946244 338.396097217 c 0
 379.446797495 317.638292702 346.087569161 297.516230163 341 253 c 2
 340 243 l 1
 186 243 l 1
 186 255 l 1
 190.180370161 355.328883868 228.83080876 386.073898645 376.062609314 455.644969236 c 0
 376.063714736 455.645491579 408 470.736263737 408 500.550626288 c 0
 408 535.110862015 365.087211682 558 302.820728289 558 c 0
 276.742608268 558 200.258064997 553.985113068 177 486 c 1
 40 536 l 1
 56.9617709441 578.40442736 117.318777716 680 299.038822708 680 c 0
EndSplineSet
EndChar

StartChar: at
Encoding: 64 64 111
Width: 754
GlyphClass: 1
Flags: W
HStem: -12 70<276.887 487.813> 153 87<525.195 607.699> 155 95<310.478 395.831> 427 91<323.633 418.6> 610 70<275.686 486.906>
VStem: 35 69<230.37 436.013> 200 97<261.704 400.145> 419 94<272.473 426.419>
LayerCount: 2
Fore
SplineSet
297 330.772513754 m 0xbf
 297 307.40435337 301.163083558 250 349.370769054 250 c 0
 384.372749809 250 419 280.261991888 419 339 c 2
 419 423 l 1
 416.012020153 423.746994962 401.907880351 427 384.535344164 427 c 0
 344.005560995 427 297 409.294555 297 330.772513754 c 0xbf
104 333.735716258 m 0
 104 177.306328553 231.028408334 58 381.271108113 58 c 0
 428.919940337 58 474 70 516 94 c 1
 516 16 l 1
 473.333333333 -2.66666666667 427.949982091 -12 381.271067874 -12 c 0
 192.481304768 -12 35 140.669459703 35 333.143119153 c 0
 35 522.174328763 186.898478628 680 380.083464432 680 c 0
 560.218972797 680 721.994540525 542.776161522 717.163304962 344.695503456 c 0
 715.728377891 285.863493549 700.005638805 238.449781783 669.631247736 202.897937691 c 0
 641.338972138 169.783115116 605.495559271 153 564.101773414 153 c 0xdf
 539.774343847 153 478.457515256 158.796885523 454 219 c 1
 440.034568987 199.569835113 401.036190776 155 342.034318479 155 c 0xbf
 306.271609228 155 200 171.374583596 200 323.735546 c 0
 200 465.474971584 291.971057314 518 393.590984639 518 c 0
 418.17478242 518 460.341391086 514.925981436 513 498 c 1
 513 309 l 2
 513 302.950339776 514.298188147 240 564.396723517 240 c 0xdf
 662.141947835 240 687.063122805 479.628856259 512.378519275 576.512754015 c 0
 472.351418876 598.712658438 428.006395373 610 381.78109747 610 c 0
 231.248846994 610 104 490.300774944 104 333.735716258 c 0
EndSplineSet
EndChar

StartChar: colon
Encoding: 58 58 112
Width: 243
GlyphClass: 1
Flags: W
HStem: -12 195<61.748 182.015> 316 194<61.6343 182.028>
VStem: 24 195<25.6214 146.464 352.421 472.853>
LayerCount: 2
Fore
SplineSet
219 86.4592571755 m 0
 219 31.9626221879 175.855014359 -12 122.042603567 -12 c 0
 68.452105686 -12 24 31.600781579 24 86.406067556 c 0
 24 141.054533834 68.1980793692 183 122.102342718 183 c 0
 176.216635913 183 219 140.727028651 219 86.4592571755 c 0
219 412.481243717 m 0
 219 358.028135074 175.883517747 316 122.050333552 316 c 0
 68.5015665609 316 24 357.585213194 24 412.414476686 c 0
 24 467.034150534 68.1619945822 510 122.089273419 510 c 0
 176.207457049 510 219 466.729410329 219 412.481243717 c 0
EndSplineSet
EndChar

StartChar: semicolon
Encoding: 59 59 113
Width: 243
GlyphClass: 1
Flags: W
HStem: 316 194<61.6343 182.028>
VStem: 24 195<25.5 146.506 352.421 472.853>
DStem2: 46 -146 136 -146 0.365652 0.930751<32.9087 146.893>
LayerCount: 2
Fore
SplineSet
122.108235348 183 m 0
 175.769596069 183 219 141.346539464 219 85.3197654647 c 0
 219 73.2689629952 217 61.3333333333 213 50 c 2
 136 -146 l 1
 46 -146 l 1
 99 -9 l 1
 56.778811286 1.5552971785 24 39.3040600069 24 86.3294665014 c 0
 24 140.919208713 68.1723159796 183 122.108235348 183 c 0
219 412.481243717 m 0
 219 358.028135074 175.883517747 316 122.050333552 316 c 0
 68.5015665609 316 24 357.585213194 24 412.414476686 c 0
 24 467.034150534 68.1619945822 510 122.089273419 510 c 0
 176.207457049 510 219 466.729410329 219 412.481243717 c 0
EndSplineSet
EndChar

StartChar: bracketleft
Encoding: 91 91 114
Width: 333
GlyphClass: 1
Flags: W
HStem: -161 115<172 300> 552 116<172 300>
VStem: 44 256<-161 -46 552 668> 44 128<-46 552>
LayerCount: 2
Fore
SplineSet
44 -161 m 1xe0
 44 668 l 1
 300 668 l 1
 300 552 l 1xe0
 172 552 l 1
 172 -46 l 1xd0
 300 -46 l 1
 300 -161 l 1
 44 -161 l 1xe0
EndSplineSet
EndChar

StartChar: backslash
Encoding: 92 92 115
Width: 442
GlyphClass: 1
Flags: W
HStem: 0 21G<268.186 427> 648 20G<15 175.754>
DStem2: 168 668 15 668 0.363926 -0.931428<0 661.498>
LayerCount: 2
Fore
SplineSet
276 0 m 1
 15 668 l 1
 168 668 l 1
 427 0 l 1
 276 0 l 1
EndSplineSet
EndChar

StartChar: bracketright
Encoding: 93 93 116
Width: 333
GlyphClass: 1
Flags: W
HStem: -161 115<33 161> 552 116<33 161>
VStem: 33 256<-161 -46 552 668> 161 128<-46 552>
LayerCount: 2
Fore
SplineSet
33 -161 m 1xe0
 33 -46 l 1xe0
 161 -46 l 1
 161 552 l 1xd0
 33 552 l 1
 33 668 l 1
 289 668 l 1
 289 -161 l 1
 33 -161 l 1xe0
EndSplineSet
EndChar

StartChar: asciicircum
Encoding: 94 94 117
Width: 589
GlyphClass: 1
Flags: W
HStem: 648 20G<227.607 361.393>
DStem2: 53 312 196 312 0.461117 0.887339<65.9398 283.734> 351 668 295 506 0.461117 -0.887339<117.926 335.26>
LayerCount: 2
Fore
SplineSet
53 312 m 1
 238 668 l 1
 351 668 l 1
 536 312 l 1
 393 312 l 1
 295 506 l 1
 196 312 l 1
 53 312 l 1
EndSplineSet
EndChar

StartChar: underscore
Encoding: 95 95 118
Width: 430
GlyphClass: 1
Flags: W
HStem: -128 128<10 420>
LayerCount: 2
Fore
SplineSet
10 -128 m 1
 10 0 l 1
 420 0 l 1
 420 -128 l 1
 10 -128 l 1
EndSplineSet
EndChar

StartChar: grave
Encoding: 96 96 119
Width: 314
GlyphClass: 1
Flags: W
HStem: 574 154<119.028 152.719>
VStem: 53 208
LayerCount: 2
Fore
SplineSet
53 671.249702044 m 0
 53 701.146033889 77.1413723525 728 110.459192258 728 c 0
 126.63956534 728 140.333333333 721.666666667 151 709 c 2
 261 574 l 1
 147 574 l 1
 77 625.578947368 77 625.578947368 72 629 c 1
 59.3333333333 641.666666667 53 655.936955248 53 671.249702044 c 0
EndSplineSet
EndChar

StartChar: exclam
Encoding: 33 33 120
Width: 283
GlyphClass: 1
Flags: W
HStem: -12 195<81.748 202.015> 648 20G<44 238>
VStem: 44 195<25.6214 146.464 453.977 668>
LayerCount: 2
Fore
SplineSet
239 86.4592571755 m 0
 239 31.9626221879 195.855014359 -12 142.042603567 -12 c 0
 88.452105686 -12 44 31.600781579 44 86.406067556 c 0
 44 141.054533834 88.1980793692 183 142.102342718 183 c 0
 196.216635913 183 239 140.727028651 239 86.4592571755 c 0
85 243 m 1
 44 495 l 1
 44 668 l 1
 238 668 l 1
 238 495 l 1
 196 243 l 1
 85 243 l 1
EndSplineSet
EndChar

StartChar: quotedbl
Encoding: 34 34 121
Width: 410
GlyphClass: 1
Flags: W
HStem: 434 234<54 168 243 356>
VStem: 54 114<434 551> 243 113<434 543.2>
LayerCount: 2
Fore
SplineSet
54 434 m 1
 40 668 l 1
 182 668 l 1
 168 434 l 1
 54 434 l 1
243 434 m 1
 228 668 l 1
 370 668 l 1
 356 434 l 1
 243 434 l 1
EndSplineSet
EndChar

StartChar: numbersign
Encoding: 35 35 122
Width: 783
GlyphClass: 1
Flags: W
HStem: 0 21G<134 277.835 411 554.835> 127 140<44 152 313 429 591 699> 401 140<84 192 352 469 630 738> 648 20G<228.008 371 505.008 649>
DStem2: 134 0 275 0 0.143702 0.989621<20.262 128.269 289.952 405.173 566.712 675.006> 411 0 552 0 0.143702 0.989621<20.262 128.269 290.095 405.173 566.856 675.006>
LayerCount: 2
Fore
SplineSet
313 267 m 1
 450 267 l 1
 469 401 l 1
 332 401 l 1
 313 267 l 1
134 0 m 1
 152 127 l 1
 24 127 l 1
 44 266 l 1
 172 266 l 1
 192 401 l 1
 64 401 l 1
 84 541 l 1
 212 541 l 1
 231 668 l 1
 371 668 l 1
 352 541 l 1
 489 541 l 1
 508 668 l 1
 649 668 l 1
 630 541 l 1
 759 541 l 1
 738 402 l 1
 610 402 l 1
 591 267 l 1
 719 267 l 1
 699 127 l 1
 570 127 l 1
 552 0 l 1
 411 0 l 1
 429 127 l 1
 293 127 l 1
 275 0 l 1
 134 0 l 1
EndSplineSet
EndChar

StartChar: dollar
Encoding: 36 36 123
Width: 619
GlyphClass: 1
Flags: W
HStem: -11 128<222.825 272 345 408.145> 552 126<214.278 272 345 383.133>
VStem: 28 162<445.868 525.735> 272 73<-87 -8.9744 120 261 420 548 675.984 747> 434 162<142.076 229.818>
LayerCount: 2
Fore
SplineSet
345 117 m 1
 367.740462201 119.675348494 434 132.204739005 434 186.300820086 c 0
 434 224.726233034 400.568652621 246.091337102 345 261 c 1
 345 117 l 1
272 552 m 1
 255.63465204 550.181628004 190 539.70618909 190 490.054286574 c 0
 190 474.137336051 196.744987229 432.542502129 272 420 c 1
 272 552 l 1
596 213.048271546 m 0
 596 73.5021537372 467.87368617 0.519408078392 345 -11 c 1
 345 -87 l 1
 272 -87 l 1
 272 -10 l 1
 234.351866142 -6.76145085089 82.7929660929 8.38951576123 25 157 c 1
 169 209 l 1
 183.268989629 161.004307611 217.174722824 130.965055435 272 120 c 1
 272 277 l 1
 231 286 l 2
 43.1235065852 327.75033187 28 420.822117511 28 468.352695034 c 0
 28 617.640980291 177.196205091 670.099683758 272 678 c 1
 272 747 l 1
 345 747 l 1
 345 678 l 1
 378.361682017 675.257943944 515.601030852 661.6617454 567 535 c 1
 424 483 l 1
 411.333333333 515.666666667 385 537.333333333 345 548 c 1
 345 405 l 1
 356 403 l 1
 564.827950523 367.346447472 596 281.878826549 596 213.048271546 c 0
EndSplineSet
EndChar

StartChar: percent
Encoding: 37 37 124
Width: 977
GlyphClass: 1
Flags: W
HStem: -12 119<702.214 810.574> 0 21G<192 332.012> 264 118<702.199 809.721> 286 118<167.552 275.058> 561 119<167.299 274.365> 648 20G<645.018 786>
VStem: 24 119<430.023 536.827> 192 126<0 126> 300 118<428.042 535.205> 559 118<131.259 237.272> 659 127<541 668> 835 118<132.076 237.59>
DStem2: 192 0 318 0 0.573791 0.819001<72.2977 815.054>
LayerCount: 2
Fore
SplineSet
677 185.588898582 m 0xa250
 677 141.762903687 712.857316853 107 756.066092961 107 c 0
 799.414187548 107 835 141.987437827 835 185.521240485 c 0
 835 229.261653257 799.075607622 264 756.028173537 264 c 0
 713.209209857 264 677 229.629416062 677 185.588898582 c 0xa250
953 186.908444372 m 0
 953 78.2301928837 866.323950704 -12 756.434319299 -12 c 0
 648.38905082 -12 559 75.2268036513 559 186.037954696 c 0
 559 297.05277919 648.717951077 382 755.946332143 382 c 0
 862.666657418 382 953 297.855844281 953 186.908444372 c 0
143 482.446006808 m 0
 143 438.747767652 177.736397629 404 221.436687128 404 c 0
 264.922285252 404 300 438.407187707 300 482.511956107 c 0
 300 526.608323259 264.935647457 561 221.385797783 561 c 0x1a90
 177.416412744 561 143 525.942510497 143 482.446006808 c 0
192 0 m 1x4730
 659 668 l 1
 786 668 l 1
 318 0 l 1
 192 0 l 1x4730
418 482.783731279 m 0x1a90
 418 371.603679621 328.332609875 286 221.046026498 286 c 0
 114.563957198 286 24 370.324653923 24 481.990737377 c 0
 24 593.520435444 114.342868446 680 220.521935978 680 c 0
 325.259183033 680 418 595.853125527 418 482.783731279 c 0x1a90
EndSplineSet
EndChar

StartChar: ampersand
Encoding: 38 38 125
Width: 702
GlyphClass: 1
Flags: W
HStem: -13 125<218.664 369.176> 0 21G<504.642 698> 592 114<271.545 376.337>
VStem: 24 159<146.876 249.841> 121 139<480.834 579.941> 394 127<475.862 574.517> 546 127<314.006 389>
DStem2: 395 352 266 290 0.652386 -0.757887<0 143.176 274.998 349.629>
LayerCount: 2
Fore
SplineSet
183 198.17302647 m 0xb6
 183 151.33884235 226.014958039 112 284.948046597 112 c 0
 307.711396103 112 345.666841866 117.86915399 392 146 c 1
 266 290 l 1
 237.303955958 278.912892075 183 250.79521926 183 198.17302647 c 0xb6
322.922223517 592 m 0
 285.953949832 592 260 569.740613401 260 537.703665064 c 0x2e
 260 518.674283926 269.156942948 482.07201925 322 437 c 1
 344.001271153 448.579616396 394 480.23343133 394 527.706811864 c 0
 394 564.448989894 364.050578335 592 322.922223517 592 c 0
476 53 m 1
 399.830577617 6.2293020458 329.286141794 -13 266.039147254 -13 c 0
 120.732291168 -13 24 88.497640877 24 191.575754904 c 0xb6
 24 263.692188298 71.3485874 338.339765771 182 385 c 1
 143.322934354 434.554990359 121 485.513626548 121 536.328609109 c 0
 121 645.99497392 224.971573369 706 322.321964173 706 c 0
 442.237592797 706 521 614.953384314 521 530.862006318 c 0
 521 487.923513879 500.464294519 417.13971132 395 352 c 1
 489 244 l 1
 515.593209943 285.989278858 534.545285025 334.271917341 546 389 c 1
 673 389 l 1
 667.55735499 355.43702244 644.315432035 238.601504546 573 145 c 1
 698 0 l 1
 522 0 l 1x6e
 476 53 l 1
EndSplineSet
EndChar

StartChar: quotesingle
Encoding: 39 39 126
Width: 222
GlyphClass: 1
Flags: W
HStem: 434 234<54 168>
VStem: 54 114<434 551>
LayerCount: 2
Fore
SplineSet
54 434 m 1
 40 668 l 1
 182 668 l 1
 168 434 l 1
 54 434 l 1
EndSplineSet
EndChar

StartChar: parenleft
Encoding: 40 40 127
Width: 366
GlyphClass: 1
Flags: W
HStem: -161 21G<157.064 331> 648 20G<92.0965 289>
VStem: 35 141<118.302 453.373> 145 144<524 668> 180 151<-161 -10>
LayerCount: 2
Fore
SplineSet
176 288.249839877 m 0xe0
 176 174.225551321 202.797976978 18.4828322311 331 -161 c 1
 180 -161 l 1
 134.128849591 -97.0583963997 35 59.5264958026 35 285.271587372 c 0xe8
 35 331.699158243 39.1929082301 493.011348227 145 668 c 1
 289 668 l 1xd0
 232.477391002 582.241558762 176 453.782494332 176 288.249839877 c 0xe0
EndSplineSet
EndChar

StartChar: parenright
Encoding: 41 41 128
Width: 366
GlyphClass: 1
Flags: W
HStem: -161 21G<35 247.595> 648 20G<77 240.648>
VStem: 35 152<-161 -9> 77 144<524 668> 190 141<114.179 457.638>
LayerCount: 2
Fore
SplineSet
331 282.679126759 m 0xc8
 331 177.25439596 308.189728652 10.5300774765 187 -161 c 1
 35 -161 l 1
 138.603035002 -18.1533911342 190 130.574145897 190 288.410590297 c 0xe8
 190 358.648795207 179.821829913 514.63862657 77 668 c 1
 221 668 l 1xd0
 260.295093228 604.238150611 331 468.289417872 331 282.679126759 c 0xc8
EndSplineSet
EndChar

StartChar: asterisk
Encoding: 42 42 129
Width: 434
GlyphClass: 1
Flags: W
HStem: 351 317
VStem: 173 88<567 668>
LayerCount: 2
Fore
SplineSet
158 351 m 1
 87 402 l 1
 146 484 l 1
 50 515 l 1
 77 598 l 1
 173 567 l 1
 173 668 l 1
 261 668 l 1
 261 567 l 1
 355 598 l 1
 383 515 l 1
 288 484 l 1
 347 402 l 1
 276 351 l 1
 217 432 l 1
 158 351 l 1
EndSplineSet
EndChar

StartChar: plus
Encoding: 43 43 130
Width: 618
GlyphClass: 1
Flags: W
HStem: 0 21G<245 373> 184 128<53 245 373 565> 476 20G<245 373>
VStem: 245 128<0 184 312 496>
LayerCount: 2
Fore
SplineSet
245 0 m 1
 245 184 l 1
 53 184 l 1
 53 312 l 1
 245 312 l 1
 245 496 l 1
 373 496 l 1
 373 312 l 1
 565 312 l 1
 565 184 l 1
 373 184 l 1
 373 0 l 1
 245 0 l 1
EndSplineSet
EndChar

StartChar: comma
Encoding: 44 44 131
Width: 243
GlyphClass: 1
Flags: W
HStem: -146 329<99.954 136>
VStem: 24 195<25.5 146.574>
DStem2: 46 -146 136 -146 0.365652 0.930751<32.9087 146.893>
LayerCount: 2
Fore
SplineSet
121.90001049 183 m 0
 176.330164999 183 219 139.643704407 219 85.0052323164 c 0
 219 73.1760952977 217 61.3333333333 213 50 c 2
 136 -146 l 1
 46 -146 l 1
 99 -9 l 1
 56.778811286 1.5552971785 24 39.3040600069 24 86.3347061725 c 0
 24 141.043927483 68.356000065 183 121.90001049 183 c 0
EndSplineSet
EndChar

StartChar: hyphen
Encoding: 45 45 132
Width: 374
GlyphClass: 1
Flags: W
HStem: 184 129<24 350>
VStem: 24 326<184 313>
LayerCount: 2
Fore
SplineSet
24 184 m 1
 24 313 l 1
 350 313 l 1
 350 184 l 1
 24 184 l 1
EndSplineSet
EndChar

StartChar: period
Encoding: 46 46 133
Width: 243
GlyphClass: 1
Flags: W
HStem: -12 195<61.748 182.015>
VStem: 24 195<25.6214 146.464>
LayerCount: 2
Fore
SplineSet
219 86.4592571755 m 0
 219 31.9626221879 175.855014359 -12 122.042603567 -12 c 0
 68.452105686 -12 24 31.600781579 24 86.406067556 c 0
 24 141.054533834 68.1980793692 183 122.102342718 183 c 0
 176.216635913 183 219 140.727028651 219 86.4592571755 c 0
EndSplineSet
EndChar

StartChar: slash
Encoding: 47 47 134
Width: 442
GlyphClass: 1
Flags: W
HStem: 0 21G<15 175.754> 648 20G<268.186 427>
DStem2: 15 0 168 0 0.363926 0.931428<55.6807 717.178>
LayerCount: 2
Fore
SplineSet
15 0 m 1
 276 668 l 1
 427 668 l 1
 168 0 l 1
 15 0 l 1
EndSplineSet
EndChar

StartChar: braceleft
Encoding: 123 123 135
Width: 370
GlyphClass: 1
Flags: W
HStem: -161 120<242.301 336> 193 123<24 78.6406> 548 120<247.592 336>
VStem: 94 144<-32.8453 177.886 332.157 540.193>
LayerCount: 2
Fore
SplineSet
238 3 m 2
 238 -33.2212267381 261.170788068 -41 303 -41 c 2
 336 -41 l 1
 336 -161 l 1
 285 -161 l 2
 145.362488274 -161 94 -111.042961258 94 2 c 2
 94 97 l 2
 94 156.377422367 84.3812605029 193 24 193 c 1
 24 316 l 1
 84.3937516168 316 94 351.991387223 94 410 c 2
 94 506 l 2
 94 616.665675179 143.492297714 668 285 668 c 2
 336 668 l 1
 336 548 l 1
 303 548 l 2
 261.176247538 548 238 540.224432644 238 504 c 2
 238 381 l 2
 238 311.507157776 208.238165299 273.986686284 144 256 c 1
 144 253 l 1
 226.828849087 233.121076219 238 173.828811881 238 128 c 2
 238 3 l 2
EndSplineSet
EndChar

StartChar: bar
Encoding: 124 124 136
Width: 234
GlyphClass: 1
Flags: W
HStem: -161 21G<44 190> 648 20G<44 190>
VStem: 44 146<-161 668>
LayerCount: 2
Fore
SplineSet
44 -161 m 1
 44 668 l 1
 190 668 l 1
 190 -161 l 1
 44 -161 l 1
EndSplineSet
EndChar

StartChar: braceright
Encoding: 125 125 137
Width: 370
GlyphClass: 1
Flags: W
HStem: -161 120<34 126.458> 193 123<292.293 346> 548 120<34 128.134>
VStem: 133 144<-34.8502 177.456 331.521 541.216>
LayerCount: 2
Fore
SplineSet
277 2 m 2
 277 -118.746080957 217.029910876 -161 86 -161 c 2
 34 -161 l 1
 34 -41 l 1
 68 -41 l 2
 111.077023084 -41 133 -33.2532158511 133 3 c 2
 133 128 l 2
 133 178.135261548 145.549036494 232.887259124 226 253 c 1
 226 256 l 1
 153.305420039 277.202585822 133 319.880955863 133 381 c 2
 133 504 l 2
 133 540.25486903 111.074246026 548 68 548 c 2
 34 548 l 1
 34 668 l 1
 86 668 l 2
 223.46609868 668 277 620.593900999 277 506 c 2
 277 410 l 2
 277 351.968967912 286.842595571 316 346 316 c 1
 346 193 l 1
 286.858608126 193 277 156.406304816 277 97 c 2
 277 2 l 2
EndSplineSet
EndChar

StartChar: asciitilde
Encoding: 126 126 138
Width: 533
GlyphClass: 1
Flags: W
HStem: 167 123<287.119 378.437> 227 123<152.216 251.975>
LayerCount: 2
Fore
SplineSet
493 333 m 1x80
 486.243945182 228.956755797 450.821876649 167 369.251504717 167 c 0x80
 288.979569492 167 240.054511116 227 187.085143266 227 c 0
 161.331575327 227 142.37973622 212.816726384 145 146 c 1
 40 184 l 1
 46.5381905698 284.688134776 80.9730770352 350 168.055230996 350 c 0x40
 251.521066382 350 300.43313676 290 346.466949217 290 c 0
 371.247134115 290 390.833493606 307.386271108 387 370 c 1
 493 333 l 1x80
EndSplineSet
EndChar

StartChar: exclamdown
Encoding: 161 161 139
Width: 283
GlyphClass: 1
Flags: W
HStem: -161 21G<45 238> 325 194<81.6343 202.028>
VStem: 45 193<-161 49.0244 359.625 483.674>
LayerCount: 2
Fore
SplineSet
45 -161 m 1
 45 12 l 1
 86 265 l 1
 197 265 l 1
 238 12 l 1
 238 -161 l 1
 45 -161 l 1
239 421.481243717 m 0
 239 367.028135074 195.883517747 325 142.050333552 325 c 0
 88.5015665609 325 44 366.585213194 44 421.414476686 c 0
 44 476.034150534 88.1619945822 519 142.089273419 519 c 0
 196.207457049 519 239 475.729410329 239 421.481243717 c 0
EndSplineSet
EndChar

StartChar: cent
Encoding: 162 162 140
Width: 520
GlyphClass: 1
Flags: W
VStem: 24 155<154.905 343.453> 244 73<-87 -8.47176 115 383 504.996 571>
LayerCount: 2
Fore
SplineSet
244 383 m 1
 195.304324555 360.391293544 179 307.879272012 179 250.553605378 c 0
 179 210.475534473 186.969263794 140.346993869 244 115 c 1
 244 383 l 1
500 107 m 1
 478.376646236 67.9384577164 427.055228039 4.81512685134 317 -10 c 1
 317 -87 l 1
 244 -87 l 1
 244 -11 l 1
 173.333333333 -3.66666666667 118.582598287 24.0162600138 79.4773905039 72.3832275347 c 0
 42.5825982867 118.016260014 24 176.637048364 24 246.438001255 c 0
 24 409.93254123 125.950707256 495.479620467 244 508 c 1
 244 571 l 1
 317 571 l 1
 317 507 l 1
 371.451085314 500.069861869 457.718164648 473.671510062 502 379 c 1
 375 334 l 1
 369.733722025 347.458265936 355.421567133 377.605120241 318 388 c 1
 318 109 l 1
 344 115 363.333333333 129.333333333 376 152 c 1
 500 107 l 1
EndSplineSet
EndChar

StartChar: sterling
Encoding: 163 163 141
Width: 617
GlyphClass: 1
Flags: W
HStem: -12 125<324.599 554.582> 24 110<227.138 352.984> 295 73<50 125 324 450> 558 121<269.099 412.691>
VStem: 82 160<419.17 532.975> 173 158<191.229 294.39>
LayerCount: 2
Fore
SplineSet
236.323958235 24 m 0x74
 210.793495744 24 161.168127024 18.6371601947 105 -12 c 1
 50 104 l 1
 124.907766233 140.819071538 173 179.118977167 173 247.256186675 c 0xb4
 173 265.194691486 169.666666667 281 163 295 c 1
 50 295 l 1
 50 368 l 1
 125 368 l 1
 101.529697627 413.473710847 82 457.070651762 82 504.967534778 c 0
 82 631.927041905 219.218122038 679 327.935694699 679 c 0
 380.501723568 679 528.707931359 667.995195435 585 536 c 1
 449 486 l 1
 434.306747513 538.094258819 383.493402312 558 337.738930396 558 c 0
 314.765954476 558 242 552.981825338 242 476.270770074 c 0xb8
 242 461 244.883594527 455.413035604 290 368 c 1
 450 368 l 1
 450 295 l 1
 324 295 l 1
 328.666666667 283 331 270.128071233 331 256.316353161 c 0
 331 234.305563603 325.074123193 177.209333168 226 115 c 1
 250.964244422 129.265282527 278.05963556 134 309.204883653 134 c 0x74
 374.797417408 134 397.400664485 113 450.573965685 113 c 0
 489.042229895 113 522.6516675 123.9910005 556 144 c 1
 600 23 l 1
 560.430640979 3.21532048928 509.524734439 -12 454.694410504 -12 c 0xb4
 370.35481578 -12 302.471318953 24 236.323958235 24 c 0x74
EndSplineSet
EndChar

StartChar: currency
Encoding: 164 164 142
Width: 596
GlyphClass: 1
Flags: W
HStem: 102 119<236.801 359.207> 419 120<235.996 359.676>
VStem: 79 120<258.908 382.375> 397 119<259.228 381.698>
DStem2: 105 565 53 513 0.707107 -0.707107<0 98.8062 520.392 619.426> 53 127 105 75 0.707107 0.707107<0 99.0336 520.601 619.426>
LayerCount: 2
Fore
SplineSet
199 320.993994135 m 0
 199 265.768417903 242.804813398 221 298.005358796 221 c 0
 353.224906814 221 397 265.799245991 397 320.991423015 c 0
 397 376.21594216 353.173588158 419 297.985024543 419 c 0
 242.794681595 419 199 376.213183317 199 320.993994135 c 0
516 321.52421492 m 0
 516 285.485720064 507.856074812 239.269158944 476 194 c 1
 543 127 l 1
 491 75 l 1
 424 142 l 1
 387.333333333 115.333333333 345.333333333 102 298 102 c 0
 250.666666667 102 208.666666667 115.333333333 172 142 c 1
 105 75 l 1
 53 127 l 1
 120 194 l 1
 103.13134037 217.971253158 79 261.37314914 79 320.179218028 c 0
 79 354.942582903 87.4329740183 399.720542026 120 446 c 1
 53 513 l 1
 105 565 l 1
 172 498 l 1
 203.574189288 521.388288362 245.761797656 539 298.475316992 539 c 0
 330.815605285 539 377.599094296 532.371041262 424 498 c 1
 491 565 l 1
 543 513 l 1
 476 446 l 1
 502.666666667 409.333333333 516 367.636763417 516 321.52421492 c 0
EndSplineSet
EndChar

StartChar: yen
Encoding: 165 165 143
Width: 687
GlyphClass: 1
Flags: W
HStem: 0 21G<265 422> 75 74<136 265 422 552> 212 74<136 249 438 552> 647 20G<10 205.641 480.359 677>
VStem: 10 184<483 667> 265 157<0 75 149 212> 492 185<482 667>
DStem2: 194 667 10 667 0.531397 -0.847123<0 296.042> 343 411 438 286 0.531397 0.847123<0 296.042>
LayerCount: 2
Fore
SplineSet
265 0 m 1
 265 75 l 1
 136 75 l 1
 136 149 l 1
 265 149 l 1
 265 212 l 1
 136 212 l 1
 136 286 l 1
 249 286 l 1
 10 667 l 1
 194 667 l 1
 343 411 l 1
 492 667 l 1
 677 667 l 1
 438 286 l 1
 552 286 l 1
 552 212 l 1
 422 212 l 1
 422 149 l 1
 552 149 l 1
 552 75 l 1
 422 75 l 1
 422 0 l 1
 265 0 l 1
EndSplineSet
EndChar

StartChar: brokenbar
Encoding: 166 166 144
Width: 216
GlyphClass: 1
Flags: W
HStem: -161 21G<44 172> 648 20G<44 172>
VStem: 44 128<-161 150 358 668>
LayerCount: 2
Fore
SplineSet
44 -161 m 1
 44 150 l 1
 172 150 l 1
 172 -161 l 1
 44 -161 l 1
44 358 m 1
 44 668 l 1
 172 668 l 1
 172 358 l 1
 44 358 l 1
EndSplineSet
EndChar

StartChar: section
Encoding: 167 167 145
Width: 578
GlyphClass: 1
Flags: W
HStem: -173 117<220.874 339.642> 565 115<220.673 343.282>
VStem: 21 149<270.692 339.835> 68 149<497.57 556.871> 351 151<-43.4765 35.468> 398 153<195.427 266.142>
DStem2: 356 184 162 125 0.895856 -0.444345<-217.11 14.686> 278 474 211 352 0.89735 -0.44132<-18.8928 209.202>
LayerCount: 2
Fore
SplineSet
356 184 m 1xe4
 384.282257474 196.727015863 398 209.702627306 398 229.415388228 c 0
 398 258.860293801 367.393894608 276.167579008 321 298 c 2
 211 352 l 1
 183.666666667 338.666666667 170 322.875473478 170 305.345154512 c 0
 170 282.02747078 194.179859922 265.091924485 231 246 c 2
 356 184 l 1xe4
502 4.96849026775 m 0xc8
 502 -103.089921985 407.34098604 -173 280.952442656 -173 c 0
 216.43621638 -173 107.047235346 -154.783611399 64 -35 c 1
 194 12 l 1
 203.565939869 -24.1379950591 227.622777237 -56 279.550927182 -56 c 0
 292.459299629 -56 351 -54.0311602199 351 -7.56986790493 c 0
 351 23.0610030568 325.555493357 46.0710170257 277 69 c 2
 162 125 l 2
 99.3612016384 154.917038023 21 205.901179182 21 289.948097442 c 0xe8
 21 325.075818057 34.6885497717 377.232543283 107 421 c 1
 80.9765102363 454.25223692 68 489.751385724 68 526.613761533 c 0
 68 636.190241214 182.663701348 680 284.093621991 680 c 0
 351.715546799 680 445.963787385 660.527857122 489 568 c 1
 359 521 l 1
 354.200252898 532.199409904 340.142857143 565 281.265421146 565 c 0
 265.032329745 565 217 562.506632199 217 531.63389245 c 0
 217 510.315739838 239.902476279 493.048761861 278 474 c 2
 400 414 l 2
 496.326306439 367.174712148 551 322.315628026 551 240.00693287 c 0xd4
 551 233.815604115 550.69064673 164.55853458 458 114 c 1
 492.226412534 78.1437582978 502 39.6904793213 502 4.96849026775 c 0xc8
EndSplineSet
EndChar

StartChar: dieresis
Encoding: 168 168 146
Width: 452
GlyphClass: 1
Flags: W
HStem: 578 141<79.8531 179.642 273.852 373.126>
VStem: 59 141<598.35 698.141> 253 140<598.345 698.126>
LayerCount: 2
Fore
SplineSet
393 647.974254812 m 0
 393 608.907827988 363.008563355 578 323.980661015 578 c 0
 284.944491076 578 253 608.920924291 253 647.99521175 c 0
 253 687.057091539 284.924206954 719 323.975038329 719 c 0
 363.053976572 719 393 687.011093121 393 647.974254812 c 0
200 647.994906798 m 0
 200 608.935586331 169.047135717 578 129.991185169 578 c 0
 90.9444910761 578 59 608.920924291 59 647.995211751 c 0
 59 687.057091539 90.9242069543 719 129.989103373 719 c 0
 169.061163153 719 200 687.045375674 200 647.994906798 c 0
EndSplineSet
EndChar

StartChar: copyright
Encoding: 169 169 147
Width: 798
GlyphClass: 1
Flags: W
HStem: -12 69<293.672 504.056> 145 85<357.512 462.859> 437 85<356.461 459.388> 610 69<293.504 503.62>
VStem: 53 70<228.466 438.295> 218 112<257.008 410.786> 675 70<228.368 439.129>
LayerCount: 2
Fore
SplineSet
563 231 m 1
 539.737392647 191.121244538 491.933845058 145 401.062297031 145 c 0
 283.026214613 145 218 222.817045679 218 332.06449621 c 0
 218 456.779951493 302.743501476 522 401.996164656 522 c 0
 445.831047205 522 525.661059375 509.278554125 564 428 c 1
 472 394 l 1
 465.719460683 410.050267144 449.236349583 437 409.145107838 437 c 0
 373.270789739 437 330 415.421425158 330 335.917824629 c 0
 330 305.127535091 336.49006091 230 410.796466813 230 c 0
 439.657077518 230 460.333333333 241.333333333 473 264 c 1
 563 231 l 1
123 334.057530818 m 0
 123 182.656094983 244.906547271 57 398.764308853 57 c 0
 550.851440966 57 675 179.780579989 675 333.103009247 c 0
 675 485.630598379 552.135303703 610 399.395460128 610 c 0
 247.558787492 610 123 487.097075296 123 334.057530818 c 0
745 334.218475975 m 0
 745 143.528637544 590.282550546 -12 399.118685809 -12 c 0
 208.991650346 -12 53 141.846108945 53 332.736180205 c 0
 53 521.680775198 205.828242344 679 398.099893353 679 c 0
 587.229416639 679 745 526.780622196 745 334.218475975 c 0
EndSplineSet
EndChar

StartChar: questiondown
Encoding: 191 191 148
Width: 614
GlyphClass: 1
Flags: W
HStem: -172 122<227.985 396.671> 324 195<289.877 410.591>
VStem: 50 156<-26.8711 44.3968> 253 194<360.994 483.633>
LayerCount: 2
Fore
SplineSet
574 -28 m 1
 556.819480323 -70.9512991914 496.321695175 -172 313.379822054 -172 c 0
 214.039633263 -172 50 -142.204240975 50 0.926370625622 c 0
 50 89.8851257046 113.366705577 133.478249557 187.808749901 168.420433627 c 0
 234.842522288 190.497510462 267.886668264 211.536680241 273 255 c 2
 274 265 l 1
 428 265 l 1
 428 253 l 1
 425.85979862 150.270333764 381.071705234 120.924780553 235.235747846 50.410691266 c 0
 235.234610049 50.4101411227 206 36.2747252744 206 7.64522357955 c 0
 206 -27.0168099163 248.852661704 -50 311.222541589 -50 c 0
 337.15702714 -50 413.727909509 -46.026110665 437 22 c 1
 574 -28 l 1
447 421.42852806 m 0
 447 366.949679678 404.984819718 324 350.55162414 324 c 0
 296.314086818 324 253 366.641472293 253 421.381706178 c 0
 253 475.695630166 295.642064789 519 350.496120323 519 c 0
 405.377804324 519 447 475.65199676 447 421.42852806 c 0
EndSplineSet
EndChar

StartChar: germandbls
Encoding: 223 223 149
Width: 621
GlyphClass: 1
Flags: W
HStem: -12 126<316.327 412.547> 0 21G<44 197> 298 117<278 388.236> 556 123<234.402 388.089>
VStem: 44 153<0 518.858> 410 147<436.028 532.169> 443 156<144.211 261.561>
LayerCount: 2
Fore
SplineSet
599 200.883581923 m 0x7a
 599 127.258626762 570.216849001 -12 345.97115693 -12 c 0
 335 -12 325.666666667 -11.6666666667 319 -11 c 1
 278 123 l 1
 300 117 320.36230267 114 337.790452157 114 c 0
 362.695989247 114 443 120.126473024 443 201.07534677 c 0xba
 443 238.603622151 425.740316459 298 309 298 c 2
 278 298 l 1
 278 415 l 1
 304 415 l 2
 374.666666667 415 410 438.047973491 410 485.106984609 c 0
 410 521.233469729 389.176657813 556 310.060168645 556 c 0
 217.864276709 556 197 508.788208957 197 424 c 2
 197 0 l 1
 44 0 l 1
 44 435 l 2
 44 507.930092146 52.6353639482 679 300.816142409 679 c 0
 371.976508992 679 557 664.935843516 557 499.783544379 c 0x7c
 557 479.287764659 554.150382872 412.627825441 504 370 c 1
 549.121618893 346.311150081 599 297.803279406 599 200.883581923 c 0x7a
EndSplineSet
EndChar

StartChar: AE
Encoding: 198 198 150
Width: 1016
GlyphClass: 1
Flags: W
HStem: 0 139<639 994> 119 128<341 481> 275 138<639 857> 528 139<639 994>
DStem2: 5 0 177 0 0.580892 0.813981<99.9134 243.248 396.233 602.496>
AnchorPoint: "Anchor-0" 698 668 basechar 0
LayerCount: 2
Fore
SplineSet
341 247 m 1x70
 481 247 l 1
 481 453 l 1
 341 247 l 1x70
5 0 m 1xb0
 481 667 l 1
 994 667 l 1
 994 528 l 1
 639 528 l 1
 639 413 l 1
 857 413 l 1
 857 275 l 1
 639 275 l 1
 639 139 l 1
 994 139 l 1
 994 0 l 1
 481 0 l 1xb0
 481 119 l 1
 257 119 l 1x70
 177 0 l 1
 5 0 l 1xb0
EndSplineSet
EndChar

StartChar: florin
Encoding: 279 402 151
Width: 377
GlyphClass: 1
Flags: W
HStem: -174 141<16.1855 144.765> 381 115<15 97 249 357> 608 121<252.407 357>
VStem: 97 152<-25.0231 381 496 603.606>
LayerCount: 2
Fore
SplineSet
249 -16 m 2
 249 -120.130510897 194.254993118 -174 95.2755569704 -174 c 0
 78.7343622999 -174 51.1059565742 -172.495519194 15 -164 c 1
 15 -31 l 1
 29.6715476818 -32.8339434602 40.1602795928 -33 43.6197381873 -33 c 0
 89.0959730148 -33 97 -4.30483602328 97 39 c 2
 97 381 l 1
 15 381 l 1
 15 496 l 1
 97 496 l 1
 97 578 l 2
 97 693.396985814 154.351088368 729 288 729 c 2
 357 729 l 1
 357 608 l 1
 315 608 l 2
 261.877832628 608 249 600.220677339 249 564 c 2
 249 496 l 1
 357 496 l 1
 357 381 l 1
 249 381 l 1
 249 -16 l 2
EndSplineSet
EndChar

StartChar: integral
Encoding: 280 8747 152
Width: 486
GlyphClass: 1
Flags: W
HStem: -174 144<82.0889 142.015> 536 144<344.579 406.589>
VStem: 171.223 135.777<194.136 569.965> 180 134.863<-52.8653 303.951>
LayerCount: 2
Fore
SplineSet
389.28229929 536 m 0xe0
 356.820853007 536 333 561.032119878 333 592.260007142 c 0
 333 598.658297552 334 605 336 611 c 1
 316.666666667 601.666666667 307 565.473027616 307 494.200671073 c 0xe0
 307 432.999367971 314.127805571 248.174553997 314.863239288 162.864242672 c 0
 316.41227258 -16.8236192043 292.786045955 -124.377408876 204.572436597 -162.183241458 c 0
 186.207862186 -170.053773349 167.147367097 -174 149.252651427 -174 c 0
 66.3369442605 -174 11.8996562479 -89.2760804943 58.8961794843 -45.1278313936 c 0
 69.6053238321 -35.0677260971 82.509798133 -30 96.9769902147 -30 c 0
 129.04404079 -30 154 -54.8978973491 154 -86.3999019364 c 0
 154 -92.7058596894 153 -99 151 -105 c 1
 173.084682128 -94.6072084101 180 -60.3674467252 180 6.39571574966 c 0xd0
 180 74.5168109725 172.800512359 266.1405664 171.223196574 449.109197369 c 0
 171.223180745 449.111033632 169.232758621 680 331.809901121 680 c 0
 431.614167656 680 468.987344639 592.987344639 427.64166437 551.64166437 c 0
 417.311322072 541.311322072 404.23502508 536 389.28229929 536 c 0xe0
EndSplineSet
EndChar

StartChar: approxequal
Encoding: 281 8776 153
Width: 532
GlyphClass: 1
Flags: W
HStem: 59 123<289.456 379.109> 118 125<152.641 252.536> 257 123<288.863 378.582> 317 124<152.486 250.79>
VStem: 387 104<187.231 208.558 385.622 406.49>
LayerCount: 2
Fore
SplineSet
185.977869062 118 m 0x48
 163.091230304 118 146.310092732 106.783523834 145 57 c 1
 41 95 l 1
 50.1163665699 183.558989536 84.9895730239 243 168.383303928 243 c 0x48
 252.863561563 243 300.522133106 182 346.753181123 182 c 0
 367.852649924 182 385.702786818 194.705899068 387 244 c 1
 491 206 l 1
 482.739886867 124.578884834 452.828123914 59 370.880477664 59 c 0x88
 293.151943761 59 238.468259318 118 185.977869062 118 c 0x48
185.942735039 317 m 0x18
 163.065872588 317 146.310267387 305.790160712 145 256 c 1
 41 294 l 1
 50.0421357956 381.837890586 84.5152295462 441 168.111314761 441 c 0x18
 252.995939367 441 300.476757846 380 346.601175346 380 c 0x28
 367.948436416 380 385.704494386 393.066292279 387 441 c 1x18
 491 404 l 1
 482.820559838 324.542581281 453.244030971 257 369.662547602 257 c 0x28
 290.886012906 257 238.869139705 317 185.942735039 317 c 0x18
EndSplineSet
EndChar

StartChar: notequal
Encoding: 282 8800 154
Width: 594
GlyphClass: 1
Flags: W
HStem: 0 21G<47 214.167> 96 129<41 114 357 553> 283 127<41 245 487 553> 475 20G<380.118 547>
LayerCount: 2
Fore
SplineSet
47 0 m 1
 114 96 l 1
 41 96 l 1
 41 225 l 1
 204 225 l 1
 245 283 l 1
 41 283 l 1
 41 410 l 1
 335 410 l 1
 394 495 l 1
 547 495 l 1
 487 410 l 1
 553 410 l 1
 553 283 l 1
 397 283 l 1
 357 225 l 1
 553 225 l 1
 553 96 l 1
 268 96 l 1
 200 0 l 1
 47 0 l 1
EndSplineSet
EndChar

StartChar: lessequal
Encoding: 283 8804 155
Width: 594
GlyphClass: 1
Flags: W
HStem: 0 128<41 553> 490 20G<470.419 553>
LayerCount: 2
Fore
SplineSet
41 0 m 1
 41 128 l 1
 553 128 l 1
 553 0 l 1
 41 0 l 1
553 136 m 1
 41 260 l 1
 41 386 l 1
 553 510 l 1
 553 381 l 1
 216 324 l 1
 553 265 l 1
 553 136 l 1
EndSplineSet
EndChar

StartChar: greaterequal
Encoding: 284 8805 156
Width: 594
GlyphClass: 1
Flags: W
HStem: 0 128<41 553> 490 20G<41 123.581>
LayerCount: 2
Fore
SplineSet
41 0 m 1
 41 128 l 1
 553 128 l 1
 553 0 l 1
 41 0 l 1
41 136 m 1
 41 265 l 1
 378 324 l 1
 41 381 l 1
 41 510 l 1
 553 386 l 1
 553 260 l 1
 41 136 l 1
EndSplineSet
EndChar

StartChar: lozenge
Encoding: 285 9674 157
Width: 607
GlyphClass: 1
Flags: W
DStem2: 41 313 179 313 0.546521 0.837445<75.4199 302.012> 179 313 41 313 0.545572 -0.838064<0 226.591> 304 716 304 502 0.545061 -0.838396<179.417 405.461> 304 124 304 -91 0.544112 0.839013<0 226.043>
LayerCount: 2
Fore
SplineSet
304 124 m 1
 428 313 l 1
 304 502 l 1
 179 313 l 1
 304 124 l 1
304 -91 m 1
 41 313 l 1
 304 716 l 1
 566 313 l 1
 304 -91 l 1
EndSplineSet
EndChar

StartChar: summation
Encoding: 286 8721 158
Width: 617
GlyphClass: 1
Flags: W
HStem: -162 128<211 576> 540 128<211 576>
DStem2: 211 540 41 540 0.641239 -0.767341<0 262.423> 41 -34 211 -34 0.638606 0.769534<108.563 372.975>
LayerCount: 2
Fore
SplineSet
41 -162 m 1
 41 -34 l 1
 278 254 l 1
 41 540 l 1
 41 668 l 1
 576 668 l 1
 576 540 l 1
 211 540 l 1
 450 254 l 1
 211 -34 l 1
 576 -34 l 1
 576 -162 l 1
 41 -162 l 1
EndSplineSet
EndChar

StartChar: minus
Encoding: 287 8722 159
Width: 594
GlyphClass: 1
Flags: W
HStem: 184 128<41 553>
LayerCount: 2
Fore
SplineSet
41 184 m 1
 41 312 l 1
 553 312 l 1
 553 184 l 1
 41 184 l 1
EndSplineSet
EndChar

StartChar: uni2215
Encoding: 288 8725 160
Width: 651
GlyphClass: 1
Flags: W
HStem: 0 21G<15 182.012> 648 20G<468.988 636>
VStem: 15 153<0 153> 483 153<515 668>
DStem2: 15 0 168 0 0.573791 0.819001<87.7901 815.627>
LayerCount: 2
Fore
SplineSet
15 0 m 1
 483 668 l 1
 636 668 l 1
 168 0 l 1
 15 0 l 1
EndSplineSet
EndChar

StartChar: uni2219
Encoding: 289 8729 161
Width: 277
GlyphClass: 1
Flags: W
HStem: 157 194<78.7472 199.015>
VStem: 41 195<194.629 315.08>
LayerCount: 2
Fore
SplineSet
236 255.466795422 m 0
 236 200.977392669 192.856525421 157 139.038847622 157 c 0
 85.452105686 157 41 200.600781579 41 255.391644745 c 0
 41 310.050191372 85.2376667669 351 139.123654214 351 c 0
 193.22411406 351 236 309.723572822 236 255.466795422 c 0
EndSplineSet
EndChar

StartChar: radical
Encoding: 290 8730 162
Width: 709
GlyphClass: 1
Flags: W
HStem: -162 21G<284.373 454.277> 93 132<41 183> 648 20G<518.679 668>
VStem: 524 144<524 668>
DStem2: 354 29 449 -162 0.255124 0.966908<0 661.226>
LayerCount: 2
Fore
SplineSet
293 -162 m 1
 183 93 l 1
 41 93 l 1
 41 225 l 1
 274 225 l 1
 354 29 l 1
 524 668 l 1
 668 668 l 1
 449 -162 l 1
 293 -162 l 1
EndSplineSet
EndChar

StartChar: infinity
Encoding: 291 8734 163
Width: 749
GlyphClass: 1
Flags: W
HStem: 97 107<171.392 277.652 471.327 576.395> 306 106<172.135 278.689 470.435 578.328>
VStem: 41 120<216.473 293.773> 588 120<215.671 294.608>
LayerCount: 2
Fore
SplineSet
441 256 m 1
 465.096850061 226.233302865 493.793919646 204 528.910403796 204 c 0
 564.191487082 204 588 226.442216668 588 255.948259337 c 0
 588 287.773292844 560.30202129 306 528.281872221 306 c 0
 513.523863107 306 480.208938552 302.128163002 441 256 c 1
161 255.593792988 m 0
 161 226.579196918 184.784287359 204 220.127103507 204 c 0
 255.366686472 204 284.07653625 226.447485956 308 256 c 1
 275.751424228 293.939500909 246.747069008 306 221.098761587 306 c 0
 188.942503163 306 161 287.042595375 161 255.593792988 c 0
374 176 m 1
 331.655020008 130.923085815 282.338699782 97 211.926266978 97 c 0
 112.068299914 97 41 165.227913795 41 254.318642302 c 0
 41 350.045254175 123.04956477 412 216.074517754 412 c 0
 281.935079262 412 331.778602572 380.945358553 374 336 c 1
 424.058208164 387.622527169 474.614610375 412 532.500239804 412 c 0
 623.086058059 412 708 352.300927441 708 255.403375044 c 0
 708 170.008504601 642.049672525 97 537.664364934 97 c 0
 466.523932983 97 416.357279449 130.909992844 374 176 c 1
EndSplineSet
EndChar

StartChar: uni03A9
Encoding: 292 937 164
Width: 656
GlyphClass: 1
Flags: W
HStem: 0 115<35 172 484 621> 564 116<246.761 408.277>
VStem: 35 121<309.843 474.008> 353 268<0 115> 499 122<308.848 472.752>
LayerCount: 2
Fore
SplineSet
156 393.423507242 m 0xe8
 156 305.277610326 221.265405012 234.961160242 303 223 c 1
 303 0 l 1
 35 0 l 1
 35 115 l 1
 172 115 l 1
 172 139 l 1
 139.83359198 159.565408406 35 238.062567387 35 384.440478696 c 0
 35 547.418302702 164.959013177 680 327.14535961 680 c 0
 486.467018225 680 621 552.060505248 621 391.8772408 c 0xe8
 621 349.195214922 611.448215024 219.169038483 484 139 c 1
 484 115 l 1
 621 115 l 1
 621 0 l 1
 353 0 l 1
 353 223 l 1xf0
 437.70084843 235.100121204 499 306.813271683 499 392.463885042 c 0
 499 487.534710427 423.475468901 564 328.136345663 564 c 0
 234.346603841 564 156 489.999831131 156 393.423507242 c 0xe8
EndSplineSet
EndChar

StartChar: estimated
Encoding: 293 8494 165
Width: 604
GlyphClass: 1
Flags: W
HStem: -12 70<213.733 388.71> 249 66<178 426> 440 70<216.206 390.307>
VStem: 41 137<146.462 249 315 350.147>
LayerCount: 2
Fore
SplineSet
300.931542024 440 m 0
 286.380469338 440 228.764604076 438.672851587 178 394 c 1
 178 315 l 1
 426 315 l 1
 426 394 l 1
 391.333333333 424.666666667 350.3914783 440 300.931542024 440 c 0
518 103 m 1
 497.214927379 72.1193206768 428.973257512 -12 304.440693995 -12 c 0
 158.567552208 -12 41 103.419868194 41 248.194618873 c 0
 41 392.895019747 158.446828394 510 301.431322346 510 c 0
 440.03402991 510 563 399.962451013 563 249 c 1
 178 249 l 1
 178 104 l 1
 199.052495165 85.4738042551 240.703286305 58 301.478190392 58 c 0
 361.839805385 58 415.144898205 85.1014131756 450 128 c 1
 518 103 l 1
EndSplineSet
EndChar

StartChar: partialdiff
Encoding: 294 8706 166
Width: 597
GlyphClass: 1
Flags: W
HStem: 315 120<233.79 358.997> 560 120<172 332.359>
VStem: 41 151<151.429 274.81>
LayerCount: 2
Fore
SplineSet
192 211.468261525 m 0
 192 152.96907491 238.097275431 107 295.930843213 107 c 0
 353.531038612 107 399 152.598830842 399 211.439338825 c 0
 399 270.078494784 353.841695439 315 295.911792079 315 c 0
 237.781024 315 192 269.766435266 192 211.468261525 c 0
172 680 m 1
 296.806007575 680 556 680 556 254.870913472 c 0
 556 254.870913472 556 64.7349397589 392.410009835 5.60602765095 c 0
 256.267958447 -43.6019427301 41 10.2750924865 41 205.435089464 c 0
 41 332.380344304 132.081616586 435 263.919006594 435 c 0
 285.882424688 435 383.421605213 432.151913223 442 356 c 1
 430.028325856 544.553867767 292.458812147 567.227528729 172 560 c 1
 172 680 l 1
EndSplineSet
EndChar

StartChar: uni0394
Encoding: 295 916 167
Width: 715
GlyphClass: 1
Flags: W
HStem: 0 115<229 485> 660 20G<347.706 366.324>
DStem2: 41 0 229 115 0.421425 0.906863<183.517 512.239> 357 680 357 418 0.422521 -0.906353<237.465 566.172>
LayerCount: 2
Fore
SplineSet
229 115 m 1
 485 115 l 1
 357 418 l 1
 229 115 l 1
41 0 m 1
 357 680 l 1
 674 0 l 1
 41 0 l 1
EndSplineSet
EndChar

StartChar: product
Encoding: 296 8719 168
Width: 614
GlyphClass: 1
Flags: W
HStem: -161 21G<41 169 445 573> 552 116<169 445>
VStem: 41 128<-161 552> 445 128<-161 552>
LayerCount: 2
Fore
SplineSet
41 -161 m 1
 41 668 l 1
 573 668 l 1
 573 -161 l 1
 445 -161 l 1
 445 552 l 1
 169 552 l 1
 169 -161 l 1
 41 -161 l 1
EndSplineSet
EndChar

StartChar: pi
Encoding: 297 960 169
Width: 626
GlyphClass: 1
Flags: W
HStem: 0 105<519.053 602> 380 116<13 104 232 386 514 602>
VStem: 104 128<0 380> 386 128<109.388 380>
LayerCount: 2
Fore
SplineSet
524 0 m 2
 417.279558714 0 386 23.9614957146 386 118 c 2
 386 380 l 1
 232 380 l 1
 232 0 l 1
 104 0 l 1
 104 380 l 1
 13 380 l 1
 13 496 l 1
 602 496 l 1
 602 380 l 1
 514 380 l 1
 514 151 l 2
 514 113.206579281 527.859342085 105 569 105 c 2
 602 105 l 1
 602 0 l 1
 524 0 l 2
EndSplineSet
EndChar

StartChar: hungarumlaut
Encoding: 298 733 170
Width: 490
GlyphClass: 1
Flags: W
HStem: 574 153<146.003 151 349.003 354>
LayerCount: 2
Fore
SplineSet
391.88847256 727 m 0
 423.98304384 727 448 703.490129267 448 669.988545357 c 0
 448 662.763295429 446.882897476 641.518028233 429 629 c 2
 354 574 l 1
 240 574 l 1
 349 707 l 2
 360.333333333 720.333333333 374.797734083 727 391.88847256 727 c 0
188.88847256 727 m 0
 220.98304384 727 245 703.490129267 245 669.988545357 c 0
 245 662.763295429 243.882897476 641.518028233 226 629 c 2
 151 574 l 1
 37 574 l 1
 146 707 l 2
 157.333333333 720.333333333 171.797734083 727 188.88847256 727 c 0
EndSplineSet
EndChar

StartChar: tilde
Encoding: 299 732 171
Width: 444
GlyphClass: 1
Flags: W
HStem: 569 79<230.749 328.788> 607 82<130.376 225.144>
LayerCount: 2
Fore
SplineSet
407 649.939033981 m 0x40
 407 612.937144771 355.807091302 569 292.087978415 569 c 0x80
 232.830167541 569 200.041333323 607 166.552250137 607 c 0
 147.989158237 607 129.998332552 595.324440279 126 574 c 1
 37 574 l 1
 44.2198204348 618.12112488 68.4746954142 689 157.704694549 689 c 0x40
 225.569468819 689 245.547699656 648 285.675996179 648 c 0x80
 325.804292701 648 330.309123646 689 366.289191751 689 c 0
 389.922988827 689 407 671.310038033 407 649.939033981 c 0x40
EndSplineSet
EndChar

StartChar: endash
Encoding: 300 8211 172
Width: 508
GlyphClass: 1
Flags: W
HStem: 185 128<41 467>
LayerCount: 2
Fore
SplineSet
41 185 m 1
 41 313 l 1
 467 313 l 1
 467 185 l 1
 41 185 l 1
EndSplineSet
EndChar

StartChar: emdash
Encoding: 301 8212 173
Width: 842
GlyphClass: 1
Flags: W
HStem: 185 128<41 801>
LayerCount: 2
Fore
SplineSet
41 185 m 1
 41 313 l 1
 801 313 l 1
 801 185 l 1
 41 185 l 1
EndSplineSet
EndChar

StartChar: trademark
Encoding: 302 8482 174
Width: 935
GlyphClass: 1
Flags: W
HStem: 301 367<162 271 415 522 787 894> 575 93<41 162 271 391>
VStem: 162 109<301 575> 415 107<301 558> 787 107<301 558>
DStem2: 654 432 703 301 0.310675 0.950516<0 161.085>
LayerCount: 2
Fore
SplineSet
162 301 m 1xb8
 162 575 l 1
 41 575 l 1
 41 668 l 1
 391 668 l 1
 391 575 l 1
 271 575 l 1x78
 271 301 l 1
 162 301 l 1xb8
415 301 m 1xb8
 415 668 l 1xb8
 588 668 l 1
 654 432 l 1
 721 668 l 1x78
 894 668 l 1
 894 301 l 1
 787 301 l 1
 787 558 l 1
 703 301 l 1
 606 301 l 1
 522 558 l 1
 522 301 l 1
 415 301 l 1xb8
EndSplineSet
EndChar

StartChar: uni2113
Encoding: 303 8467 175
Width: 504
GlyphClass: 1
Flags: W
HStem: -12 122<272.099 384.133> 573 107<266.764 332.712>
VStem: 106 151<123.271 157 265 279.262 373 564.683> 339 124<442.882 567.7>
LayerCount: 2
Fore
SplineSet
298.766270909 573 m 0
 268.947273546 573 257 549.581496211 257 501 c 2
 257 373 l 1
 311.666666667 414.333333333 339 462.083831532 339 516.167676804 c 0
 339 554.083831532 325.565978219 573 298.766270909 573 c 0
455 52 m 1
 427.746054485 27.2236858957 367.148022927 -12 278.059532223 -12 c 0
 187.148413144 -12 114.081050607 28.8450288566 106 144 c 1
 106 157 l 1
 41 112 l 1
 41 218 l 1
 106 265 l 1
 106 452 l 2
 106 522.684268327 116.714949617 680 292.228348291 680 c 0
 340.664982968 680 463 668.018821876 463 531.097491601 c 0
 463 440.779128115 409.769482714 374.556862491 257 264 c 1
 257 191 l 2
 257 130.95152747 278.929967453 110 321.493316506 110 c 0
 328.076018448 110 360.462932192 110.501132406 398 141 c 1
 455 52 l 1
EndSplineSet
EndChar

StartChar: Lslash
Encoding: 304 321 176
Width: 586
GlyphClass: 1
Flags: W
HStem: 0 139<251 571> 416 122<289 411> 648 20G<93 251>
VStem: 93 158<139 226 441 668>
DStem2: 13 300 93 226 0.858253 0.513227<0 30.6815 276.629 401.119>
LayerCount: 2
Fore
SplineSet
93 0 m 1
 93 226 l 1
 13 178 l 1
 13 300 l 1
 93 347 l 1
 93 668 l 1
 251 668 l 1
 251 441 l 1
 411 538 l 1
 411 416 l 1
 251 321 l 1
 251 139 l 1
 571 139 l 1
 571 0 l 1
 93 0 l 1
EndSplineSet
EndChar

StartChar: lslash
Encoding: 305 322 177
Width: 322
GlyphClass: 1
Flags: W
HStem: 0 124<218.233 319> 485 20G<286.077 319> 648 20G<59 212>
VStem: 59 153<133.779 228 440 668>
LayerCount: 2
Fore
SplineSet
212 179 m 2
 212 134.600799995 226.709401807 124 277 124 c 2
 319 124 l 1
 319 0 l 1
 224 0 l 2
 99.6719568763 0 59 26.2820971941 59 139 c 2
 59 228 l 1
 5 195 l 1
 5 317 l 1
 59 349 l 1
 59 668 l 1
 212 668 l 1
 212 440 l 1
 319 505 l 1
 319 383 l 1
 212 319 l 1
 212 179 l 2
EndSplineSet
EndChar

StartChar: oslash
Encoding: 248 248 178
Width: 573
GlyphClass: 1
Flags: W
HStem: -12 118<224.519 349.261> 392 118<222.148 341.338>
VStem: 24 155<194.523 345.687> 394 155<153.532 314.046>
DStem2: 36 22 92 -26 0.653148 0.75723<0.229281 74.0403 227.563 451.228 600.31 662.943>
AnchorPoint: "Anchor-0" 287 496 basechar 0
LayerCount: 2
Fore
SplineSet
286.425443044 106 m 0
 335.639444745 106 394 131.48896657 394 250.818676222 c 0
 394 276.747544034 391.244570177 297.644004382 386 316 c 1
 223 126 l 1
 240.333333333 112.666666667 261.256386493 106 286.425443044 106 c 0
286.707010188 392 m 0
 245.663117751 392 179 372.895430544 179 249.958888526 c 0
 179 228.665088056 181 210 185 194 c 1
 342 377 l 1
 326 387 307.704380886 392 286.707010188 392 c 0
549 249.460325877 m 0
 549 58.7333489954 409.748168129 -12 281.612299576 -12 c 0
 271.269966695 -12 202.908113198 -11.5391922115 138 27 c 1
 92 -26 l 1
 36 22 l 1
 82 75 l 1
 33.0635103355 132.998802565 24 201.64018045 24 250.34848207 c 0
 24 441.17401657 163.111628915 510 287.238632157 510 c 0
 328.745241877 510 379.033538162 502.30418875 427 476 c 1
 469 524 l 1
 525 476 l 1
 486 431 l 1
 526.973239431 385.788149593 549 325.315809579 549 249.460325877 c 0
EndSplineSet
EndChar

StartChar: Oslash
Encoding: 216 216 179
Width: 763
GlyphClass: 1
Flags: W
HStem: -12 130<298.185 459.749> 549 130<297.846 465.533>
VStem: 35 167<222.956 442.692> 560 168<224.587 446.082>
DStem2: 70 36 126 -12 0.652053 0.758174<0.122628 79.9585 238.95 621.956 777.62 848.091>
AnchorPoint: "Anchor-0" 382 668 basechar 0
LayerCount: 2
Fore
SplineSet
272 157 m 1
 299.755166646 134.071818857 335.09940746 118 374.468107906 118 c 0
 398.258800738 118 560 123.869174882 560 333.07625046 c 0
 560 383.331846427 550.666666667 425 532 459 c 1
 272 157 l 1
382.657548097 549 m 0
 286.806044166 549 202 479.029229502 202 335.346834111 c 0
 202 307.960791289 205.080904611 262.641662667 226 217 c 1
 483 516 l 1
 454.333333333 538 420.662216351 549 382.657548097 549 c 0
728 334.047368793 m 0
 728 129.79949968 588.587694475 -12 381.131639364 -12 c 0
 301.425972073 -12 231.602712411 8.9315250595 176 46 c 1
 126 -12 l 1
 70 36 l 1
 120 95 l 1
 70.845483968 149.069967635 35 229.243801087 35 333.625324725 c 0
 35 538.192527712 172.676304117 679 380.870453401 679 c 0
 455.476683912 679 522.936500462 660.91831678 578 626 c 1
 623 679 l 1
 679 631 l 1
 635 579 l 1
 686.918071599 525.901972228 728 444.922051569 728 334.047368793 c 0
EndSplineSet
EndChar

StartChar: Thorn
Encoding: 222 222 180
Width: 615
GlyphClass: 1
Flags: W
HStem: 0 21G<44 203> 128 141<203 402.594> 425 137<203 401.464> 647 20G<44 203>
VStem: 44 159<0 128 269 425 562 667> 426 167<293.942 400.947>
LayerCount: 2
Fore
SplineSet
426 346.200467644 m 0
 426 406.760868311 386.411881378 425 296 425 c 2
 203 425 l 1
 203 269 l 1
 296 269 l 2
 392.421462821 269 426 290.425773858 426 346.200467644 c 0
593 345.539476082 m 0
 593 206.40582797 517.05500026 128 291 128 c 2
 203 128 l 1
 203 0 l 1
 44 0 l 1
 44 667 l 1
 203 667 l 1
 203 562 l 1
 291 562 l 2
 536.373078714 562 593 465.681254197 593 345.539476082 c 0
EndSplineSet
EndChar

StartChar: ae
Encoding: 230 230 181
Width: 883
GlyphClass: 1
Flags: W
HStem: -12 118<535.496 689.226> -12 103<195.387 322.691> 209 90<208.271 353 493 719> 396 114<535.926 681.63> 407 103<207.578 335.238>
VStem: 24 157<104.574 185.621> 353 139<150.148 209 300 354.157>
AnchorPoint: "Anchor-0" 447 496 basechar 0
LayerCount: 2
Fore
SplineSet
181 146.755558694 m 0x66
 181 112.767201191 207.352794656 91 254.539270676 91 c 0
 295.892107841 91 356 107.717761486 356 201 c 2
 356 209 l 1
 238.838398268 210.428800021 181 197.108514261 181 146.755558694 c 0x66
719 299 m 1
 717.629950169 364.762391891 666.852779889 396 611.085453966 396 c 0x36
 582.91491297 396 504.219677506 388.029078972 492 299 c 1
 719 299 l 1
405 67 m 1
 353.871984184 5.89578597617 282.89006172 -12 218.387721606 -12 c 0
 102.431302923 -12 24 45.8348245934 24 137.536882418 c 0
 24 261.141021868 166.494236071 300 353 300 c 1
 353 329 l 2
 353 364.456160185 342.008936251 407 272.128682639 407 c 0
 253.584989172 407 198.934439716 404.004148935 184 348 c 1
 56 394 l 1
 72.3332304346 426.666460869 129.405781127 510 288.448497639 510 c 0x6e
 347.175332053 510 407.543992492 498.637721257 447 462 c 1
 492.333333333 494 545.245623526 510 604.18220317 510 c 0
 764.01242099 510 871.41644409 392.329415976 861 209 c 1
 493 209 l 1
 496.63169543 146.050612552 543.183963083 106 609.32936246 106 c 0
 626.144486699 106 676.73900569 108.588272736 709 143 c 1
 829 99 l 1
 795.79716669 49.6214273849 729.395508231 -12 604.139698332 -12 c 0xb6
 522.25836222 -12 455.666666667 14.3333333333 405 67 c 1
EndSplineSet
EndChar

StartChar: eth
Encoding: 240 240 182
Width: 589
GlyphClass: 1
Flags: W
HStem: -12 113<218.252 352.017> 338 114<221.472 352.972> 604 122<163 274.496>
VStem: 24 156<143.87 295.262> 394 160<170.293 383.103 403 470.298>
DStem2: 223 530 271 483 0.705367 0.708842<0.542056 74.9531 220.453 287.627>
LayerCount: 2
Fore
SplineSet
180 223.686732347 m 0
 180 201.338641595 184.539244359 101 283.933941527 101 c 0
 351.826315284 101 394 147.814864883 394 219.543600469 c 0
 394 292.604376935 350.245395427 338 286.301645443 338 c 0
 221.310751854 338 180 291.1054045 180 223.686732347 c 0
554 315.787526694 m 0
 554 241.57274429 540.22569872 -12 285.791443763 -12 c 0
 135.245098586 -12 24 76.7752374107 24 217.486144693 c 0
 24 351.519386899 124.93700282 452 259.967138726 452 c 0
 294.562587384 452 349.90833502 445.404331782 396 403 c 1
 395.333333333 463.666666667 374.666666667 511.666666667 334 547 c 1
 271 483 l 1
 223 530 l 1
 276 583 l 1
 244 597 206.333333333 604 163 604 c 1
 163 726 l 1
 249.10559796 726 316.372181897 708.83599541 370 678 c 1
 426 734 l 1
 474 686 l 1
 426 639 l 1
 516.905321974 570.82100852 554 437.577471155 554 315.787526694 c 0
EndSplineSet
EndChar

StartChar: thorn
Encoding: 254 254 183
Width: 596
GlyphClass: 1
Flags: W
HStem: -161 21G<50 202> -12 118<269.931 364.838> 392 118<267.97 362.93> 648 20G<50 202>
VStem: 50 152<-161 70 428 668> 50 145<155.346 344.17> 414 158<160.09 337.49>
LayerCount: 2
Fore
SplineSet
195 254.96004704 m 0xf6
 195 220.155409789 201.257961327 106 299.929955259 106 c 0
 363.587811316 106 414 153.51302751 414 245.928633029 c 0
 414 335.843910433 366.278739861 392 301.030133439 392 c 0
 251.234125932 392 195 359.292795631 195 254.96004704 c 0xf6
358.711077839 -12 m 0
 296.74214011 -12 233.965973389 16.7233776844 202 70 c 1
 202 -161 l 1
 50 -161 l 1
 50 668 l 1
 202 668 l 1
 202 428 l 1xfa
 230.743144062 477.102871106 290.240343112 510 357.619914791 510 c 0
 465.532026339 510 572 425.619540549 572 247.158681449 c 0
 572 63.3929704543 459.108306421 -12 358.711077839 -12 c 0
EndSplineSet
EndChar

StartChar: multiply
Encoding: 215 215 184
Width: 539
GlyphClass: 1
Flags: W
DStem2: 44 112 135 22 0.706133 0.708079<0.531059 192.158 318.904 513.89> 270 337 180 248 0.706133 -0.708079<-195.692 -0.533004 126.746 317.667>
LayerCount: 2
Fore
SplineSet
135 22 m 1
 44 112 l 1
 180 248 l 1
 41 385 l 1
 132 476 l 1
 270 337 l 1
 407 476 l 1
 498 385 l 1
 359 248 l 1
 495 112 l 1
 404 22 l 1
 270 158 l 1
 135 22 l 1
EndSplineSet
EndChar

StartChar: divide
Encoding: 247 247 185
Width: 594
GlyphClass: 1
Flags: W
HStem: -12 159<243.957 349.911> 186 128<41 553> 351 159<242.729 349.916>
VStem: 218 158<14.1042 120.912 377.076 484.439>
LayerCount: 2
Fore
SplineSet
376 67.567883346 m 0
 376 23.7142733275 340.131518574 -12 296.938216244 -12 c 0
 253.582348273 -12 218 23.9836132108 218 67.538582335 c 0
 218 111.285641382 253.896897121 147 296.951731445 147 c 0
 339.803670828 147 376 111.621454484 376 67.567883346 c 0
41 186 m 1
 41 314 l 1
 553 314 l 1
 553 186 l 1
 41 186 l 1
376 431.038850794 m 0
 376 386.588157792 340.129362488 351 296.992752875 351 c 0
 253.912873149 351 218 386.494613836 218 430.959871791 c 0
 218 475.454199777 253.959845984 510 297.047774926 510 c 0
 340.103758644 510 376 475.505405036 376 431.038850794 c 0
EndSplineSet
EndChar

StartChar: OE
Encoding: 306 338 186
Width: 1061
GlyphClass: 1
Flags: W
HStem: -12 130<298.769 465.013> 0 139<683 1039> 275 138<683 901> 528 140<683 1039> 549 131<298.329 466.382>
VStem: 35 167<221.975 445.304> 561 122<223.758 275 413 445.714>
LayerCount: 2
Fore
SplineSet
202 335.001108487 m 0xae
 202 182.892186943 292.452038004 118 381.083717171 118 c 0
 465.733992169 118 561 177.193116042 561 333.338166375 c 0
 561 484.684005257 471.500111948 549 381.564679956 549 c 0
 294.677395305 549 202 488.969799881 202 335.001108487 c 0xae
35 332.929328335 m 0
 35 541.555680101 174.80105762 680 382.356834542 680 c 0xae
 449.140592745 680 509 665.666666667 561 637 c 1
 561 668 l 1
 1039 668 l 1
 1039 528 l 1
 683 528 l 1
 683 413 l 1
 901 413 l 1
 901 275 l 1
 683 275 l 1
 683 139 l 1
 1039 139 l 1
 1039 0 l 1
 561 0 l 1x76
 561 31 l 1
 509 2.33333333333 449 -12 382.517869934 -12 c 0
 180.940668105 -12 35 119.771100845 35 332.929328335 c 0
EndSplineSet
EndChar

StartChar: oe
Encoding: 307 339 187
Width: 937
GlyphClass: 1
Flags: W
HStem: -12 118<222 350.999 590.542 743.375> 209 90<547 773> 392 118<222.552 351.715 585.391 741.854>
VStem: 24 155<154.464 345.842> 394 153<151.473 209 299 343.412>
LayerCount: 2
Fore
SplineSet
179 251.625916977 m 0
 179 198.369465128 191.643417358 106 286.026019672 106 c 0
 341.2994768 106 394 137.679461546 394 246.032162727 c 0
 394 294.380471235 383.507040151 392 287.105710549 392 c 0
 238.007451577 392 179 366.677717843 179 251.625916977 c 0
773 299 m 1
 772.720638042 312.409373986 766.899360543 396 667.342064256 396 c 0
 634.576336059 396 559.070989424 386.945780086 547 299 c 1
 773 299 l 1
473 55 m 1
 460.2644217 43.2970361567 399.892239144 -12 294.656509384 -12 c 0
 248.215894699 -12 24 -1.23110012463 24 246.761043133 c 0
 24 446.119567397 168.89725995 510 286.706212773 510 c 0
 334.896853228 510 413.356931836 499.311010426 475 441 c 1
 497.547992819 461.668993417 557.937639615 510 658.760079877 510 c 0
 814.80965079 510 925.523817539 394.219188689 915 209 c 1
 547 209 l 1
 548.493865251 189.579751733 561.064056977 106 664.563936619 106 c 0
 686.336714782 106 733.616499815 109.69869979 763 143 c 1
 884 99 l 1
 850.141608124 48.6464941327 783.579491482 -12 658.830786842 -12 c 0
 583.128330985 -12 521 10.3333333333 473 55 c 1
EndSplineSet
EndChar

StartChar: Aring
Encoding: 197 197 191
Width: 690
GlyphClass: 2
Flags: W
HStem: 0 21G<5 183.723 506.277 685> 119 128<260 430> 776 85<304.845 383.484>
VStem: 212 85<689.633 768.514> 391 86<689.448 767.54>
DStem2: 247.104 639.231 344 501 0.35419 0.935173<-362.236 -94.9502> 442.601 640.011 344 501 0.35419 -0.935173<95.0763 363.071> 442.601 640.011 430 247 0.35419 -0.935173<95.0763 363.071 498.003 537.862>
AnchorPoint: "Anchor-2" 654 0 basechar 0
AnchorPoint: "Anchor-1" 345 0 basechar 0
AnchorPoint: "Anchor-0" 345 796 basechar 0
LayerCount: 2
Fore
SplineSet
477 729.301323802 m 0
 477 706.401033306 471.213033562 671.955420922 442.600543607 640.011212926 c 1
 685 0 l 1
 513 0 l 1
 473 119 l 1
 217 119 l 1
 177 0 l 1
 5 0 l 1
 247.10390291 639.230858277 l 1
 230.918745583 657.020584303 212 686.944413769 212 728.493089218 c 0
 212 802.731303092 272.399452146 861 344.128987241 861 c 0
 414.859528447 861 477 804.343044183 477 729.301323802 c 0
260 247 m 1
 430 247 l 1
 344 501 l 1
 260 247 l 1
297 729.450696181 m 0
 297 703.25679504 318.232216144 682 344.428520856 682 c 0
 370.423508927 682 391 702.931336666 391 729.517418686 c 0
 391 756.123241017 370.392941268 776 344.374405819 776 c 0
 317.919566308 776 297 755.451026122 297 729.450696181 c 0
EndSplineSet
EndChar

StartChar: Ccedilla
Encoding: 199 199 202
Width: 673
GlyphClass: 2
Flags: W
HStem: -187 50<265.525 369.195> -12 130<366.504 458.056> 550 130<291.121 454.789>
VStem: 35 167<220.6 447.224> 370 94<-134.327 -86.2415>
AnchorPoint: "Anchor-1" 357 -187 basechar 0
AnchorPoint: "Anchor-0" 357 668 basechar 0
LayerCount: 2
Fore
SplineSet
464 -108.066146191 m 0
 464 -164.616683805 400.579036554 -187 336.555295935 -187 c 0
 320.349653946 -187 285.625398249 -185.565915237 249 -174 c 1
 265 -124 l 1
 275.946929407 -129.473464703 302.511497247 -137 326.231955243 -137 c 0
 342.759742832 -137 370 -133.345917 370 -110.447772923 c 0
 370 -92.8570401868 353.923981531 -84 332.48857979 -84 c 0
 309.042721514 -84 301.327304348 -94.5963826088 289.598179618 -87.5589077707 c 0
 279.745684376 -81.6474106255 275.614158735 -68.4252222137 281 -59 c 2
 312.197647184 -8.60380070205 l 1
 244.275083479 -0.131903739831 35 49.0276844059 35 327.424399125 c 0
 35 561.557253199 183.017829072 680 366.496717118 680 c 0
 441.487191125 680 574.63171115 660.21443443 647 525 c 1
 507 474 l 1
 475.120897448 533.411054756 414.435678913 550 370.345187838 550 c 0
 278.795356111 550 202 478.47728326 202 332.234507786 c 0
 202 263.206561618 219.109448884 209.421146122 253.422696156 170.155471409 c 0
 283.776115551 135.421146122 322.391053524 118 371.062787446 118 c 0
 420.663976052 118 481.561297919 136.092861327 512 193 c 1
 651 142 l 1
 625.326480448 96.4295027951 545.669075364 -12 368.891993338 -12 c 0
 368.128400322 -12 367.334465312 -11.9979768903 366.503793331 -11.9939306708 c 2
 344 -48 l 1
 353.333333333 -46 363.384776311 -45 373.813316559 -45 c 0
 397.329560103 -45 464 -50.0849753891 464 -108.066146191 c 0
EndSplineSet
EndChar

StartChar: ccedilla
Encoding: 231 231 203
Width: 520
GlyphClass: 2
Flags: W
HStem: -187 50<177.83 287.357> -11.9266 117.927<284.546 350.881> 392 118<225.216 349.369>
VStem: 24 155<155.788 343.67> 288 94<-134.327 -86.2415>
AnchorPoint: "Anchor-1" 275 -187 basechar 0
AnchorPoint: "Anchor-0" 280 496 basechar 0
LayerCount: 2
Fore
SplineSet
382 -108.066146191 m 0
 382 -164.616683805 318.579036554 -187 254.555295935 -187 c 0
 238.349653946 -187 203.625398249 -185.565915237 167 -174 c 1
 183 -124 l 1
 193.946929407 -129.473464703 220.511497247 -137 244.231955243 -137 c 0
 260.759742832 -137 288 -133.345917 288 -110.447772923 c 0
 288 -92.8570401868 271.923981531 -84 250.48857979 -84 c 0
 227.042721514 -84 219.327304348 -94.5963826088 207.598179618 -87.5589077707 c 0
 197.745684376 -81.6474106255 193.614158735 -68.4252222137 199 -59 c 2
 230.023319844 -8.88540640517 l 1
 93.239157041 9.8123138735 24 116.210571511 24 248.869003511 c 0
 24 418.163270968 136.762983383 510 278.583392591 510 c 0
 342.728121271 510 449.79804961 491.212850831 502 380 c 1
 375 334 l 1
 366.079521947 357.787941475 343.752156477 392 288.896254793 392 c 0
 249.619789391 392 179 374.461304621 179 253.313628233 c 0
 179 206.359847173 189.608094541 106 287.667699496 106 c 0
 313.226376402 106 352.256085823 112.817991393 376 153 c 1
 500 108 l 1
 475.463347878 63.8340261812 415.302689243 -8.99782900746 284.54588813 -11.926578992 c 1
 262 -48 l 1
 271.333333333 -46 281.384776311 -45 291.813316559 -45 c 0
 315.329560103 -45 382 -50.0849753891 382 -108.066146191 c 0
EndSplineSet
EndChar

StartChar: Eth
Encoding: 208 208 248
Width: 773
GlyphClass: 2
Flags: W
HStem: 0 133<289 476.486> 275 137<13 131 289 366> 537 131<289 478.068>
VStem: 131 158<133 275 412 537> 575 163<222.526 445.508>
AnchorPoint: "Anchor-1" 430 0 basechar 0
AnchorPoint: "Anchor-0" 420 668 basechar 0
LayerCount: 2
Fore
SplineSet
575 333.813727559 m 0
 575 471.232704999 515.35540701 537 354 537 c 2
 289 537 l 1
 289 412 l 1
 366 412 l 1
 366 275 l 1
 289 275 l 1
 289 133 l 1
 354 133 l 2
 509.580023956 133 575 189.89531393 575 333.813727559 c 0
738 334.92820602 m 0
 738 190.313069131 686.978484413 0 351 0 c 2
 131 0 l 1
 131 275 l 1
 13 275 l 1
 13 412 l 1
 131 412 l 1
 131 668 l 1
 351 668 l 2
 692.054426513 668 738 472.161318642 738 334.92820602 c 0
EndSplineSet
EndChar

StartChar: one.tf
Encoding: 316 -1 250
Width: 632
GlyphClass: 1
Flags: W
HStem: 0 124<101 253 404 532> 448 123<101 232.492> 648 20G<272.078 404>
VStem: 253 151<124 448>
LayerCount: 2
Fore
SplineSet
101 571 m 1
 214.018054331 571 255.156990047 583.392475118 289 668 c 1
 404 668 l 1
 404 124 l 1
 532 124 l 1
 532 0 l 1
 101 0 l 1
 101 124 l 1
 253 124 l 1
 253 448 l 1
 101 448 l 1
 101 571 l 1
EndSplineSet
Substitution2: "'pnum' Proportional Numbers lookup 13 subtable" one
Substitution2: "'aalt' Access All Alternates lookup 0 subtable" one
EndChar

StartChar: Aogonek
Encoding: 327 260 261
Width: 690
GlyphClass: 2
Flags: W
HStem: -174 76<591.982 684.337> 0 21G<5 183.723> 119 128<260 430> 648 20G<250.425 439.575>
VStem: 464 126<-94.366 -40.9349>
DStem2: 5 0 177 0 0.35419 0.935173<60.9207 186.374 321.306 484.629> 432 668 344 501 0.35419 -0.935173<125.005 393> 685 0 473 119 0.35419 -0.935173<-558.903 -321.306 -186.374 -60.9207>
AnchorPoint: "Anchor-2" 654 0 basechar 0
AnchorPoint: "Anchor-1" 345 0 basechar 0
AnchorPoint: "Anchor-0" 345 668 basechar 0
LayerCount: 2
Fore
SplineSet
260 247 m 1
 430 247 l 1
 344 501 l 1
 260 247 l 1
685 -164 m 1
 670.278294927 -169.353347299 633.134650941 -174 602.27883684 -174 c 0
 505.443920018 -174 464 -128.235348163 464 -83.9028623163 c 0
 464 -39.7734314053 505.065140442 -12.0832322768 544 0 c 1
 513 0 l 1
 473 119 l 1
 217 119 l 1
 177 0 l 1
 5 0 l 1
 258 668 l 1
 432 668 l 1
 685 0 l 1
 626.859275864 -29.0703620681 590 -47.5 590 -71.0301935072 c 0
 590 -89.8730901104 613.636933394 -98 635.769375552 -98 c 0
 656.016370061 -98 671.807421055 -91.1987631574 685 -89 c 1
 685 -164 l 1
EndSplineSet
EndChar

StartChar: aogonek
Encoding: 328 261 262
Width: 553
GlyphClass: 2
Flags: W
HStem: -174 76<426.982 519.337> -12 104<193.217 301.7> 220 90<230.945 353> 407 103<208.255 333.339>
VStem: 24 157<106.393 182.71> 299 126<-94.366 -40.9349> 356 147<126.909 220 309.124 382.94>
AnchorPoint: "Anchor-2" 518 0 basechar 0
AnchorPoint: "Anchor-1" 277 0 basechar 0
AnchorPoint: "Anchor-0" 285 496 basechar 0
LayerCount: 2
Fore
SplineSet
181 145.588625191 m 0xfa
 181 113.221442585 209.539752522 92 257.230348851 92 c 0
 317.901313619 92 356 126.345607225 356 208 c 2
 356 220 l 1
 246.522055232 210.299422616 181 194.631232643 181 145.588625191 c 0xfa
520 -164 m 1
 505.278294927 -169.353347299 468.134650941 -174 437.27883684 -174 c 0
 340.443920018 -174 299 -128.235348163 299 -83.9028623163 c 0xfc
 299 -39.7734314053 340.065140442 -12.0832322768 379 0 c 1
 361 60 l 1
 337.045961394 26.6354462273 289.91729589 -12 202.7986763 -12 c 0
 96.4571550127 -12 24 45.5664833296 24 135.230156792 c 0
 24 230.659042549 106.074440027 291.995011252 353 310 c 1
 353 376.458200199 336.21732681 407 275.321348477 407 c 0
 239.086220505 407 196.849662179 396.186233173 184 348 c 1
 56 394 l 1
 72.4300606478 426.860121296 129.533315365 510 290.097577472 510 c 0
 423.816662795 510 503 452.336844385 503 303 c 2
 503 194 l 2xfa
 503 127.337839449 509.261963427 47.2473609233 520 0 c 1
 461.859275864 -29.0703620681 425 -47.5 425 -71.0301935072 c 0xfc
 425 -89.8730901104 448.636933394 -98 470.769375552 -98 c 0
 491.016370061 -98 506.807421055 -91.1987631574 520 -89 c 1
 520 -164 l 1
EndSplineSet
EndChar

StartChar: Eogonek
Encoding: 333 280 267
Width: 580
GlyphClass: 2
Flags: W
HStem: -174 76<428.982 521.337> 0 139<202 381 480.466 558> 274 139<202 419> 529 139<202 558>
VStem: 44 158<139 274 413 529> 301 126<-94.366 -40.9349>
AnchorPoint: "Anchor-2" 522 0 basechar 0
AnchorPoint: "Anchor-1" 290 0 basechar 0
AnchorPoint: "Anchor-0" 303 668 basechar 0
LayerCount: 2
Fore
SplineSet
522 -164 m 1
 507.278294927 -169.353347299 470.134650941 -174 439.27883684 -174 c 0
 342.443920018 -174 301 -128.235348163 301 -83.9028623163 c 0
 301 -39.7734314053 342.065140442 -12.0832322768 381 0 c 1
 44 0 l 1
 44 668 l 1
 558 668 l 1
 558 529 l 1
 202 529 l 1
 202 413 l 1
 419 413 l 1
 419 274 l 1
 202 274 l 1
 202 139 l 1
 558 139 l 1
 558 0 l 1
 522 0 l 1
 463.859275864 -29.0703620681 427 -47.5 427 -71.0301935072 c 0
 427 -89.8730901104 450.636933394 -98 472.769375552 -98 c 0
 493.016370061 -98 508.807421055 -91.1987631574 522 -89 c 1
 522 -164 l 1
EndSplineSet
EndChar

StartChar: eogonek
Encoding: 334 281 268
Width: 566
GlyphClass: 2
Flags: W
HStem: -164 76<310.983 403.337> 210 90<177 403> 397 113<220.764 363.436>
VStem: 24 153<155.106 210 300 351.447> 183 126<-83.8484 -30.9556>
AnchorPoint: "Anchor-2" 509 10 basechar 0
AnchorPoint: "Anchor-1" 283 0 basechar 0
AnchorPoint: "Anchor-0" 283 496 basechar 0
LayerCount: 2
Fore
SplineSet
403 300 m 1
 401.651852622 364.711074129 352.082654078 397 294.92498101 397 c 0
 265.280164933 397 189.121578237 388.31435573 177 300 c 1
 403 300 l 1
404 -154 m 1
 389.278294927 -159.353347299 352.134650941 -164 321.27883684 -164 c 0
 224.443920018 -164 183 -118.235348163 183 -72.5441311188 c 0
 183 -35.3513095849 210.460827932 -16.3918467458 228.176965765 -5.70611450486 c 1
 183.034334422 3.15518300976 24 48.5882578667 24 242.502187776 c 0
 24 416.586601096 152.17185097 510 291.259948042 510 c 0
 447.912337895 510 554.31273343 391.504108366 544 210 c 1
 177 210 l 1
 181.889741572 146.433359559 227.897822299 106 293.189864314 106 c 0
 307.336971356 106 361.285973322 107.898255226 392 143 c 1
 513 99 l 1
 475.689540008 44.4693277039 441.634608028 27.8817320645 398.479171456 6.86143074873 c 0
 352.310483509 -15.626575609 309 -36.7223977304 309 -61.5421783917 c 0
 309 -79.8820095497 332.647640798 -88 354.769576814 -88 c 0
 375.017426571 -88 390.804808303 -81.1991986161 404 -79 c 1
 404 -154 l 1
EndSplineSet
EndChar

StartChar: Iogonek
Encoding: 341 302 275
Width: 458
GlyphClass: 2
Flags: W
HStem: -174 76<237.982 330.337> 0 124<57 151 310.225 401> 544 124<57 151 309 401>
VStem: 57 344<0 124 544 668> 110 126<-94.366 -40.9349>
AnchorPoint: "Anchor-2" 331 0 basechar 0
AnchorPoint: "Anchor-1" 229 0 basechar 0
AnchorPoint: "Anchor-0" 231 668 basechar 0
LayerCount: 2
Fore
SplineSet
331 -164 m 1xe8
 316.278294927 -169.353347299 279.134650941 -174 248.27883684 -174 c 0
 151.443920018 -174 110 -128.235348163 110 -83.9028623163 c 0xe8
 110 -39.7734314053 151.065140442 -12.0832322768 190 0 c 1
 57 0 l 1
 57 124 l 1
 151 124 l 1
 151 544 l 1
 57 544 l 1
 57 668 l 1
 401 668 l 1
 401 544 l 1
 309 544 l 1
 309 124 l 1
 401 124 l 1
 401 0 l 1xf0
 331 0 l 1
 272.859275864 -29.0703620681 236 -47.5 236 -71.0301935072 c 0
 236 -89.8730901104 259.636933394 -98 281.769375552 -98 c 0
 302.016370061 -98 317.807421055 -91.1987631574 331 -89 c 1
 331 -164 l 1xe8
EndSplineSet
EndChar

StartChar: iogonek
Encoding: 342 303 276
Width: 315
GlyphClass: 1
Flags: W
HStem: -174 76<177.982 270.337> 380 116<24 118> 578 180<137.598 253.023>
VStem: 50 126<-94.366 -40.9349> 105 180<610.561 727.342> 118 153<0 380>
LayerCount: 2
Fore
SplineSet
285 668.438006347 m 0xe8
 285 618.000157125 245.954938093 578 195.548315162 578 c 0
 145.345363844 578 105 617.677563108 105 668.368640395 c 0
 105 718.654860536 144.703480441 758 195.515503214 758 c 0
 246.350010184 758 285 718.620032574 285 668.438006347 c 0xe8
271 -164 m 1xe4
 256.278294927 -169.353347299 219.134650941 -174 188.27883684 -174 c 0
 91.4439200175 -174 50 -128.235348162 50 -83.9028623165 c 0xf0
 50 -39.7734314055 91.0651404423 -12.0832322765 130 0 c 1
 118 0 l 1
 118 380 l 1
 24 380 l 1
 24 496 l 1
 271 496 l 1
 271 0 l 1xe4
 212.859275864 -29.0703620681 176 -47.5 176 -71.0301935072 c 0xf0
 176 -89.8730901104 199.636933394 -98 221.769375552 -98 c 0
 242.016370061 -98 257.807421055 -91.1987631574 271 -89 c 1
 271 -164 l 1xe4
EndSplineSet
EndChar

StartChar: Uogonek
Encoding: 355 370 289
Width: 663
GlyphClass: 2
Flags: W
HStem: -174 76<348.362 439.294> 648 20G<44 202 461 619>
VStem: 44 158<167.828 668> 219 126<-93.9901 -40.8315> 461 158<165.668 668>
AnchorPoint: "Anchor-2" 440 0 basechar 0
AnchorPoint: "Anchor-1" 332 0 basechar 0
AnchorPoint: "Anchor-0" 332 668 basechar 0
LayerCount: 2
Fore
SplineSet
440 -164 m 1
 425.278294927 -169.353347299 388.134650941 -174 357.27883684 -174 c 0
 260.443920018 -174 219 -128.235348163 219 -82.9420079334 c 0
 219 -45.3281003946 247.581764268 -23.3557555172 275.814721789 -9.3099798854 c 1
 125.213361968 6.00549232256 44 87.6885551355 44 292 c 2
 44 668 l 1
 202 668 l 1
 202 279 l 2
 202 161.263678994 236.296963982 117 331.296891484 117 c 0
 427.566565596 117 461 162.454822193 461 279 c 2
 461 668 l 1
 619 668 l 1
 619 292 l 2
 619 92.9384419519 539.322890369 23.3610581399 438.306337181 -0.84760754139 c 1
 381.338913701 -29.3836853332 345 -47.5865459317 345 -70.9985775223 c 0
 345 -89.8836145152 368.644460954 -98 390.767728201 -98 c 0
 411.018276675 -98 426.802705929 -91.1995490119 440 -89 c 1
 440 -164 l 1
EndSplineSet
EndChar

StartChar: uogonek
Encoding: 356 371 290
Width: 570
GlyphClass: 1
Flags: W
HStem: -174 76<424.666 518.337> -12 118<152.742 309.748> 476 20G<50 202 366 519>
VStem: 50 152<131.269 496> 298 126<-94.1964 -40.8313> 366 153<135.837 496>
LayerCount: 2
Fore
SplineSet
519 -164 m 1xf4
 504.278294927 -169.353347299 467.134650941 -174 436.570471108 -174 c 0
 396.037192094 -174 337.207882588 -165.82781485 309.948858281 -122.842430366 c 0
 301.832922534 -110.044223996 298 -96.5008486895 298 -81.8523798923 c 0xf8
 298 -38.9642114929 330.856445636 -19.9699207205 386.46295973 1.79013423448 c 1
 366 70 l 1
 333.5022196 15.344642054 292.584780319 -12 217.738972221 -12 c 0
 87.7453786111 -12 50 70.4861775813 50 198 c 2
 50 496 l 1
 202 496 l 1
 202 219 l 2
 202 129.842111652 230.643230717 106 279.203087313 106 c 0
 339.339907553 106 366 142.565443733 366 235 c 2
 366 496 l 1
 519 496 l 1
 519 0 l 1xf4
 460.859275864 -29.0703620681 424 -47.5 424 -71.0301935072 c 0xf8
 424 -89.8730901104 447.636933394 -98 469.769375552 -98 c 0
 490.016370061 -98 505.807421055 -91.1987631574 519 -89 c 1
 519 -164 l 1xf4
EndSplineSet
EndChar

StartChar: Hbar
Encoding: 365 294 299
Width: 740
GlyphClass: 2
Flags: W
HStem: 0 21G<75 233 508 666> 274 139<233 508> 496 98<15 75 233 508 666 725> 648 20G<75 233 508 666>
VStem: 75 158<0 274 413 496 594 668> 508 158<0 274 413 496 594 668>
AnchorPoint: "Anchor-1" 371 0 basechar 0
AnchorPoint: "Anchor-0" 371 668 basechar 0
LayerCount: 2
Fore
SplineSet
233 413 m 1
 508 413 l 1
 508 496 l 1
 233 496 l 1
 233 413 l 1
75 0 m 1
 75 496 l 1
 15 496 l 1
 15 594 l 1
 75 594 l 1
 75 668 l 1
 233 668 l 1
 233 594 l 1
 508 594 l 1
 508 668 l 1
 666 668 l 1
 666 594 l 1
 725 594 l 1
 725 496 l 1
 666 496 l 1
 666 0 l 1
 508 0 l 1
 508 274 l 1
 233 274 l 1
 233 0 l 1
 75 0 l 1
EndSplineSet
EndChar

StartChar: hbar
Encoding: 366 295 300
Width: 629
GlyphClass: 1
Flags: W
HStem: 0 21G<107 259 427 579> 392 118<324.401 478.175> 555 78<13 107 259 382>
VStem: 107 152<0 355.644 430 555 633 698> 427 152<0 371.618>
LayerCount: 2
Fore
SplineSet
353.222696478 392 m 0
 287.475906241 392 259 346.508407997 259 255 c 2
 259 0 l 1
 107 0 l 1
 107 555 l 1
 13 555 l 1
 13 633 l 1
 107 633 l 1
 107 698 l 1
 259 698 l 1
 259 633 l 1
 382 633 l 1
 382 555 l 1
 259 555 l 1
 259 430 l 1
 270.741687886 449.339250636 315.960263537 510 420.916792645 510 c 0
 535.433100778 510 579 437.785646522 579 302 c 2
 579 0 l 1
 427 0 l 1
 427 264 l 2
 427 355.303754736 412.272682964 392 353.222696478 392 c 0
EndSplineSet
EndChar

StartChar: dcroat
Encoding: 385 273 319
Width: 632
GlyphClass: 1
Flags: W
HStem: -12 118<231.355 332.669> 0 21G<412.03 563> 392 118<230.076 328.54> 555 78<243 394 546 612>
VStem: 24 158<160.98 338.451> 394 152<428 555 633 698> 401 145<153.05 342.023>
LayerCount: 2
Fore
SplineSet
182 251.985438209 m 0xba
 182 159.868731839 231.302254105 106 292.936174045 106 c 0
 322.434838461 106 401 118.339622632 401 243.05073536 c 0
 401 275.887375367 395.553254003 392 295.871209342 392 c 0
 232.755500511 392 182 345.449913228 182 251.985438209 c 0xba
398 67 m 1
 370.085351312 28.2796808523 321.273135325 -12 242.824883363 -12 c 0
 126.474670573 -12 24 76.6041050006 24 251.53809175 c 0
 24 435.420266184 137.226323176 510 234.887051592 510 c 0
 261.484006768 510 349.237964913 504.468476608 394 428 c 1
 394 555 l 1
 243 555 l 1
 243 633 l 1
 394 633 l 1
 394 698 l 1
 546 698 l 1
 546 633 l 1
 612 633 l 1
 612 555 l 1
 546 555 l 1xbc
 546 194 l 2
 546 173.425846418 546.532947194 90.5687904356 563 0 c 1
 418 0 l 1x7a
 398 67 l 1
EndSplineSet
EndChar

StartChar: Scedilla
Encoding: 393 350 327
Width: 619
GlyphClass: 2
Flags: W
HStem: -187 50<237.525 341.195> 553 127<212.536 384.52>
VStem: 28 162<447.4 529.168> 342 94<-134.327 -86.2415> 434 162<141.142 228.376>
DStem2: 266 421 231 285 0.980581 -0.196116<-65.6253 185.651>
AnchorPoint: "Anchor-1" 329 -187 basechar 0
AnchorPoint: "Anchor-0" 304 668 basechar 0
LayerCount: 2
Fore
SplineSet
436 -108.066146191 m 0xf0
 436 -164.616683805 372.579036554 -187 308.555295935 -187 c 0
 292.349653946 -187 257.625398249 -185.565915237 221 -174 c 1
 237 -124 l 1
 247.946929407 -129.473464703 274.511497247 -137 298.231955243 -137 c 0
 314.759742832 -137 342 -133.345917 342 -110.447772923 c 0xf0
 342 -92.8570401868 325.923981531 -84 304.48857979 -84 c 0
 281.042721514 -84 273.327304348 -94.5963826088 261.598179618 -87.5589077707 c 0
 251.745684376 -81.6474106255 247.614158735 -68.4252222137 253 -59 c 2
 282.690852017 -11.0378544341 l 1
 250.854645679 -9.03341446532 85.2604902044 1.48905753693 25 157 c 1
 169 209 l 1
 180.237110634 170.472763542 213.869639931 115 312.872982736 115 c 0
 342.885437623 115 434 120.097803902 434 183.959994933 c 0
 434 230.426391294 385.7632377 255.340141167 312 269 c 2
 231 285 l 2
 117.218160238 308.177782174 28 362.025061396 28 473.657587942 c 0
 28 628.238457282 199.073699023 680 310.609111152 680 c 0
 349.020776696 680 510.921578048 673.860854358 567 535 c 1
 424 483 l 1
 406.916343035 527.680333601 361.051266454 553 300.462296866 553 c 0
 280.618616251 553 190 550.284090446 190 490.328175391 c 0
 190 455.795366863 220.061950559 430.457833708 266 421 c 2
 356 403 l 2
 526.790386002 369.675046634 596 314.045006693 596 213.784429961 c 0xe8
 596 85.5782099393 482.831848611 -1.3655538801 339.029841319 -11.15225389 c 1
 316 -48 l 1
 325.333333333 -46 335.384776311 -45 345.813316559 -45 c 0
 369.329560103 -45 436 -50.0849753891 436 -108.066146191 c 0xf0
EndSplineSet
Substitution2: "'locl' Localized Forms in Latin lookup 8 subtable" uni0218
Substitution2: "'aalt' Access All Alternates lookup 0 subtable" uni0218
EndChar

StartChar: scedilla
Encoding: 394 351 328
Width: 534
GlyphClass: 2
Flags: W
HStem: -187 50<169.83 279.357> -11.8289 110.829<276.607 348.629> 399 111<184.949 337.636>
VStem: 33 145<330.732 388.161> 280 94<-134.327 -86.2415> 361 146<115.084 174.007>
DStem2: 239 319 195 205 0.983353 -0.181706<-62.9901 148.171>
AnchorPoint: "Anchor-1" 267 -187 basechar 0
AnchorPoint: "Anchor-0" 268 496 basechar 0
LayerCount: 2
Fore
SplineSet
374 -108.066146191 m 0xf8
 374 -164.616683805 310.579036554 -187 246.555295935 -187 c 0
 230.349653946 -187 195.625398249 -185.565915237 159 -174 c 1
 175 -124 l 1
 185.946929407 -129.473464703 212.511497247 -137 236.231955243 -137 c 0
 252.759742832 -137 280 -133.345917 280 -110.447772923 c 0xf8
 280 -92.8570401868 263.923981531 -84 242.48857979 -84 c 0
 219.042721514 -84 211.327304348 -94.5963826088 199.598179618 -87.5589077707 c 0
 189.745684376 -81.6474106255 185.614158735 -68.4252222137 191 -59 c 2
 221.370164237 -9.94050392487 l 1
 174.096560018 -5.20480477397 67.7838726354 13.9793067795 21 114 c 1
 150 161 l 1
 164.840659938 119.176321994 210.32069016 99 262.45659388 99 c 0
 273.004446886 99 361 99.8258407828 361 144.972443369 c 0
 361 166.121027956 341.690403851 180.608538908 284 190 c 2
 195 205 l 2
 168.798174148 209.366970975 33 232.364546311 33 352.320234213 c 0
 33 463.394067179 149.432911451 510 267.494926631 510 c 0
 293.133962185 510 429.839720412 507.802017702 481 400 c 1
 353 353 l 1
 343.019249756 391.497179514 299.408821799 399 258.48954609 399 c 0
 204.765779386 399 178 386.066931174 178 359.75162437 c 0
 178 339.004521824 194.63711144 327.065979738 239 319 c 2
 331 302 l 2
 456.330800603 279.718968782 507 241.269143762 507 162.596954544 c 0xf4
 507 56.1484714989 414.235774063 -8.0615206095 276.606918839 -11.8289298583 c 1
 254 -48 l 1
 263.333333333 -46 273.384776311 -45 283.813316559 -45 c 0
 307.329560103 -45 374 -50.0849753891 374 -108.066146191 c 0xf8
EndSplineSet
Substitution2: "'locl' Localized Forms in Latin lookup 8 subtable" uni0219
Substitution2: "'aalt' Access All Alternates lookup 0 subtable" uni0219
EndChar

StartChar: uni0162
Encoding: 396 354 330
Width: 617
GlyphClass: 2
Flags: W
HStem: -187 50<217.525 321.195> 529 139<15 230 387 602>
VStem: 230 157<0 529> 322 94<-134.327 -86.2415>
AnchorPoint: "Anchor-1" 286 -251 basechar 0
AnchorPoint: "Anchor-0" 309 668 basechar 0
LayerCount: 2
Fore
SplineSet
416 -108.066146191 m 0xd0
 416 -164.616683805 352.579036554 -187 288.555295935 -187 c 0
 272.349653946 -187 237.625398249 -185.565915237 201 -174 c 1
 217 -124 l 1
 227.946929407 -129.473464703 254.511497247 -137 278.231955243 -137 c 0
 294.759742832 -137 322 -133.345917 322 -110.447772923 c 0xd0
 322 -92.8570401868 305.923981531 -84 284.48857979 -84 c 0
 261.042721514 -84 253.327304348 -94.5963826088 241.598179618 -87.5589077707 c 0
 231.745684376 -81.6474106255 227.614158735 -68.4252222137 233 -59 c 2
 269.523809524 -3.5527136788e-15 l 1
 230 0 l 1
 230 529 l 1
 15 529 l 1
 15 668 l 1
 602 668 l 1
 602 529 l 1
 387 529 l 1
 387 0 l 1xe0
 326 0 l 1
 296 -48 l 1
 305.333333333 -46 315.384776311 -45 325.813316559 -45 c 0
 349.329560103 -45 416 -50.0849753891 416 -108.066146191 c 0xd0
EndSplineSet
Substitution2: "'locl' Localized Forms in Latin lookup 8 subtable" uni021A
Substitution2: "'aalt' Access All Alternates lookup 0 subtable" uni021A
EndChar

StartChar: acutecomb
Encoding: 398 769 332
Width: 0
GlyphClass: 4
Flags: W
HStem: 574 153<110.853 143.738>
VStem: 0 208
AnchorPoint: "Anchor-4" 104 727 basemark 0
AnchorPoint: "Anchor-4" 68 496 mark 0
AnchorPoint: "Anchor-0" 68 496 mark 0
LayerCount: 2
Fore
SplineSet
208 669.380039458 m 0
 208 643.481452207 193.227358482 632.378053618 114 574 c 1
 0 574 l 1
 25.5881087856 605.071274954 86.3934386112 679.103693204 90.8119641429 684.447026405 c 0
 113.089739396 711.387591827 136.518744848 727 157.09109612 727 c 0
 182.314613052 727 208 703.529987802 208 669.380039458 c 0
EndSplineSet
Substitution2: "'case' Case-Sensitive Forms lookup 15 subtable" acutecomb.case
Substitution2: "Single Substitution lookup 7 subtable" acutecomb.case
Substitution2: "Single Substitution lookup 6 subtable" acutecomb.case
Substitution2: "Single Substitution lookup 4 subtable" acutecomb.case
Substitution2: "Single Substitution lookup 3 subtable" acutecomb.case
Substitution2: "'aalt' Access All Alternates lookup 0 subtable" acutecomb.case
EndChar

StartChar: acutecomb.case
Encoding: 399 -1 333
Width: 0
GlyphClass: 4
Flags: W
HStem: 731 154<139.595 152.964>
VStem: 0 218
AnchorPoint: "Anchor-4" 109 885 basemark 0
AnchorPoint: "Anchor-4" 70 668 mark 0
AnchorPoint: "Anchor-0" 70 668 mark 0
LayerCount: 2
Fore
SplineSet
161.413034568 885 m 0
 191.106068383 885 218 860.33542412 218 824.851653109 c 0
 218 802.555555556 207.381761591 794.296925682 207.380016214 794.295568167 c 0
 153.162484846 752.126377103 137.666666667 740.333333333 125 731 c 1
 0 731 l 1
 119.793256174 866.765690331 135.882352941 885 161.413034568 885 c 0
EndSplineSet
EndChar

StartChar: uni0306
Encoding: 400 774 334
Width: 0
GlyphClass: 4
Flags: W
HStem: 569 77<97.2932 189.535>
VStem: 0 85<658.235 689> 202 85<658.647 689>
AnchorPoint: "Anchor-4" 144 689 basemark 0
AnchorPoint: "Anchor-4" 144 496 mark 0
AnchorPoint: "Anchor-0" 144 496 mark 0
LayerCount: 2
Fore
SplineSet
287 689 m 1
 274.892271153 620.389536532 215.33955314 569 143.498062383 569 c 0
 71.6478131553 569 12.1055175023 620.402067487 0 689 c 1
 85 689 l 1
 90.2283037091 668.086785163 112.588101227 646 143.235884743 646 c 0
 173.390969162 646 196.595587837 667.382351348 202 689 c 1
 287 689 l 1
EndSplineSet
Substitution2: "'case' Case-Sensitive Forms lookup 15 subtable" uni0306.case
Substitution2: "Single Substitution lookup 7 subtable" uni0306.case
Substitution2: "Single Substitution lookup 6 subtable" uni0306.case
Substitution2: "Single Substitution lookup 4 subtable" uni0306.case
Substitution2: "Single Substitution lookup 3 subtable" uni0306.case
Substitution2: "'aalt' Access All Alternates lookup 0 subtable" uni0306.case
EndChar

StartChar: uni030C
Encoding: 402 780 336
Width: 0
GlyphClass: 4
Flags: W
HStem: 568 91<151.5 242.5>
AnchorPoint: "Anchor-4" 197 720 basemark 0
AnchorPoint: "Anchor-4" 197 496 mark 0
AnchorPoint: "Anchor-0" 197 496 mark 0
LayerCount: 2
Fore
SplineSet
196.5 568 m 0
 177.5 568 161 574.333333333 147 587 c 2
 0 720 l 1
 129 720 l 1
 197 659 l 1
 265 720 l 1
 393 720 l 1
 247 587 l 2
 232.333333333 574.333333333 215.5 568 196.5 568 c 0
EndSplineSet
Substitution2: "'case' Case-Sensitive Forms lookup 15 subtable" uni030C.case
Substitution2: "Single Substitution lookup 7 subtable" uni030C.case
Substitution2: "Single Substitution lookup 6 subtable" uni030C.case
Substitution2: "Single Substitution lookup 4 subtable" uni030C.case
Substitution2: "Single Substitution lookup 3 subtable" uni030C.case
Substitution2: "'aalt' Access All Alternates lookup 0 subtable" uni030C.case
EndChar

StartChar: uni030C.alt
Encoding: 403 -1 337
Width: 0
GlyphClass: 1
Flags: W
HStem: 496 192<57.2078 100>
VStem: 40.283 114.717<571.89 672.342>
LayerCount: 2
Fore
SplineSet
98.0011845949 688 m 0
 134.950504283 688 155 657.538208865 155 631.073140369 c 0
 155 625.162680193 154 619.333333333 152 614 c 2
 100 496 l 1
 20 496 l 1
 24.5244535722 523.146721433 39.0009471942 610.905588446 40.2830260917 618.469853941 c 0
 50.2810486629 677.458187111 76.2648465172 688 98.0011845949 688 c 0
EndSplineSet
EndChar

StartChar: uni0327
Encoding: 405 807 339
Width: 0
GlyphClass: 4
Flags: W
HStem: -187 50<10.8304 120.357>
VStem: 121 94<-134.327 -86.2415>
AnchorPoint: "Anchor-3" 108 -187 basemark 0
AnchorPoint: "Anchor-3" 108 0 mark 0
AnchorPoint: "Anchor-1" 108 0 mark 0
LayerCount: 2
Fore
SplineSet
215 -108.066146191 m 0
 215 -164.616683805 151.579036554 -187 87.5552959359 -187 c 0
 71.3496539472 -187 36.6253982492 -185.565915237 0 -174 c 1
 16 -124 l 1
 26.9469294071 -129.473464704 53.5114972473 -137 77.231955243 -137 c 0
 93.759742832 -137 121 -133.345917 121 -110.447772923 c 0
 121 -92.8570401868 104.923981531 -84 83.4885797897 -84 c 0
 60.0427215146 -84 52.327304348 -94.5963826088 40.598179618 -87.5589077708 c 0
 30.7456843761 -81.6474106257 26.614158735 -68.4252222138 32 -59 c 2
 84 25 l 1
 125 0 l 1
 95 -48 l 1
 104.333333333 -46 114.384776311 -45 124.813316559 -45 c 0
 148.329560103 -45 215 -50.0849753891 215 -108.066146191 c 0
EndSplineSet
EndChar

StartChar: uni0302
Encoding: 406 770 340
Width: 0
GlyphClass: 4
Flags: W
HStem: 635 91<150.425 241.425>
AnchorPoint: "Anchor-4" 197 726 basemark 0
AnchorPoint: "Anchor-4" 197 496 mark 0
AnchorPoint: "Anchor-0" 197 496 mark 0
LayerCount: 2
Fore
SplineSet
0 574 m 1
 147 706 l 2
 161.666666667 719.333333333 178.183914569 726 195.924887352 726 c 0
 206.722032109 726 227.521431009 723.530712092 247 706 c 2
 393 574 l 1
 265 574 l 1
 197 635 l 1
 129 574 l 1
 0 574 l 1
EndSplineSet
Substitution2: "'case' Case-Sensitive Forms lookup 15 subtable" uni0302.case
Substitution2: "Single Substitution lookup 7 subtable" uni0302.case
Substitution2: "Single Substitution lookup 6 subtable" uni0302.case
Substitution2: "Single Substitution lookup 4 subtable" uni0302.case
Substitution2: "Single Substitution lookup 3 subtable" uni0302.case
Substitution2: "'aalt' Access All Alternates lookup 0 subtable" uni0302.case
EndChar

StartChar: uni0302.case
Encoding: 407 -1 341
Width: 0
GlyphClass: 4
Flags: W
HStem: 731 152
AnchorPoint: "Anchor-4" 197 883 basemark 0
AnchorPoint: "Anchor-4" 197 668 mark 0
AnchorPoint: "Anchor-0" 197 668 mark 0
LayerCount: 2
Fore
SplineSet
0 731 m 1
 147 864 l 1
 161.55966784 875.647734272 178.28177444 883 197.376495483 883 c 0
 215.098746912 883 231 876.666666667 245 864 c 2
 393 731 l 1
 264 731 l 1
 196 792 l 1
 129 731 l 1
 0 731 l 1
EndSplineSet
EndChar

StartChar: uni0326
Encoding: 408 806 342
Width: 0
GlyphClass: 4
Flags: W
HStem: -251 45<52 81.3002>
VStem: 102 118<-186.585 -107.023>
AnchorPoint: "Anchor-3" 110 -251 basemark 0
AnchorPoint: "Anchor-3" 133 0 mark 0
AnchorPoint: "Anchor-1" 133 0 mark 0
LayerCount: 2
Fore
SplineSet
136 -45 m 1
 206.242799589 -73.3960253659 220 -111.999976997 220 -141.341285872 c 0
 220 -202.171817661 160.869122514 -251 52 -251 c 1
 0 -206 l 1
 18.5887469439 -206 102 -202.873929505 102 -148.529200107 c 0
 102 -116.644564087 73.2873873812 -94.4831624713 34 -85 c 1
 136 -45 l 1
EndSplineSet
EndChar

StartChar: uni0308
Encoding: 409 776 343
Width: 0
GlyphClass: 4
Flags: W
HStem: 578 141<20.8531 120.642 214.852 314.126>
VStem: 0 141<598.35 698.141> 194 140<598.345 698.126>
AnchorPoint: "Anchor-4" 167 719 basemark 0
AnchorPoint: "Anchor-4" 167 496 mark 0
AnchorPoint: "Anchor-0" 167 496 mark 0
LayerCount: 2
Fore
SplineSet
334 647.974254812 m 0
 334 608.907827988 304.008563355 578 264.980661015 578 c 0
 225.944491076 578 194 608.920924291 194 647.99521175 c 0
 194 687.057091539 225.924206954 719 264.975038329 719 c 0
 304.053976572 719 334 687.011093121 334 647.974254812 c 0
141 647.994906798 m 0
 141 608.935586331 110.047135717 578 70.9911851689 578 c 0
 31.9444910761 578 0 608.920924291 0 647.99521175 c 0
 0 687.057091539 31.9242069542 719 70.9891033735 719 c 0
 110.061163153 719 141 687.045375674 141 647.994906798 c 0
EndSplineSet
Substitution2: "'case' Case-Sensitive Forms lookup 15 subtable" uni0308.case
Substitution2: "Single Substitution lookup 7 subtable" uni0308.case
Substitution2: "Single Substitution lookup 6 subtable" uni0308.case
Substitution2: "Single Substitution lookup 4 subtable" uni0308.case
Substitution2: "Single Substitution lookup 3 subtable" uni0308.case
Substitution2: "'aalt' Access All Alternates lookup 0 subtable" uni0308.case
EndChar

StartChar: uni0307
Encoding: 411 775 345
Width: 0
GlyphClass: 4
Flags: W
HStem: 578 141<20.8531 120.642>
VStem: 0 141<598.35 698.141>
AnchorPoint: "Anchor-4" 71 719 basemark 0
AnchorPoint: "Anchor-4" 71 496 mark 0
AnchorPoint: "Anchor-0" 71 496 mark 0
LayerCount: 2
Fore
SplineSet
141 647.994906798 m 0
 141 608.935586331 110.047135717 578 70.9911851689 578 c 0
 31.9444910761 578 0 608.920924291 0 647.99521175 c 0
 0 687.057091539 31.9242069542 719 70.9891033735 719 c 0
 110.061163153 719 141 687.045375674 141 647.994906798 c 0
EndSplineSet
Substitution2: "'case' Case-Sensitive Forms lookup 15 subtable" uni0307.case
Substitution2: "Single Substitution lookup 7 subtable" uni0307.case
Substitution2: "Single Substitution lookup 6 subtable" uni0307.case
Substitution2: "Single Substitution lookup 4 subtable" uni0307.case
Substitution2: "Single Substitution lookup 3 subtable" uni0307.case
Substitution2: "'aalt' Access All Alternates lookup 0 subtable" uni0307.case
EndChar

StartChar: Euro
Encoding: 413 8364 347
Width: 673
GlyphClass: 1
Flags: W
HStem: -12 130<324.793 477.142> 231 74<46 95 260 333> 366 74<45 95 262 407> 550 130<326.193 473.597>
VStem: 95 151<305 366>
LayerCount: 2
Fore
SplineSet
651 142 m 1
 602.819460998 46.977270301 512.070765661 -12 391.482738444 -12 c 0
 242.245082628 -12 136.141003838 78.3302317674 104 231 c 1
 6 231 l 1
 46 305 l 1
 95 305 l 1
 95 366 l 1
 5 366 l 1
 45 440 l 1
 105 440 l 1
 119.417453452 502.105953332 179.63411789 680 391.212150249 680 c 0
 461.453889968 680 583.163907636 660.393016407 648 525 c 1
 519 478 l 1
 511.112514241 493.774971517 477.417123762 550 400.64922787 550 c 0
 364.459381427 550 295.114831108 537.504780485 262 440 c 1
 448 440 l 1
 407 366 l 1
 247 366 l 2
 246.932627718 365.393649461 243.955513414 327.489352445 246 305 c 1
 373 305 l 1
 333 231 l 1
 260 231 l 1
 271.190669909 196.80628639 306.819762547 118 396.989459036 118 c 0
 421.192736616 118 491.972004182 123.67790354 523 189 c 1
 651 142 l 1
EndSplineSet
EndChar

StartChar: uni2074
Encoding: 414 8308 348
Width: 448
GlyphClass: 1
Flags: W
HStem: 477 87<158 236 337 395>
VStem: 236 101<403 477 564 659>
DStem2: 55 555 158 564 0.630199 0.776433<71.8984 194.815>
LayerCount: 2
Fore
SplineSet
158 564 m 1
 236 564 l 1
 236 659 l 1
 158 564 l 1
236 403 m 1
 236 477 l 1
 55 477 l 1
 55 555 l 1
 236 778 l 1
 337 778 l 1
 337 564 l 1
 395 564 l 1
 395 477 l 1
 337 477 l 1
 337 403 l 1
 236 403 l 1
EndSplineSet
EndChar

StartChar: gravecomb
Encoding: 415 768 349
Width: 0
GlyphClass: 4
Flags: W
HStem: 574 154<66.0284 99.7188>
VStem: 0 208
AnchorPoint: "Anchor-4" 104 728 basemark 0
AnchorPoint: "Anchor-4" 139 496 mark 0
AnchorPoint: "Anchor-0" 139 496 mark 0
LayerCount: 2
Fore
SplineSet
0 671.249702044 m 0
 0 701.146033889 24.1413723526 728 57.4591922586 728 c 0
 73.6395653405 728 87.3333333333 721.666666667 98 709 c 2
 208 574 l 1
 94 574 l 1
 24 625.578947368 24 625.578947368 19 629 c 1
 6.33333333333 641.666666667 0 655.936955248 0 671.249702044 c 0
EndSplineSet
Substitution2: "'case' Case-Sensitive Forms lookup 15 subtable" gravecomb.case
Substitution2: "Single Substitution lookup 7 subtable" gravecomb.case
Substitution2: "Single Substitution lookup 6 subtable" gravecomb.case
Substitution2: "Single Substitution lookup 4 subtable" gravecomb.case
Substitution2: "Single Substitution lookup 3 subtable" gravecomb.case
Substitution2: "'aalt' Access All Alternates lookup 0 subtable" gravecomb.case
EndChar

StartChar: gravecomb.case
Encoding: 416 -1 350
Width: 0
GlyphClass: 4
Flags: W
HStem: 731 154<67.5074 99.8594>
VStem: 0 219
AnchorPoint: "Anchor-4" 110 885 basemark 0
AnchorPoint: "Anchor-4" 147 668 mark 0
AnchorPoint: "Anchor-0" 147 668 mark 0
LayerCount: 2
Fore
SplineSet
0 820.479010684 m 0
 0 858.465272554 25.2040116978 885 57.6248855346 885 c 0
 71.6983947812 885 84 880 94 870 c 2
 219 731 l 1
 94 731 l 1
 4.22857026464 797.147369279 0 804.919766473 0 820.479010684 c 0
EndSplineSet
EndChar

StartChar: uni030B
Encoding: 417 779 351
Width: 0
GlyphClass: 4
Flags: W
HStem: 574 153<109.003 114 312.003 317>
AnchorPoint: "Anchor-4" 206 727 basemark 0
AnchorPoint: "Anchor-4" 158 496 mark 0
AnchorPoint: "Anchor-0" 158 496 mark 0
LayerCount: 2
Fore
SplineSet
354.88847256 727 m 0
 386.98304384 727 411 703.490129267 411 669.988545357 c 0
 411 662.763295429 409.882897476 641.518028233 392 629 c 2
 317 574 l 1
 203 574 l 1
 312 707 l 2
 323.333333333 720.333333333 337.797734083 727 354.88847256 727 c 0
151.88847256 727 m 0
 183.98304384 727 208 703.490129267 208 669.988545357 c 0
 208 662.763295429 206.882897476 641.518028233 189 629 c 2
 114 574 l 1
 0 574 l 1
 109 707 l 2
 120.333333333 720.333333333 134.797734083 727 151.88847256 727 c 0
EndSplineSet
Substitution2: "'case' Case-Sensitive Forms lookup 15 subtable" uni030B.case
Substitution2: "Single Substitution lookup 7 subtable" uni030B.case
Substitution2: "Single Substitution lookup 6 subtable" uni030B.case
Substitution2: "Single Substitution lookup 4 subtable" uni030B.case
Substitution2: "Single Substitution lookup 3 subtable" uni030B.case
Substitution2: "'aalt' Access All Alternates lookup 0 subtable" uni030B.case
EndChar

StartChar: dotlessi
Encoding: 419 305 353
Width: 301
GlyphClass: 2
Flags: W
HStem: 0 21G<118 271> 381 115<24 118>
VStem: 118 153<0 381>
AnchorPoint: "Anchor-2" 271 10 basechar 0
AnchorPoint: "Anchor-1" 151 0 basechar 0
AnchorPoint: "Anchor-0" 161 496 basechar 0
LayerCount: 2
Fore
SplineSet
118 0 m 1
 118 381 l 1
 24 381 l 1
 24 496 l 1
 271 496 l 1
 271 0 l 1
 118 0 l 1
EndSplineSet
EndChar

StartChar: uni0304
Encoding: 420 772 354
Width: 0
GlyphClass: 4
Flags: W
HStem: 570 98<0 299>
VStem: 0 299<570 668>
AnchorPoint: "Anchor-4" 150 668 basemark 0
AnchorPoint: "Anchor-4" 150 496 mark 0
AnchorPoint: "Anchor-0" 150 496 mark 0
LayerCount: 2
Fore
SplineSet
0 570 m 1
 0 668 l 1
 299 668 l 1
 299 570 l 1
 0 570 l 1
EndSplineSet
Substitution2: "'case' Case-Sensitive Forms lookup 15 subtable" uni0304.case
Substitution2: "Single Substitution lookup 7 subtable" uni0304.case
Substitution2: "Single Substitution lookup 6 subtable" uni0304.case
Substitution2: "Single Substitution lookup 4 subtable" uni0304.case
Substitution2: "Single Substitution lookup 3 subtable" uni0304.case
Substitution2: "'aalt' Access All Alternates lookup 0 subtable" uni0304.case
EndChar

StartChar: uni00B5
Encoding: 181 181 356
Width: 591
GlyphClass: 1
Flags: W
HStem: -161 21G<50 207> -12 118<224.624 318.381> 5.5261e-05 124<522.468 588> 476 20G<50 202 365 517>
VStem: 50 152<-161 -7.54145 128.738 496> 365 152<143.759 496>
LayerCount: 2
Fore
SplineSet
195 -6 m 1xdc
 202.159462961 -38.9335296204 207 -68.7133535612 207 -95 c 2
 207 -161 l 1
 50 -161 l 1
 50 496 l 1
 202 496 l 1
 202 235 l 2
 202 148.28199558 220.283633736 106 273.762617004 106 c 0xdc
 305.415088484 106 365 120.811684234 365 234 c 2
 365 496 l 1
 517 496 l 1
 517 163 l 2
 517 137 531.653553527 124 562.520168334 124 c 0
 570.518673313 124 579.027640049 124.872937171 588 130 c 1
 588 6 l 1
 566.048805177 1.12195670606 549.461583044 6.77849459705e-05 530.291524561 5.52610280214e-05 c 0xbc
 445.704804712 0 397.438424749 21.8435211497 375 72 c 1
 351.080989966 28.3829817029 309.940680375 -12 239.531865026 -12 c 0
 223.862808619 -12 209 -10 195 -6 c 1xdc
EndSplineSet
EndChar

StartChar: uni0328
Encoding: 422 808 357
Width: 0
GlyphClass: 4
Flags: W
HStem: -174 76<127.982 220.337>
VStem: 0 126<-94.366 -40.9349>
AnchorPoint: "Anchor-2" 221 0 mark 0
LayerCount: 2
Fore
SplineSet
221 -164 m 1
 206.278294927 -169.353347299 169.134650941 -174 138.27883684 -174 c 0
 41.4439200178 -174 0 -128.235348162 0 -83.9028623164 c 0
 0 -39.7734314055 41.0651404423 -12.0832322765 80 0 c 1
 221 0 l 1
 162.859275864 -29.0703620681 126 -47.5 126 -71.0301935072 c 0
 126 -89.8730901104 149.636933394 -98 171.769375552 -98 c 0
 192.016370061 -98 207.807421055 -91.1987631574 221 -89 c 1
 221 -164 l 1
EndSplineSet
Substitution2: "'case' Case-Sensitive Forms lookup 15 subtable" uni0328.case
Substitution2: "Single Substitution lookup 7 subtable" uni0328.case
Substitution2: "Single Substitution lookup 6 subtable" uni0328.case
Substitution2: "Single Substitution lookup 4 subtable" uni0328.case
Substitution2: "Single Substitution lookup 3 subtable" uni0328.case
Substitution2: "'aalt' Access All Alternates lookup 0 subtable" uni0328.case
EndChar

StartChar: uni0328.case
Encoding: 423 -1 358
Width: 0
GlyphClass: 4
Flags: W
HStem: -174 76<128.374 220.337>
VStem: 0 126<-94.4703 -34.2687>
AnchorPoint: "Anchor-2" 221 0 mark 0
LayerCount: 2
Fore
SplineSet
221 -164 m 1
 206.278294927 -169.353347299 169.134650941 -174 138.27883684 -174 c 0
 41.4439200178 -174 0 -128.235348162 0 -83.9028623164 c 0
 0 -39.7734314055 41.0651404423 -12.0832322765 80 0 c 1
 221 0 l 1
 189.455940087 -3.3204273593 126 -29.9476149114 126 -67.7430602547 c 0
 126 -91.3220494695 150.696972383 -98 171.282082656 -98 c 0
 192.060139657 -98 207.822342201 -91.1962762998 221 -89 c 1
 221 -164 l 1
EndSplineSet
EndChar

StartChar: uni030A
Encoding: 424 778 359
Width: 0
GlyphClass: 4
Flags: W
HStem: 535 86<92.5664 170.601> 715 85<92.8044 171.481>
VStem: 0 85<628.727 707.613> 179 86<629.049 706.647>
AnchorPoint: "Anchor-4" 133 800 basemark 0
AnchorPoint: "Anchor-4" 133 496 mark 0
AnchorPoint: "Anchor-0" 133 496 mark 0
LayerCount: 2
Fore
SplineSet
85 668.450696182 m 0
 85 642.256795041 106.232216144 621 132.428520857 621 c 0
 158.423508927 621 179 641.931336666 179 668.517418686 c 0
 179 695.123241017 158.392941268 715 132.374405819 715 c 0
 105.919566308 715 85 694.451026122 85 668.450696182 c 0
265 668.680620446 m 0
 265 596.921105817 207.595312474 535 132.534900846 535 c 0
 58.0948519486 535 0 595.901798715 0 668.040035632 c 0
 0 741.475991851 60.2038285308 800 132.111441775 800 c 0
 202.8662257 800 265 743.337473867 265 668.680620446 c 0
EndSplineSet
Substitution2: "'case' Case-Sensitive Forms lookup 15 subtable" uni030A.case
Substitution2: "Single Substitution lookup 7 subtable" uni030A.case
Substitution2: "Single Substitution lookup 6 subtable" uni030A.case
Substitution2: "Single Substitution lookup 4 subtable" uni030A.case
Substitution2: "Single Substitution lookup 3 subtable" uni030A.case
Substitution2: "'aalt' Access All Alternates lookup 0 subtable" uni030A.case
EndChar

StartChar: uni00AD
Encoding: 173 173 362
Width: 350
GlyphClass: 1
Flags: W
HStem: 184 129<24 326>
VStem: 24 302<184 313>
LayerCount: 2
Fore
SplineSet
24 184 m 1
 24 313 l 1
 326 313 l 1
 326 184 l 1
 24 184 l 1
EndSplineSet
EndChar

StartChar: uni0163
Encoding: 427 355 363
Width: 379
GlyphClass: 2
Flags: W
HStem: -187 50<141.83 251.357> 0 124<255.989 355> 380 116<13 95 247 355>
VStem: 95 152<130.293 380 496 620> 252 94<-134.327 -86.2415>
AnchorPoint: "Anchor-1" 216 -251 basechar 0
AnchorPoint: "Anchor-0" 190 496 basechar 0
LayerCount: 2
Fore
SplineSet
346 -108.066146191 m 0
 346 -164.616683805 282.579036554 -187 218.555295935 -187 c 0
 202.349653946 -187 167.625398249 -185.565915237 131 -174 c 1
 147 -124 l 1
 157.946929407 -129.473464703 184.511497247 -137 208.231955243 -137 c 0
 224.759742832 -137 252 -133.345917 252 -110.447772923 c 0
 252 -92.8570401868 235.923981531 -84 214.48857979 -84 c 0
 191.042721514 -84 183.327304348 -94.5963826088 171.598179618 -87.5589077707 c 0
 161.745684376 -81.6474106255 157.614158735 -68.4252222137 163 -59 c 2
 201.350523703 2.95084598249 l 1
 131.699224529 11.0707759394 95 33.8817244667 95 140 c 2
 95 380 l 1
 13 380 l 1
 13 496 l 1
 95 496 l 1
 95 620 l 1
 247 620 l 1
 247 496 l 1
 355 496 l 1
 355 380 l 1
 247 380 l 1
 247 180 l 2
 247 134.297955176 262.045631454 124 311 124 c 2
 355 124 l 1
 355 0 l 1
 259 0 l 2
 257.991342201 0 256.987811 0.00215317136052 255.989406397 0.00645951408157 c 2
 226 -48 l 1
 235.333333333 -46 245.384776311 -45 255.813316559 -45 c 0
 279.329560103 -45 346 -50.0849753891 346 -108.066146191 c 0
EndSplineSet
Substitution2: "'locl' Localized Forms in Latin lookup 8 subtable" uni021B
Substitution2: "'aalt' Access All Alternates lookup 0 subtable" uni021B
EndChar

StartChar: tildecomb
Encoding: 429 771 365
Width: 0
GlyphClass: 4
Flags: W
HStem: 569 79<193.749 291.788> 607 82<93.3756 188.144>
AnchorPoint: "Anchor-4" 185 689 basemark 0
AnchorPoint: "Anchor-4" 185 496 mark 0
AnchorPoint: "Anchor-0" 185 496 mark 0
LayerCount: 2
Fore
SplineSet
370 649.939033981 m 0x40
 370 612.937144771 318.807091302 569 255.087978415 569 c 0x80
 195.830167541 569 163.041333323 607 129.552250137 607 c 0
 110.989158237 607 92.9983325523 595.324440279 89 574 c 1
 0 574 l 1
 7.21982043483 618.12112488 31.4746954142 689 120.704694549 689 c 0x40
 188.569468819 689 208.547699656 648 248.675996179 648 c 0x80
 288.804292701 648 293.309123646 689 329.289191751 689 c 0
 352.922988827 689 370 671.310038033 370 649.939033981 c 0x40
EndSplineSet
Substitution2: "'case' Case-Sensitive Forms lookup 15 subtable" tildecomb.case
Substitution2: "Single Substitution lookup 7 subtable" tildecomb.case
Substitution2: "Single Substitution lookup 6 subtable" tildecomb.case
Substitution2: "Single Substitution lookup 4 subtable" tildecomb.case
Substitution2: "Single Substitution lookup 3 subtable" tildecomb.case
Substitution2: "'aalt' Access All Alternates lookup 0 subtable" tildecomb.case
EndChar

StartChar: zero.alt1
Encoding: 431 -1 367
Width: 652
Flags: W
HStem: -12 113<269.273 394.36> 567 113<271.135 396.57>
VStem: 45 157<248.284 479.47> 462 156<186.997 426.598>
DStem2: 208 246 251 139 0.570817 0.821077<0 292.32>
LayerCount: 2
Fore
SplineSet
330.562976185 101 m 0
 382.983845666 101 462 134.276261159 462 335.216115126 c 0
 462 372.727073719 459.246405092 403.456373265 454 431 c 1
 251 139 l 1
 271.666666667 113.666666667 298.220882632 101 330.562976185 101 c 0
331.469328924 567 m 0
 274.712556241 567 202 528.751958337 202 333.575430429 c 0
 202 301.20578969 204 272 208 246 c 1
 409 534 l 1
 387.666666667 556 361.906860789 567 331.469328924 567 c 0
618 341.073680258 m 0
 618 228.344557239 589.008869962 -12 338.86408931 -12 c 0
 244.612825812 -12 45 22.1213151717 45 328.54429474 c 0
 45 452.726335926 77.7841077562 680 329.032937732 680 c 0
 521.154353549 680 618 547.10991642 618 341.073680258 c 0
EndSplineSet
Substitution2: "'tnum' Tabular Numbers lookup 14 subtable" zero
Substitution2: "'aalt' Access All Alternates lookup 0 subtable" zero.tf
Substitution2: "'zero' Slashed Zero lookup 0-1" zero
EndChar

StartChar: copyleft
Encoding: 432 127279 368
Width: 798
Flags: W
HStem: -12 69<294.061 504.466> 145 85<334.607 441.11> 437 85<338.668 441.776> 610 69<294.064 501.027>
VStem: 53 70<228.093 435.676> 468 112<255.787 408.875> 675 70<228.776 438.675>
LayerCount: 2
Fore
SplineSet
580 331.817665809 m 0
 580 220.547685524 512.751604374 145 399.390566826 145 c 0
 358.574969774 145 279.453687491 154.793678586 235 231 c 1
 325 264 l 1
 337.666666667 241.333333333 357.7175843 230 386.08046818 230 c 0
 423.450563689 230 468 249.674572479 468 329.555817734 c 0
 468 353.766010908 463.907873319 437 390.108596333 437 c 0
 372.989949285 437 341.073619168 432.521471208 326 394 c 1
 234 428 l 1
 249.009256262 459.819623274 291.737756622 522 393.175813265 522 c 0
 499.739592615 522 580 453.376836114 580 331.817665809 c 0
123 334.133105553 m 0
 123 181.457830793 245.842348205 57 398.992893503 57 c 0
 551.987123478 57 675 181.203901071 675 333.122006082 c 0
 675 484.141636895 553.437866498 610 399.819195635 610 c 0
 249.071543503 610 123 488.802074482 123 334.133105553 c 0
745 334.191921359 m 0
 745 144.126683796 590.757580842 -12 399.244188513 -12 c 0
 209.582911604 -12 53 141.121500841 53 332.729013355 c 0
 53 522.391255275 206.419675018 679 398.257013984 679 c 0
 587.844020145 679 745 526.043878581 745 334.191921359 c 0
EndSplineSet
EndChar

StartChar: f_i
Encoding: 433 64257 369
Width: 616
Flags: W
HStem: 0 21G<87 239 419 572> 380 116<5 87 239 419> 578 180<438.598 554.023> 608 120<242.244 347>
VStem: 87 152<0 380 496 602.739> 406 180<610.561 727.342> 419 153<0 380>
LayerCount: 2
Fore
SplineSet
586 668.438006347 m 0xec
 586 618.000157125 546.954938093 578 496.548315162 578 c 0
 446.345363844 578 406 617.677563108 406 668.368640395 c 0
 406 718.654860536 445.703480441 758 496.515503214 758 c 0
 547.350010184 758 586 718.620032574 586 668.438006347 c 0xec
305 608 m 2xda
 251.913474997 608 239 600.490525217 239 563 c 2
 239 496 l 1
 572 496 l 1
 572 0 l 1
 419 0 l 1
 419 380 l 1
 239 380 l 1
 239 0 l 1
 87 0 l 1
 87 380 l 1
 5 380 l 1
 5 496 l 1
 87 496 l 1
 87 577 l 2
 87 693.064902679 142.256928186 728 278 728 c 2
 347 728 l 1
 347 608 l 1
 305 608 l 2xda
EndSplineSet
LCarets2: 1 350
Ligature2: "'liga' Standard Ligatures lookup 0-1" f i
EndChar

StartChar: f_f
Encoding: 434 64256 370
Width: 699
Flags: W
HStem: 0 21G<87 239 419 571> 380 116<5 87 239 419 571 679> 608 120<242.244 347 574.244 679>
VStem: 87 152<0 380 496 602.739> 419 152<0 380 496 602.739>
LayerCount: 2
Fore
SplineSet
637 608 m 2
 583.913474997 608 571 600.490525217 571 563 c 2
 571 496 l 1
 679 496 l 1
 679 380 l 1
 571 380 l 1
 571 0 l 1
 419 0 l 1
 419 380 l 1
 239 380 l 1
 239 0 l 1
 87 0 l 1
 87 380 l 1
 5 380 l 1
 5 496 l 1
 87 496 l 1
 87 577 l 2
 87 693.064902679 142.256928186 728 278 728 c 2
 347 728 l 1
 347 608 l 1
 305 608 l 2
 251.913474997 608 239 600.490525217 239 563 c 2
 239 496 l 1
 419 496 l 1
 419 577 l 2
 419 693.064902679 474.256928186 728 610 728 c 2
 679 728 l 1
 679 608 l 1
 637 608 l 2
EndSplineSet
LCarets2: 1 348
Ligature2: "'liga' Standard Ligatures lookup 0-1" f f
EndChar

StartChar: f_f_i
Encoding: 435 64259 371
Width: 933
Flags: W
HStem: 0 21G<87 239 419 571 751 904> 380 116<5 87 239 419 571 751> 578 180<770.598 886.023> 608 120<242.244 347 574.244 679>
VStem: 87 152<0 380 496 602.739> 419 152<0 380 496 602.739> 738 180<610.561 727.342> 751 153<0 380>
LayerCount: 2
Fore
SplineSet
918 668.438006347 m 0xee
 918 618.000157125 878.954938093 578 828.548315162 578 c 0
 778.345363844 578 738 617.677563108 738 668.368640395 c 0
 738 718.654860536 777.703480441 758 828.515503214 758 c 0
 879.350010184 758 918 718.620032574 918 668.438006347 c 0xee
637 608 m 2xdd
 583.913474997 608 571 600.490525217 571 563 c 2
 571 496 l 1
 904 496 l 1
 904 0 l 1
 751 0 l 1
 751 380 l 1
 571 380 l 1
 571 0 l 1
 419 0 l 1
 419 380 l 1
 239 380 l 1
 239 0 l 1
 87 0 l 1
 87 380 l 1
 5 380 l 1
 5 496 l 1
 87 496 l 1
 87 577 l 2
 87 693.064902679 142.256928186 728 278 728 c 2
 347 728 l 1
 347 608 l 1
 305 608 l 2
 251.913474997 608 239 600.490525217 239 563 c 2
 239 496 l 1
 419 496 l 1
 419 577 l 2
 419 693.064902679 474.256928186 728 610 728 c 2
 679 728 l 1
 679 608 l 1
 637 608 l 2xdd
EndSplineSet
LCarets2: 2 346 678
Ligature2: "'liga' Standard Ligatures lookup 0-1" f f i
EndChar

StartChar: f_f_l
Encoding: 437 64260 373
Width: 1013
Flags: W
HStem: 0 124<907.229 1010> 380 116<5 87 239 419 571 679> 608 120<242.244 347 574.244 679> 648 20G<749 901>
VStem: 87 152<0 380 496 602.739> 419 152<0 380 496 602.739> 749 152<134.717 668>
LayerCount: 2
Fore
SplineSet
637 608 m 2xee
 583.913474997 608 571 600.490525217 571 563 c 2
 571 496 l 1
 679 496 l 1
 679 380 l 1
 571 380 l 1
 571 0 l 1
 419 0 l 1
 419 380 l 1
 239 380 l 1
 239 0 l 1
 87 0 l 1
 87 380 l 1
 5 380 l 1
 5 496 l 1
 87 496 l 1
 87 577 l 2
 87 693.064902679 142.256928186 728 278 728 c 2
 347 728 l 1
 347 608 l 1
 305 608 l 2
 251.913474997 608 239 600.490525217 239 563 c 2
 239 496 l 1
 419 496 l 1
 419 577 l 2
 419 693.064902679 474.256928186 728 610 728 c 2
 679 728 l 1
 679 608 l 1
 637 608 l 2xee
901 180 m 2
 901 134.334094615 916.661872597 124 967 124 c 2
 1010 124 l 1
 1010 0 l 1
 913 0 l 2
 788.566977271 0 749 25.9164435375 749 140 c 2
 749 668 l 1
 901 668 l 1xde
 901 180 l 2
EndSplineSet
LCarets2: 2 348 716
Ligature2: "'liga' Standard Ligatures lookup 0-1" f f l
EndChar

StartChar: dong
Encoding: 438 8363 374
Width: 632
InSpiro: 1
Flags: W
HStem: -120 78<58 588> -12 118<231.355 332.669> 0 21G<412.03 563> 392 118<230.076 328.54> 555 78<243 394 546 612>
VStem: 24 158<160.98 338.451> 394 152<428 555 633 698> 401 145<153.05 342.023>
LayerCount: 2
Fore
SplineSet
58 -120 m 1x9c
 58 -42 l 1
 588 -42 l 1
 588 -120 l 1
 58 -120 l 1x9c
182 251.985438209 m 0
 182 159.868731839 231.302254105 106 292.936174045 106 c 0
 322.434838461 106 401 118.339622632 401 243.05073536 c 0xdd
 401 275.887375367 395.553254003 392 295.871209342 392 c 0
 232.755500511 392 182 345.449913228 182 251.985438209 c 0
398 67 m 1
 370.085351312 28.2796808523 321.273135325 -12 242.824883363 -12 c 0
 126.474670573 -12 24 76.6041050006 24 251.53809175 c 0
 24 435.420266184 137.226323176 510 234.887051592 510 c 0
 261.484006768 510 349.237964913 504.468476608 394 428 c 1
 394 555 l 1
 243 555 l 1
 243 633 l 1
 394 633 l 1
 394 698 l 1
 546 698 l 1
 546 633 l 1
 612 633 l 1
 612 555 l 1
 546 555 l 1xde
 546 194 l 2
 546 173.425846418 546.532947194 90.5687904356 563 0 c 1
 418 0 l 1xbd
 398 67 l 1
EndSplineSet
EndChar

StartChar: uni0237
Encoding: 474 567 410
Width: 259
HStem: -161 120<-70 50.0288> 476 20G<55 207>
VStem: 55 152<-33.5573 496>
AnchorPoint: "Anchor-0" 133 496 basechar 0
LayerCount: 2
Fore
SplineSet
207 -24 m 2
 207 -128.161087732 139.656445058 -161 17 -161 c 2
 -70 -161 l 1
 -70 -41 l 1
 -11 -41 l 2
 41.0453330013 -41 55 -34.2474513894 55 -2 c 2
 55 496 l 1
 207 496 l 1
 207 -24 l 2
EndSplineSet
EndChar

StartChar: uni2010
Encoding: 489 8208 425
Width: 334
Flags: W
HStem: 184 129<24 310>
VStem: 24 286<184 313>
LayerCount: 2
Fore
SplineSet
24 184 m 1
 24 313 l 1
 310 313 l 1
 310 184 l 1
 24 184 l 1
EndSplineSet
EndChar

StartChar: Ldot
Encoding: 496 319 432
Width: 537
HStem: 0 139<202 522> 251 193<326.053 449.417> 648 20G<44 202>
VStem: 44 158<139 668> 290 194<287.411 407.45>
LayerCount: 2
Fore
SplineSet
484 347.467141164 m 0
 484 293.011213459 441.84327484 251 388.054551633 251 c 0
 334.792745983 251 290 292.192156243 290 347.241748321 c 0
 290 401.920261142 334.190901846 444 388.123441001 444 c 0
 442.203323554 444 484 401.690023839 484 347.467141164 c 0
44 0 m 1
 44 668 l 1
 202 668 l 1
 202 139 l 1
 522 139 l 1
 522 0 l 1
 44 0 l 1
EndSplineSet
EndChar

StartChar: ldot
Encoding: 497 320 433
Width: 485
Flags: W
HStem: 0 124<208.229 311> 250 194<305.92 428.023> 648 20G<50 202>
VStem: 50 152<134.717 668> 270 195<287.026 407.467>
LayerCount: 2
Fore
SplineSet
465 347.474491808 m 0
 465 293.004925602 421.872863434 250 368.04512053 250 c 0
 314.475738439 250 270 292.593088793 270 347.403087108 c 0
 270 402.041574009 314.197827033 444 368.105971304 444 c 0
 422.215768257 444 465 401.72708149 465 347.474491808 c 0
202 180 m 2
 202 134.334094615 217.661872597 124 268 124 c 2
 311 124 l 1
 311 0 l 1
 214 0 l 2
 89.5669772721 0 50 25.9164435362 50 140 c 2
 50 668 l 1
 202 668 l 1
 202 180 l 2
EndSplineSet
EndChar

